<svg width="493" height="400" viewBox="0 0 493 400" fill="none" xmlns="http://www.w3.org/2000/svg">
<g clip-path="url(#clip0_590_985)">
<path d="M368.756 144.136C368.492 144.504 368.076 144.832 367.98 145.24C366.084 153.728 364.028 162.184 362.46 170.736C362.012 174.328 360.964 177.816 359.356 181.064C358.916 181.856 357.884 183.2 359.892 183.84C360.236 183.952 360.284 184.984 360.596 186.032L361.484 182.408L362.1 183.688C363.996 181.408 364.164 179.08 362.172 178.256C362.78 177.36 363.388 176.544 363.908 175.672C364.26 175.096 364.524 174.48 364.708 173.84C365.06 172.568 364.5 171.048 366.26 170.192C366.948 169.528 366.964 168.424 366.3 167.736C366.164 167.6 366.012 167.48 365.836 167.392C365.54 167.216 365.66 166.008 365.868 165.368C366.028 164.896 366.636 164.568 367.044 164.168C367.404 164.608 368.044 165.04 368.068 165.496C368.044 166.536 367.932 167.576 367.732 168.6C367.612 170.096 367.412 171.584 367.14 173.056C366.9 174.104 366.252 175.056 365.908 176.096C365.828 176.584 365.828 177.088 365.908 177.584L367.244 177.512C367.356 178.76 366.636 179.496 365.348 179.912C364.868 180.064 364.484 180.416 364.284 180.88C363.716 183.264 363.396 185.704 363.332 188.152C363.852 186.264 364.372 184.368 364.892 182.48L365.46 182.56C365.18 184.112 364.956 185.664 364.62 187.2C364.252 188.904 363.836 190.608 363.348 192.288C362.492 195.264 361.444 198.184 360.716 201.184C359.86 204.72 359.236 208.312 358.564 211.888C358.5 212.216 358.844 212.608 358.932 212.992C359.076 213.624 359.436 214.656 359.188 214.848C357.54 216.128 357.532 218.04 357.252 219.752C356.724 222.992 356.66 226.328 356.028 229.544C355.356 232.256 354.54 234.936 353.588 237.568C353.388 238.208 353.204 238.856 353.052 239.512C352.324 242.752 351.836 246.08 350.804 249.224C350.036 251.568 347.98 253.568 347.516 255.928C346.572 260.736 343.62 264.36 341.324 268.392C340.9 269.448 340.556 270.536 340.308 271.648C337.276 280.16 333.364 288.328 328.652 296.032C327.084 298.56 325.588 301.144 323.996 303.664C322.58 305.92 321.084 308.136 319.628 310.368L320.092 310.72C320.268 310.568 320.46 310.44 320.668 310.336C321.34 310.096 322.02 309.888 322.7 309.672C322.724 310.504 323.084 311.528 322.724 312.128C321.004 314.936 319.092 317.624 317.1 320.576L319.268 321.424C318.788 321.84 318.252 322.192 317.676 322.464C316.732 322.728 316.068 322.952 315.852 324.16C315.388 325.872 315.036 327.616 314.788 329.376C315.372 327.904 315.956 326.44 316.548 324.976L317.18 325.2C316.788 326.68 316.3 328.128 315.716 329.544C311.436 338.256 307.988 347.352 305.412 356.704C304.34 360.68 303.084 364.608 302.012 368.592C301.804 369.376 300.284 370.584 302.412 371.208C302.436 372.168 302.276 373.128 301.94 374.032C301.3 375.616 300.428 377.096 299.604 378.72C298.412 378.84 297.54 379.912 297.668 381.104C297.676 381.2 297.692 381.304 297.716 381.4C298.732 384.968 299.084 388.52 297.044 391.912C297.116 389.928 297.196 387.944 297.268 385.968C296.54 387.416 296.02 388.96 295.716 390.552C295.516 391.536 295.788 392.28 297.068 391.84L300.772 394.296L300.676 385.296L301.3 385.28C301.372 388.208 301.58 391.136 301.452 394.048C301.388 395.448 299.02 396.16 297.34 395.4C296.42 394.872 295.54 394.272 294.7 393.616C295.124 395.504 295.476 397.088 295.852 398.752L294.276 397.92L293.452 400L293.036 396.816L289.9 395.848L291.604 395.648L291.86 395.12L284.78 390.424L284.42 390.952L289.996 395.888C286.5 394.056 283.036 392.16 279.492 390.408C278.156 389.872 276.788 389.44 275.38 389.112L275.452 390.328L264.732 385.512L264.412 386L266.476 387.848L260.412 389.472L257.804 385.984L256.972 386.52C257.204 386.888 257.348 387.392 257.676 387.6C259.188 388.528 259.404 389.768 258.132 391C257.892 390.888 257.676 390.744 257.492 390.56C254.044 385.808 248.652 384.856 243.516 383.44C242.732 383.368 241.94 383.416 241.172 383.584C240.692 383.696 240.188 383.704 239.708 383.608C232.108 380.168 224.132 377.496 217.164 372.72C215.788 371.776 213.892 371.592 212.276 370.968C209.828 370.016 207.42 368.968 204.98 367.992C203.78 367.512 202.556 367.104 201.356 366.632C199.412 365.864 196.732 365.592 195.716 364.152C194.412 362.304 192.628 362.144 191.06 361.312C189.244 360.416 187.372 359.632 185.452 358.976C179.132 356.616 172.564 354.872 166.724 351.36C165.596 350.68 165.004 351.048 164.396 352.688C165.796 352.856 167.076 353.048 168.356 353.152C169.884 353.28 170.66 354.688 169.98 356.52C168.708 354.968 166.052 356.12 165.188 353.808C165.156 353.72 164.764 353.656 164.62 353.736C162.876 354.752 161.348 353.896 159.684 353.304L161.028 354.712C159.972 355.064 158.884 355.328 157.788 355.512C156.38 355.64 154.788 356.048 153.94 354.24C153.828 354 153.284 353.896 152.932 353.84C151.796 353.816 150.66 353.648 149.564 353.344C146.372 352.04 143.292 350.48 140.348 348.688C138.396 347.408 136.044 346.496 134.756 344.208C134.412 343.592 133.196 343.376 132.332 343.144C131.124 343.024 129.94 342.776 128.78 342.408C124.02 339.904 119.764 336.496 114.524 334.84C113.276 334.184 112.14 333.336 111.164 332.32C109.148 330.784 107.124 329.248 105.1 327.712C104.676 327.384 104.052 327.152 103.852 326.72C103.332 325.2 101.828 324.232 100.228 324.4C99.8517 324.416 99.4197 323.976 99.0677 323.672C97.8037 322.8 96.6677 321.768 95.6677 320.6C94.2277 318.472 91.9957 317.56 90.0597 316.152C88.1557 314.592 86.3957 312.872 84.7877 311C83.0197 309.152 81.4277 307.096 78.6837 306.576C78.4117 306.52 78.2117 306.128 77.8597 305.776L79.0837 304.696C78.8197 304.272 78.6437 303.688 78.2517 303.408C76.8437 302.4 76.2037 299.88 73.6437 301.008C73.4357 301.104 72.9397 300.584 72.5957 300.32C71.2997 299.312 70.0117 298.288 68.7237 297.272L68.3237 297.72L68.5477 299.048L63.6597 294.12C63.9237 294.16 64.1877 294.208 64.4517 294.248L64.8117 293.8L60.2037 289.6L59.9477 289.928L63.7957 294.16L54.8837 287.736L55.0917 287.392L58.3317 289.28L58.6197 288.96C57.4117 287.464 56.0917 286.056 54.6837 284.744C53.5717 284.04 52.3557 283.528 51.0757 283.232C50.9477 283.192 50.6437 283.656 50.3397 283.968C48.8357 282.624 47.2437 281.36 45.8277 279.92C41.9957 276.024 38.0997 272.176 34.5077 268.072C32.3957 265.888 30.7237 263.312 29.5877 260.496C28.5557 257.808 27.0277 255.344 25.0837 253.216C24.8197 252.912 24.4117 252.776 24.0197 252.848L25.8757 255.672L25.4357 255.96C24.2277 254.096 22.9557 252.272 21.8437 250.352C20.6357 248.192 18.8037 246.448 16.5877 245.344C16.1077 244.976 15.7637 244.456 15.6197 243.872C14.9637 241.968 14.4117 240.032 13.7957 238.112C13.7157 237.6 13.5077 237.112 13.1957 236.688C9.62774 233.536 8.56374 229.072 6.90774 224.92C6.26774 223.32 5.56374 221.736 5.03574 220.096C4.61974 218.808 4.43574 217.44 4.14774 216.112C4.13974 215.912 4.10774 215.712 4.04374 215.52C1.50774 210.704 2.29974 205.368 1.78774 200.256C1.55574 197.904 2.35574 195.432 2.00374 193.112C1.86774 191.512 2.11574 189.904 2.73174 188.416C2.81174 187.568 2.67574 186.72 2.34774 185.936C1.80374 184.552 1.40374 183.112 1.16374 181.64C0.979739 175.328 1.73174 169 0.403738 162.688C-0.00426153 160.744 0.787739 158.56 0.923739 156.48C1.08374 154.072 0.715739 151.552 1.31574 149.28C2.31574 145.488 0.683739 141.672 1.82774 137.936C2.10774 136.992 1.88374 135.904 2.07574 134.92C2.33174 133.632 2.80374 132.384 3.13974 131.112C3.36374 130.504 3.46774 129.856 3.45174 129.208C3.04374 126.584 3.56374 123.904 4.93174 121.624C5.50774 120.2 5.95574 118.72 6.26774 117.216C7.22774 114.624 8.29974 112.072 9.30774 109.552L8.98774 109.496L11.9397 103.52L12.7877 104.688L33.0517 83.72L32.6117 83.28C32.1397 83.928 31.5797 84.496 30.9397 84.976C30.1157 85.256 29.2597 85.424 28.3957 85.456L35.0037 80.256C33.0597 79.664 33.0597 79.664 30.4357 82.544C29.7557 81.448 30.9077 79.416 32.4437 78.928C34.1557 78.384 35.8277 77.704 37.5477 77.224C38.2997 77.12 39.0677 77.112 39.8197 77.208L42.9877 74.544L41.5397 74.072L41.4757 73.568C44.7477 72.648 48.0197 71.752 51.2837 70.808C52.1877 70.52 53.0677 70.176 53.9237 69.776C55.0757 69.272 56.2117 68.728 57.3557 68.2L57.7557 68.648L58.3957 66.336L49.1557 69.888L49.0757 69.728L50.7557 68.712L50.5637 68.216L46.4997 69.776L47.6277 70.36C43.6677 70.792 40.0117 72.696 37.3797 75.688C37.2757 75.592 37.1797 75.472 37.1157 75.352C36.9237 74.92 36.7717 74.472 36.5477 73.896C35.2917 74.608 33.6357 74.424 32.9317 76.4C32.3557 78.032 30.0517 77.944 28.9477 76.504C29.9477 75.568 31.0517 74.76 32.2437 74.096C33.9397 73.392 35.6037 73.064 36.4117 70.992C36.6917 70.248 38.3477 70.04 39.3077 69.184L37.1157 69.4C37.6597 68.28 38.2917 67.2 38.9957 66.176C39.6517 65.344 40.5157 64.272 41.4197 64.128C45.1957 63.536 47.6437 60.192 51.5717 59.728C55.4197 59.048 59.2197 58.16 62.9637 57.048C64.7477 56.432 66.6837 56.408 68.4837 56.976C69.1317 57.232 70.2117 56.512 71.0517 56.144C72.3317 55.392 73.6837 54.768 75.0917 54.28C80.8757 53.048 86.8677 52.928 92.4997 50.76C94.1077 50.144 96.0917 50.488 97.8997 50.384C100.58 50.24 103.332 49.608 105.9 50.064C109.636 50.728 113.108 48.632 116.788 49.56C117.66 49.592 118.532 49.576 119.404 49.504C120.636 49.648 121.844 50.008 123.068 50.224C123.636 50.384 124.228 50.416 124.812 50.32C127.148 49.544 129.692 49.712 131.9 50.792C132.876 51.008 133.868 51.12 134.868 51.136C136.716 51.52 138.524 52.112 140.38 52.456C142.548 52.856 144.748 53.048 146.924 53.376C147.684 53.544 148.444 53.752 149.18 54.008L148.084 55.352C157.108 60.872 166.068 66.304 172.548 75.784C173.78 72.608 174.74 70.088 175.748 67.592C176.044 66.912 176.396 66.256 176.804 65.64C178.108 63.584 179.532 61.6 180.708 59.472C181.18 58.28 181.572 57.056 181.868 55.808C182.108 55.208 182.476 54.664 182.948 54.224C184.476 52.784 186.076 51.4 187.644 50.008L187.156 49.44L183.66 52.64L183.292 52.296C184.62 50.792 185.94 49.288 187.548 47.464L185.5 47.456C186.652 45.344 187.82 43.256 188.948 41.144C190.044 39.096 191.572 37.16 190.668 34.568C190.572 34.296 190.86 33.816 191.092 33.512C194.628 28.728 198.22 23.992 203.484 20.92C205.34 19.832 207.252 18.856 209.1 17.76C211.052 16.384 213.1 15.152 215.236 14.064C218.956 12.584 222.804 11.424 226.724 10.6L225.124 11.464L225.188 11.728C228.028 11.368 230.86 10.896 233.716 10.664C238.252 10.288 242.628 8.992 247.308 9.208C251.42 9.264 255.516 8.776 259.492 7.752C261.252 7.12 263.092 6.704 264.956 6.52C267.3 6.576 270.076 6.088 271.868 7.168C274.212 8.584 275.74 7.28 277.612 6.936C282.804 5.992 287.988 5.088 293.092 7.36L284.58 6.688L284.516 7.536L294.372 9.008L294.532 8.376L293.004 7.312C295.348 8.072 297.652 8.952 299.908 9.944C303.364 11.64 306.74 13.512 310.044 15.48C314.556 18.176 318.868 21.216 323.46 23.776C332.204 28.656 339.244 35.536 346.372 42.392C349.82 45.6 352.484 49.552 354.164 53.944C355.324 57.008 357.284 59.768 358.724 62.736C359.444 64.312 360.012 65.952 360.42 67.632C361.252 70.808 361.948 74.016 362.836 77.768C364.268 73.728 360.7 60.568 356.428 52.92L358.092 54.16C357.516 51.856 356.956 49.576 354.708 48.344C354.572 48.272 354.188 48.664 353.588 49.048C353.164 47.712 352.652 46.416 352.036 45.152C351.236 43.936 350.364 42.768 349.412 41.664C348.884 40.968 347.74 40.736 348.244 39.28C348.396 38.832 346.828 37.728 345.956 37.024C345.764 36.864 345.212 37.152 344.516 37.304C343.788 36.352 341.724 35.84 342.076 33.544C343.748 33.312 345.404 34.024 346.38 35.4C347.716 37.584 349.612 39.384 351.876 40.592C352.772 40.992 353.004 42.76 353.676 43.832C354.148 44.448 354.692 45.024 355.284 45.528L355.708 45.224C355.708 44.8 355.708 44.384 355.708 43.864C356.756 45.08 357.876 46.136 356.932 47.872C356.756 48.232 356.74 48.648 356.9 49.016C358.572 52.064 360.468 54.976 362.572 57.736L358.964 50.544L359.452 50.24C360.428 51.936 361.548 53.544 362.364 55.312C365.34 61.608 367.06 68.424 367.444 75.376C367.7 80.216 368.06 85.048 368.372 89.88C368.38 90.024 368.332 90.232 368.396 90.272C371.7 92.344 367.796 95.064 369.468 97.296C366.508 97.528 367.636 99.376 367.372 101.288L368.1 100.16L368.572 100.072C368.82 102.488 369.052 104.912 369.316 107.328C369.388 108.04 369.532 108.752 369.724 109.44C370.3 111.376 370.956 113.296 371.484 115.24C371.604 115.672 371.332 116.208 371.268 116.704C371.124 117.352 371.06 118.016 371.1 118.68C371.524 121.24 372.052 123.776 372.532 126.328C372.652 126.984 372.732 127.64 372.892 128.752L371.716 127.392C369.308 129.848 370.516 133.168 369.692 135.992C369.572 137.152 369.644 138.32 369.908 139.448C369.764 140.488 369.7 141.536 369.476 142.56C369.308 143.128 369.06 143.648 368.756 144.136ZM318.828 30.312C316.212 28.808 314.54 25.976 311.124 25.448C309.588 25.208 308.212 23.584 306.908 22.432C306.588 22.152 306.836 21.232 306.82 20.608C306.26 19.92 305.54 19.384 304.716 19.048C304.268 18.84 303.788 18.672 303.308 18.568C302.588 20.384 301.868 18.736 301.196 18.568C300.788 18.416 300.388 18.232 300.02 18C302.38 20.184 305.084 21.92 307.236 24.176C308.74 25.944 310.668 27.312 312.836 28.136C312.812 28.392 312.676 28.824 312.78 28.888C314.172 29.784 315.652 30.544 316.996 31.504C318.972 32.912 320.796 34.528 322.78 35.92C323.54 36.272 324.348 36.496 325.18 36.584L327.58 38.28L326.172 39.16C327.02 39.728 327.932 40.184 328.892 40.528C331.396 41.184 333.556 42.768 334.932 44.96C337.316 48.072 339.3 51.48 341.588 54.672C345.796 60.272 349.452 66.256 352.524 72.552C353.1 73.52 353.788 74.416 354.564 75.232L355.004 74.928L351.956 68.952L352.172 68.848L353.364 70.448L353.9 70.176C353.564 69.296 353.236 68.408 352.884 67.536C352.204 65.864 351.42 64.224 350.828 62.528C350.276 60.968 350.252 59.128 349.404 57.784C347.556 54.824 344.66 52.736 342.748 49.68C340.988 46.88 337.988 44.848 335.492 42.52C333.148 40.136 330.652 37.904 328.036 35.832C325.14 33.728 321.876 32.12 318.772 30.304L318.828 30.312ZM286.78 383.528C286.82 381.656 286.412 379.736 287.444 378.232L267.884 368.656L267.604 368.88L269.324 371.112L269.428 370.792L267.172 368.752C267.044 369.136 266.948 368.36 266.732 367.624C266.684 367.448 266.22 367.4 265.748 367.208L266.148 368.944L265.812 369.24L263.004 367.128C260.34 368.072 262.972 369.24 263.252 370.32L262.316 370.336C263.268 371.12 264.412 371.64 265.62 371.864C268.556 372.32 271.276 373.664 273.436 375.704C274.62 376.624 275.884 377.44 277.204 378.152C279.444 379.496 281.724 380.76 283.948 382.128C284.916 382.728 285.78 383.488 286.7 384.176L288.756 385.28L289.204 384.816L288.228 382.272L286.78 383.528ZM31.7877 248.672L29.1957 246.976L30.2357 250.976C29.6357 250.576 29.2357 249.944 29.1237 249.232C28.6997 245.16 26.1237 242.304 23.7317 239.296C22.1317 237.28 19.9237 235.664 19.9957 232.528C20.0277 231.376 18.6517 230.192 17.8277 228.88C16.5557 231.336 18.6757 232.64 19.3557 234.64L16.2757 234.32C21.0277 239.968 25.4917 245.208 28.3157 251.584L26.2757 249.744L25.6917 250.312C27.3957 252.352 28.7397 255.064 30.9077 256.248C33.4437 257.632 34.5397 259.84 36.1397 261.8C37.7397 263.76 39.2437 265.784 40.7957 267.784L41.1397 267.528L40.7957 266.048L50.2997 274.4L50.4997 274.184L40.1077 260.096L41.8517 261.256C40.9637 259.344 39.8357 257.552 38.4837 255.928C36.3397 253.424 34.0117 251.08 31.7477 248.64C31.4677 246.264 29.9877 244.64 28.6997 242.896L28.1157 243.272L31.7877 248.672ZM333.26 248.296L332.78 248.272C332.572 249.272 331.844 250.616 332.244 251.224C333.46 253.056 332.196 254.144 331.516 255.496C331.284 256.104 331.124 256.728 331.036 257.368C332.508 257.672 331.596 258.696 331.612 259.4C331.58 260.104 331.508 260.8 331.388 261.488L331.94 261.616L334.7 251.336L335.012 251.4L335.228 253.512C336.988 253.288 337.628 252.264 337.508 249.992L336.364 251.32C337.932 246.016 339.724 240.888 338.412 235.304L337.3 235.16L339.084 232.088L340.612 232.608C340.38 229.856 339.604 227.144 342.06 225.656L340.284 221.048C339.132 225.688 338.02 230.12 336.932 234.568C336.62 235.856 335.732 237.752 336.26 238.352C337.372 239.624 335.684 240.792 336.644 241.8L334.876 240.952L336.164 244.296L334.116 250.096L333.26 248.296ZM56.4757 78.384C57.7477 77.6 58.8437 76.888 59.9797 76.24C61.4837 75.376 62.9797 74.496 64.5317 73.736C66.3637 72.84 68.0037 71.464 70.3637 73.136C71.5077 73.944 73.4757 73.576 75.0677 73.736L75.1397 73.112L71.4917 72.264L74.6117 70.568L74.7237 72.12C76.7077 72.144 76.6997 72.136 77.9077 70.592C78.0917 70.312 78.3557 70.104 78.6677 70C80.9877 69.632 83.3957 68.808 85.6357 69.12C87.9478 69.448 89.2517 67.752 91.2037 67.592C90.7237 67.336 90.1797 67.248 89.6437 67.328C87.4437 67.648 85.2197 67.92 83.0437 68.376C74.9237 70.072 66.7957 71.736 58.7237 73.624C55.7957 74.304 55.6437 74.968 56.4757 78.384ZM12.0837 225.432C12.5797 226.552 13.1877 227.624 13.8997 228.624C14.6837 229.304 15.5557 229.88 16.4917 230.336L16.1477 222.752L16.4517 222.808L14.5797 219.136L13.8757 220.224C13.9077 216.488 11.5797 212.928 13.2757 209.168C13.4037 208.888 13.1237 208.4 13.0197 208.016C12.5157 206.264 12.0757 204.488 11.4677 202.768C11.0837 202.048 10.6037 201.376 10.0437 200.776C10.4197 203.528 10.7637 205.712 11.0117 207.896C11.2597 210.048 11.4997 212.2 11.5797 214.36C11.6197 215.304 11.1717 216.248 11.1157 217.208C11.1477 217.776 11.3237 218.32 11.6277 218.8C11.8677 219.248 12.4197 219.56 12.5637 220.016C13.1157 221.712 13.5637 223.432 14.0597 225.184L12.0837 225.432ZM180.436 70.8L178.188 74.184L180.228 73.4C179.804 76.12 177.348 79.36 175.348 78.992L176.98 77.544L176.452 77.272L173.796 78.64L178.012 86.24L178.612 86.216C178.668 84.336 178.724 82.464 178.796 80.208L179.556 81.488L180.068 81.52C180.212 78.416 181.244 75.416 183.044 72.88C183.268 72.456 183.428 72 183.524 71.528C182.284 72.544 181.292 72.76 180.436 70.8ZM209.972 26.904C210.38 26.792 210.764 26.616 211.116 26.384C215.452 22.432 221.052 21.536 226.38 19.992C228.116 19.488 229.98 19.384 231.668 18.792C233.516 18.016 235.316 17.128 237.06 16.136C235.892 16.224 235.308 16.296 234.724 16.304C229.124 16.392 224.14 18.88 218.884 20.32C215.26 21.456 212.124 23.776 209.972 26.904ZM229.396 25.632L229.3 25.464C227.604 25.864 225.86 26.712 224.212 26.56C221.492 26.304 219.46 27.544 217.332 28.736C216.748 29.136 216.212 29.592 215.716 30.104L216.012 30.384L218.66 29.096C216.964 30.512 215.052 31.552 213.284 32.8C211.588 33.992 210.052 35.408 208.444 36.728L208.748 37.032L229.396 25.632ZM38.4197 242.592L37.6757 243.088C40.1157 247.072 42.4277 251.144 45.0277 255.016C47.4917 258.688 50.2277 262.192 52.9237 265.712C53.4757 266.208 54.0997 266.616 54.7797 266.904L55.2037 266.4C54.8517 265.864 54.5157 265.312 54.1397 264.792C51.9957 261.792 49.7477 258.856 47.7317 255.776C46.6837 254.176 46.5077 251.936 44.1397 251.448C44.0357 251.424 43.9557 251.256 43.8837 251.144C42.6517 249.136 41.4437 247.112 40.1877 245.12C39.6517 244.248 39.0117 243.432 38.4197 242.592ZM142.828 59.688L142.5 60.32C143.036 60.728 143.508 61.344 144.108 61.512C148.756 62.824 152.516 65.72 156.452 68.296C157.652 69.144 159.244 69.152 160.46 68.328C159.788 67.736 159.172 67.088 158.628 66.384C157.532 64.688 155.716 63.6 153.7 63.424C152.524 63.248 151.364 62.96 150.236 62.56C147.74 61.664 145.292 60.656 142.828 59.688ZM354.052 121.704L354.604 121.624C353.628 113.992 355.332 105.992 351.06 98.568C352.068 106.448 353.052 114.072 354.036 121.704H354.052ZM293.22 389.208C292.86 384.624 295.732 380.216 295.196 375.368L294.588 375.224C293.252 379.616 291.908 384.016 290.564 388.448L293.22 389.208ZM217.228 365.12L217.556 364.4C215.564 363.352 213.636 362.144 211.564 361.28C207.804 359.72 203.972 358.336 200.14 356.952C199.692 356.792 199.084 357.104 198.06 357.28L217.228 365.12ZM26.1957 239.976L26.6837 239.704L21.6837 230.056L20.9557 230.232L21.5717 235.536L26.1957 239.976ZM23.5877 193.744C22.8757 197.968 23.4197 202.312 25.1557 206.232C25.4917 202 24.9557 197.752 23.5877 193.744ZM146.956 342.688L147.316 343.112C148.26 343.248 149.188 343.488 150.092 343.816C152.548 345.016 154.948 346.32 157.324 347.656C157.796 347.92 158.044 348.56 158.476 348.936C158.868 349.216 159.284 349.456 159.716 349.656C160.452 348.344 161.132 349.536 161.82 349.72C162.396 349.904 162.956 350.128 163.5 350.384C158.716 347.352 153.78 344.744 148.796 342.232C148.356 342.016 147.572 342.52 146.956 342.688ZM35.1397 238.368L36.0517 237.776L29.1157 227.448L28.6757 227.728C30.2517 231.6 32.4357 235.192 35.1397 238.368ZM307.828 288.616C311.34 285.008 313.364 280.256 312.844 277.04C311.996 281.048 308.388 283.896 307.828 288.616ZM343.556 244.784C345.964 242.192 346.796 238.496 345.724 235.12C345.924 238.56 343.364 241.376 343.556 244.784ZM327.02 275.096C329.9 272.84 330.548 269.736 331.252 266.536C329.764 266.736 327.644 271.216 327.02 275.096ZM311.916 18.816L311.62 19.248L322.012 24.928C319.804 20.688 315.388 20.576 311.916 18.816ZM131.38 59.504L131.78 60.016L135.732 58.024C133.604 56.192 131.78 55.664 129.444 56.952L131.74 57.744L131.38 59.504ZM164.756 83.12L163.884 83.632C165.98 86.744 168.076 89.856 170.164 92.968L170.972 92.424L164.756 83.12ZM279.86 389.872L280.116 389.32C277.116 386.152 273.804 384.776 271.876 385.912L279.86 389.872ZM36.6437 267.736L36.1077 268.136C37.3797 271.376 40.5077 272.808 42.8357 275.024L43.2917 274.592L36.6437 267.736ZM364.684 110.232L365.252 110.112L363.316 100.976C362.3 103.392 362.94 106.552 364.684 110.232ZM40.8757 68.216L46.7717 64.448C43.6277 63.864 40.2597 66.016 40.8757 68.216ZM335.468 264.352C335.732 263.768 335.892 263.144 335.916 262.504C335.524 260.216 336.964 258.632 338.3 257.408C339.332 256.68 339.732 255.344 339.284 254.168C338.228 255.72 337.332 257.28 336.212 258.648C334.956 260.272 334.668 262.456 335.468 264.352ZM158.292 352.872L152.396 351.544C154.196 354.2 157.148 354.824 158.292 352.872ZM349.804 69.568C349.332 73.168 350.86 76.44 352.724 77.16L349.804 69.568ZM172.812 76.064C175.02 74.384 176.668 72.08 177.54 69.44L176.868 69.072L172.812 76.064ZM281.26 382.488L280.828 383.192C283.532 384.016 285.22 386.736 288.172 387.096L288.484 386.528L281.26 382.488ZM104.924 68.768L104.964 69.504L114.748 68.96L114.708 68.28L104.924 68.768ZM147.612 70.32C143.996 66.912 143.58 66.768 141.268 68.272L147.612 70.32ZM301.58 352.544L302.188 352.768C302.908 350.248 303.628 347.728 304.38 345.104C301.412 346.888 302.692 350.16 301.58 352.544ZM250.372 377.896L249.948 378.712L256.964 382.064L257.268 381.48L250.372 377.896ZM137.652 66.408L137.86 65.808L129.612 63.664L129.412 64.448L137.652 66.408ZM326.212 296.192C329.668 295.184 328.964 292.2 329.452 289.832L326.212 296.192ZM336.516 279.464C337.244 277.632 337.972 275.784 338.756 273.792C336.596 274.68 335.556 277.144 336.444 279.312C336.468 279.36 336.492 279.416 336.516 279.464ZM305.964 335.72L306.532 336.056C308.38 335.088 308.94 333.936 308.756 330.744L305.964 335.72ZM65.5397 78.952L65.3157 78.312L58.3077 80.528L58.5237 81.208L65.5397 78.952ZM80.2437 296.256L80.8677 295.552L75.9157 291.08L75.5397 291.472L80.2437 296.256ZM33.1237 215.04C32.2117 216.656 32.2517 217.816 34.0517 218.52C34.4677 215.88 34.4677 215.88 33.1237 215.04ZM27.3237 108.64L26.5637 108.272L23.6677 113.48L24.4357 113.92L27.3237 108.64ZM47.5957 85.504L48.0437 86.2L52.0597 83.448L51.5797 82.744L47.5957 85.504ZM196.796 357.184L197.132 356.28L192.652 354.624L192.316 355.496L196.796 357.184ZM238.964 350.464L239.38 349.816L233.5 346.256L233.22 346.688L238.964 350.464ZM222.164 340.184L221.844 340.728L226.868 343.896L227.276 343.24L222.164 340.184ZM323.908 257.712L323.268 257.496L321.484 262.208L322.292 262.488C322.828 260.896 323.364 259.296 323.908 257.712ZM23.6517 123.2L24.4757 123.392L25.9877 119L25.4677 118.84C24.7877 120.264 23.4277 121.456 23.6517 123.2ZM132.292 70.232L137.724 71.12C135.076 69.288 133.764 69.056 132.292 70.232ZM332.14 226.336C332.668 227.536 333.02 228.336 333.588 229.616L334.772 226.48L332.14 226.336ZM43.1797 90.328L43.5477 90.704L47.5877 87.224L46.9317 86.52L43.1797 90.328ZM341.484 216.72L340.828 216.76C340.956 218.424 341.076 220.08 341.204 221.744C341.1 220.064 342.972 218.376 341.484 216.72ZM148.132 66.472L148.628 65.704L145.788 63.96C145.716 66.416 146.852 66.536 148.132 66.472Z" fill="#FFCE07"/>
<path d="M281.556 0.495994C283.596 0.231994 285.644 0.103994 287.7 0.111994C289.124 0.199994 290.98 -0.712006 291.932 1.51999C292.156 2.03999 293.804 2.11999 294.788 2.11199C297.972 2.264 301.052 3.312 303.668 5.136C304.748 5.784 305.876 6.344 307.532 7.248L304.996 6.952L306.212 8.36C305.988 8.4 305.852 8.48 305.764 8.44C301.756 6.672 297.756 4.896 293.748 3.136C293.324 2.928 292.86 2.808 292.388 2.776C288.948 2.728 285.476 2.496 282.06 2.768C278.868 3.024 275.724 3.816 272.564 4.376L272.412 3.752C274.836 3.12 277.26 2.48 279.692 1.84799C280.468 1.64799 281.244 1.47199 282.02 1.27999L281.556 0.495994Z" fill="#FFCE07"/>
<path d="M339.763 287.736C339.691 287.368 339.619 287.008 339.531 286.512L338.403 287.104C338.475 285.888 338.683 284.68 339.019 283.512C339.603 282.376 340.299 281.304 341.083 280.304C341.299 280.04 341.467 279.752 341.579 279.432C342.099 277.136 342.435 274.784 343.147 272.552C343.747 271.224 344.499 269.96 345.387 268.808C345.387 269.44 345.411 270 345.387 270.552C345.291 272.528 344.075 274.312 344.699 276.496C344.923 277.272 344.995 279.296 342.915 279.328C342.771 279.328 342.579 279.88 342.491 280.2C341.787 282.736 341.107 285.288 340.427 287.832L339.763 287.736Z" fill="#FFCE07"/>
<path d="M368.764 144.136C369.068 143.648 369.316 143.128 369.492 142.584C369.708 141.56 369.788 140.512 369.924 139.472L370.876 141.312L371.22 136.904L371.788 136.912C371.74 139.504 371.684 142.088 371.636 144.888L370.108 144.264C369.484 146.448 368.788 148.488 368.372 150.576C368.396 151.456 368.588 152.32 368.948 153.12L369.468 153.048L370.244 151.16C371.268 153.72 370.604 158.208 368.652 161.816C368.54 160.616 368.388 159.68 368.372 158.736C368.276 154.832 367.092 150.912 368.684 147.016C368.868 146.08 368.9 145.104 368.764 144.136Z" fill="#FFCE07"/>
<path d="M329.604 24.912L331.476 24.904L329.572 22.888C334.084 24.104 337.244 27.12 339.98 30.76L329.556 25.328L329.604 24.912Z" fill="#FFCE07"/>
<path d="M327.348 301.376C327.748 302.152 327.932 302.504 328.164 302.952L329.468 302.104C329.58 302.288 329.708 302.384 329.7 302.48C329.428 304.496 327.212 307.288 324.62 308.632C325.548 306.16 326.38 303.96 327.348 301.376Z" fill="#FFCE07"/>
<path d="M323.171 17.712C321.883 18.808 320.299 18.424 317.507 16.456L318.915 16.152L315.115 13.712L315.435 13.176L323.171 17.712Z" fill="#FFCE07"/>
<path d="M332.899 298.248C331.931 296.808 332.667 292.424 334.355 291.2L333.411 295.064L333.675 295.16L335.435 292.672L335.875 292.952L332.899 298.248Z" fill="#FFCE07"/>
<path d="M19.5801 83.112C21.4281 81.2 23.0681 78.992 25.9001 78.456L26.3881 79.152L19.8761 83.512L19.5801 83.112Z" fill="#FFCE07"/>
<path d="M193.428 363.128C190.092 363.832 187.772 362.144 185.796 359.688L193.428 363.128Z" fill="#FFCE07"/>
<path d="M179.084 360.376C176.908 359.664 174.404 359.632 172.924 357.472L173.252 356.776L179.308 359.784L179.084 360.376Z" fill="#FFCE07"/>
<path d="M18.7881 92.456L22.2361 89.552C22.3881 92.104 20.9881 92.728 19.3481 93.12L18.7881 92.456Z" fill="#FFCE07"/>
<path d="M316.54 16.368L312.468 15.112L312.708 14.256L316.748 15.304L316.54 16.368Z" fill="#FFCE07"/>
<path d="M306.228 359.968C305.66 361.952 305.1 363.944 304.532 365.928L304.012 365.784C304.58 363.784 305.14 361.776 305.692 359.768L306.228 359.968Z" fill="#FFCE07"/>
<path d="M27.6599 72.032L24.4199 73.488L24.0439 72.664L27.3879 71.144L27.6599 72.032Z" fill="#FFCE07"/>
<path d="M369.795 81.2081C369.907 82.9921 370.019 84.7841 370.131 86.5681L369.579 86.6001C369.475 84.8161 369.371 83.0241 369.275 81.2401L369.795 81.2081Z" fill="#FFCE07"/>
<path d="M8.05988 233.304L8.85988 237.104L7.89188 237.272L7.37988 233.432L8.05988 233.304Z" fill="#FFCE07"/>
<path d="M312.748 28.088C314.1 27.8 315.5 28.256 316.412 29.296C317.164 29.76 317.98 30.096 318.828 30.304L318.748 30.28L321.148 33.072L320.932 33.248L312.748 28.088Z" fill="#FFCE07"/>
<path d="M281.476 378.488L278.468 378.4C281.796 377.184 281.796 377.184 283.756 379.936C283.268 379.744 282.796 379.512 282.34 379.248C282.02 379.024 281.732 378.768 281.476 378.488Z" fill="#FFCE07"/>
<path d="M94.6569 241.237L95.9129 250.637L116.313 243.709L120.441 255.293C112.481 257.877 105.017 260.341 98.0489 262.677C99.4249 270.437 101.137 277.965 103.193 285.261L84.2409 292.765L72.1289 230.957L111.729 219.677L117.265 235.149C109.321 236.981 101.777 239.013 94.6569 241.237Z" fill="#EE3342"/>
<path d="M146.728 212.749C157.696 210.805 164.696 213.493 167.72 220.821C170.28 229.821 166.96 238.133 157.76 245.773C159.68 247.637 166.736 253.221 178.944 262.509C175.32 266.605 170.68 271.741 165.016 277.917L141.808 256.781C143.128 264.621 144.632 271.701 146.304 278.029L129.056 285.229C124.664 253.861 120.84 232.869 117.576 222.269C128.912 217.357 138.632 214.189 146.728 212.749ZM138.432 236.581L139.336 242.837C141.736 241.357 143.96 239.605 145.96 237.621C149.376 234.325 150.672 231.717 149.848 229.789C149.32 228.365 147.84 227.805 145.408 228.093C142.808 228.589 140.272 229.381 137.864 230.469C137.888 232.517 138.08 234.557 138.432 236.581Z" fill="#EE3342"/>
<path d="M203.232 220.317C199.632 221.437 196.256 222.421 193.096 223.253C193.12 225.325 193.176 226.829 193.28 227.773L193.848 232.125L202.064 229.429L209.88 226.797L211.632 232.589L213.52 238.565C208.432 240.229 205.08 241.341 203.456 241.901C200.728 242.869 198.256 243.725 196.048 244.461L197.288 252.621L208.072 249.261L218.84 245.797L221.4 253.837L223.912 261.565C218.352 262.901 212.08 264.669 205.088 266.869C198.128 269.277 190.512 272.045 182.24 275.165C181.56 271.701 180.576 266.565 179.296 259.749L176.216 244.149C173.648 230.461 171.744 220.109 170.496 213.085L189.608 207.629L208.88 201.933L211.512 209.749L214.256 217.645C210.4 218.533 206.728 219.429 203.232 220.317Z" fill="#EE3342"/>
<path d="M249.28 212.149C245.68 213.269 242.304 214.253 239.144 215.085C239.16 217.157 239.224 218.661 239.328 219.605L239.896 223.957L248.112 221.261L255.928 218.629L257.68 224.421L259.568 230.397C254.48 232.061 251.128 233.173 249.504 233.733C246.776 234.701 244.304 235.557 242.096 236.293L243.336 244.453L254.128 241.093L264.896 237.629L267.464 245.669L269.976 253.397C264.416 254.733 258.144 256.501 251.152 258.701C244.192 261.109 236.584 263.877 228.312 266.997C227.624 263.533 226.648 258.397 225.368 251.581L222.288 235.981C219.72 222.293 217.816 211.941 216.568 204.917L235.68 199.453L254.952 193.757L257.584 201.573L260.328 209.469C256.456 210.365 252.776 211.253 249.28 212.149Z" fill="#EE3342"/>
<path d="M295.393 238.741C291.433 233.757 288.817 227.845 287.793 221.565C286.857 215.789 287.257 209.877 288.969 204.277C290.273 198.981 292.993 194.133 296.833 190.253C300.833 186.477 306.065 184.261 311.561 184.021C317.705 183.621 324.353 185.549 331.529 189.797L327.745 196.469L323.697 203.397C316.609 200.789 311.521 201.453 308.425 205.381C305.569 208.717 304.753 213.277 305.985 219.061C307.153 224.853 309.713 228.813 313.681 230.941C318.057 233.413 322.865 232.141 328.121 227.133L339.561 236.173C335.601 243.021 330.729 247.469 324.953 249.525C319.681 251.301 313.953 251.109 308.817 248.973C303.473 246.885 298.825 243.341 295.393 238.741Z" fill="#CE4A9B"/>
<path d="M338.4 243.741C341.704 223.149 343.408 202.325 343.496 181.469L368.976 173.429C375.288 190.733 384.448 210.285 396.464 232.093L377.432 239.709L372.68 229.277L359.952 232.781L359.704 244.205L338.4 243.741ZM368.104 218.077L359.096 195.877L359.192 219.765L368.104 218.077Z" fill="#CE4A9B"/>
<path d="M415.52 165.069C426.488 163.125 433.488 165.813 436.512 173.141C439.072 182.141 435.752 190.461 426.552 198.093C428.472 199.965 435.528 205.541 447.736 214.829C444.12 218.925 439.472 224.061 433.808 230.237L410.6 209.101C411.92 216.941 413.424 224.021 415.096 230.349L397.848 237.549C393.456 206.181 389.632 185.189 386.368 174.589C397.704 169.677 407.424 166.501 415.52 165.069ZM407.224 188.893L408.128 195.149C410.528 193.669 412.752 191.917 414.752 189.933C418.168 186.637 419.464 184.029 418.64 182.101C418.112 180.677 416.632 180.117 414.2 180.405C411.6 180.893 409.072 181.693 406.664 182.773C406.688 184.829 406.872 186.869 407.224 188.893Z" fill="#CE4A9B"/>
<path d="M472.025 172.637C468.425 173.757 465.049 174.741 461.889 175.573C461.905 177.645 461.969 179.149 462.065 180.093L462.633 184.445L470.849 181.749L478.665 179.117L480.417 184.909L482.305 190.885C477.217 192.549 473.865 193.661 472.241 194.221C469.513 195.189 467.041 196.045 464.825 196.781L466.065 204.941L476.857 201.581L487.625 198.117L490.193 206.157L492.705 213.885C487.145 215.221 480.873 216.989 473.881 219.189C466.921 221.597 459.313 224.365 451.041 227.485C450.353 224.021 449.377 218.885 448.097 212.069L445.017 196.469C442.449 182.781 440.545 172.429 439.297 165.405L458.409 159.949L477.681 154.253L480.313 162.069L483.057 169.965C479.193 170.845 475.521 171.733 472.025 172.637Z" fill="#CE4A9B"/>
<path d="M63.9683 204.485C60.2563 199.821 57.8083 194.285 56.8483 188.405C55.9683 182.997 56.3523 177.461 57.9523 172.221C59.1763 167.261 61.7203 162.725 65.3123 159.093C69.0643 155.557 73.9523 153.485 79.1043 153.253C84.8563 152.877 91.0883 154.677 97.8003 158.661L94.2563 164.909L90.4643 171.397C83.8323 168.957 79.0643 169.581 76.1603 173.253C73.4803 176.381 72.7203 180.645 73.8803 186.061C74.9683 191.493 77.3763 195.197 81.0883 197.189C85.1763 199.501 89.6883 198.317 94.6003 193.629L105.304 202.101C101.6 208.509 97.0403 212.677 91.6243 214.605C86.6883 216.269 81.3203 216.085 76.5123 214.085C71.5203 212.117 67.1763 208.797 63.9683 204.485Z" fill="#5C2D88"/>
<path d="M117 147.309C117.536 158.325 118.352 167.677 119.456 175.365L128.432 172.413L124.136 148.757L143.96 142.525C145.456 165.517 148.408 184.725 152.824 200.157L134.72 207.349L130.608 184.725C128.48 185.493 125.4 186.517 121.368 187.821C122.904 194.653 124.336 200.373 125.672 204.981L107.848 212.117L97.168 153.541L117 147.309Z" fill="#5C2D88"/>
<path d="M151.024 160.461L160.448 157.877L169.752 155.173C169.792 162.701 170.288 170.213 171.224 177.677C172.12 183.949 173.48 190.149 175.288 196.221L167.096 199.213L158.456 201.869L151.024 160.461Z" fill="#5C2D88"/>
<path d="M171.24 140.589L189.28 134.677C190.224 148.733 191.96 162.725 194.488 176.581L213.536 170.877L218.208 185.749C205.664 188.941 193.376 193.061 181.44 198.085L171.24 140.589Z" fill="#5C2D88"/>
<path d="M210.064 133.317C216.896 130.757 224 129.013 231.232 128.109C238.28 127.437 244.064 128.157 248.576 130.261C255.336 133.389 259.808 137.477 261.992 142.509C262.784 144.437 263.304 146.461 263.544 148.533C264.032 152.949 263.504 157.421 261.992 161.605C259.92 166.701 256.816 171.317 252.864 175.141C250.312 177.717 247.456 179.981 244.368 181.877C237.256 186.381 229.36 189.485 221.088 191.045L220.888 191.093L211.976 143.061C210.84 137.317 210.2 134.069 210.064 133.317ZM232.6 158.685C233.296 162.957 234.088 166.917 235 170.565C239.04 168.421 242.368 165.133 244.568 161.117C246.368 157.861 246.8 154.013 245.776 150.437C244.784 147.709 242.632 145.565 239.896 144.597C236.992 143.677 233.888 143.589 230.936 144.341C231.4 149.949 231.952 154.725 232.6 158.685Z" fill="#5C2D88"/>
<path d="M288.241 115.669C298.513 113.845 305.065 116.365 307.897 123.229C310.297 131.653 307.185 139.445 298.569 146.589C300.361 148.341 306.977 153.557 318.401 162.261C315.009 166.093 310.665 170.901 305.361 176.685L283.633 156.893C284.873 164.229 286.273 170.861 287.841 176.789L271.689 183.533C267.577 154.157 263.993 134.509 260.937 124.581C269.681 120.589 278.833 117.597 288.241 115.669ZM280.473 137.973L281.321 143.829C283.569 142.445 285.649 140.805 287.529 138.949C290.729 135.861 291.937 133.413 291.169 131.613C290.673 130.277 289.289 129.749 287.009 130.029C284.577 130.493 282.201 131.237 279.945 132.253C279.961 134.173 280.145 136.085 280.473 137.973Z" fill="#5C2D88"/>
<path d="M341.144 122.757C337.776 123.805 334.616 124.725 331.648 125.509C331.672 127.445 331.728 128.853 331.824 129.741L332.352 133.813L340.04 131.285L347.36 128.821L349 134.245L350.768 139.845C346.008 141.397 342.864 142.445 341.344 142.973C338.792 143.877 336.48 144.677 334.408 145.373L335.568 153.013L345.672 149.861L355.752 146.621L358.152 154.141L360.504 161.381C355.296 162.629 349.424 164.285 342.88 166.349C336.368 168.605 329.232 171.197 321.488 174.117C320.848 170.877 319.928 166.061 318.728 159.685L315.848 145.085C313.44 132.269 311.656 122.573 310.488 115.997L328.376 110.885L346.424 105.549L348.888 112.861L351.456 120.253C347.856 121.085 344.416 121.917 341.144 122.757Z" fill="#5C2D88"/>
<path d="M353.776 106.557L372.16 100.389C372.832 102.013 373.8 104.365 375.056 107.437C377.8 113.677 380.888 119.757 384.296 125.661C385.648 128.157 387.264 130.509 389.12 132.653L383.52 101.085L402.032 95.0848C403.328 117.333 406.128 136.221 410.432 151.733L393.904 158.533C393.824 158.421 392.952 157.541 391.304 155.893L380.432 145.421C379.112 144.469 377.936 143.341 376.928 142.069C378.096 148.653 379.464 154.901 381.032 160.821L364.664 167.405L353.776 106.557Z" fill="#5C2D88"/>
<path d="M430.945 91.5408C429.081 99.9328 427.969 108.477 427.625 117.061L411.721 122.061L415.441 95.5248L430.945 91.5408Z" fill="#5C2D88"/>
<path d="M474.281 94.6768C474.985 96.4848 475.737 98.5168 476.521 100.773C474.881 101.717 472.329 103.005 468.873 104.645L461.121 108.445C460.185 106.093 458.721 105.093 456.713 105.445C453.833 105.981 451.273 107.621 449.577 110.005C448.489 111.533 448.289 113.525 449.049 115.237C449.777 116.077 451.521 116.253 454.281 115.765C456.097 115.405 457.889 114.925 459.649 114.325C462.409 113.413 465.225 112.685 468.081 112.149C474.401 111.029 478.785 111.861 481.225 114.661C481.913 115.525 482.505 116.453 482.977 117.445C484.473 120.797 484.169 124.725 482.065 129.237C479.553 135.109 474.801 140.541 467.801 145.525C464.273 148.021 460.233 149.693 455.977 150.437C451.857 151.125 447.657 151.085 443.553 150.317C444.105 146.861 445.089 141.677 446.513 134.773C449.313 135.589 452.257 135.765 455.129 135.277C456.305 135.061 457.441 134.701 458.521 134.189C460.585 133.429 462.553 132.429 464.385 131.213C466.881 129.605 467.889 128.197 467.417 126.989C466.849 125.605 465.033 125.189 461.961 125.733C458.953 126.341 455.985 127.157 453.097 128.181C450.249 129.357 447.297 130.269 444.281 130.909C442.009 131.405 439.657 131.397 437.393 130.869C433.825 130.077 431.713 128.197 431.057 125.205C429.505 119.341 431.881 111.813 438.193 102.621C444.753 92.9968 451.657 87.3088 458.913 85.5728C465.825 84.1648 470.953 87.1968 474.281 94.6768Z" fill="#5C2D88"/>
<path d="M133.809 293.945L160.825 289.153L162.185 296.809L144.721 299.913L146.049 307.417L161.153 304.737L162.465 312.129L147.361 314.809L149.865 328.937L140.313 330.633L133.809 293.945Z" fill="#08A88B"/>
<path d="M200.705 304.274C202.593 314.906 198.649 321.066 187.553 323.026C176.457 324.986 170.633 320.57 168.753 309.938L164.929 288.418L174.481 286.722L178.401 308.81C179.241 313.538 181.409 315.642 186.089 314.81C190.761 313.978 192.081 311.258 191.241 306.53L187.321 284.442L196.873 282.746L200.705 304.274Z" fill="#08A88B"/>
<path d="M203.161 281.642L212.969 279.898L229.721 300.234L229.825 300.218L225.825 277.618L234.817 276.026L241.321 312.706L231.513 314.45L214.721 293.85L214.617 293.866L218.673 316.722L209.681 318.314L203.161 281.642Z" fill="#08A88B"/>
<path d="M241.329 274.866L257.097 272.066C268.345 270.074 276.289 275.706 278.297 287.058C280.433 299.082 274.745 306.762 263.601 308.738L247.833 311.538L241.329 274.866ZM255.929 301.634L260.449 300.834C267.665 299.394 270.041 296.058 268.737 288.706C267.553 282.026 263.377 279.426 256.857 280.586L252.337 281.386L255.929 301.634Z" fill="#08A88B"/>
<path d="M149.247 124.062C148.783 123.078 147.727 122.526 146.663 122.702C146.375 122.718 146.095 122.638 145.855 122.478C145.159 122.094 144.495 121.662 143.743 121.198C143.383 121.382 142.759 121.694 142.127 122.014C140.903 122.534 140.207 123.846 140.463 125.15C140.511 125.182 140.559 125.246 140.607 125.246C141.911 125.326 142.247 125.638 142.255 127.006C142.327 128.622 142.007 130.23 141.319 131.694C141.303 131.718 141.303 131.758 141.287 131.774C140.055 132.982 139.239 134.558 138.983 136.27C138.943 136.462 138.559 136.59 138.319 136.718C137.759 136.958 137.215 137.254 136.711 137.606C136.071 138.134 135.975 139.086 136.503 139.726C136.519 139.742 136.535 139.758 136.551 139.774C136.743 140.07 137.079 140.302 137.199 140.622C137.343 140.974 137.455 141.622 137.303 141.734C136.927 141.934 136.487 141.99 136.071 141.894C135.215 141.734 134.367 141.494 133.551 141.182C133.143 141.014 132.815 140.702 132.623 140.31C132.367 139.678 132.087 139.606 131.471 139.806C130.855 139.966 130.215 140.062 129.583 140.086C129.319 140.118 128.959 139.942 128.799 140.07C127.919 140.758 127.199 140.422 126.455 139.846C126.239 139.75 125.999 139.718 125.759 139.774C123.783 139.958 121.799 139.478 120.135 138.398C118.703 137.686 117.399 136.726 116.287 135.574C115.503 134.726 114.951 133.686 114.679 132.566C114.415 131.654 114.055 130.766 113.607 129.934C113.295 129.334 113.223 128.638 113.415 127.982C113.607 127.014 113.695 126.022 113.679 125.038C113.023 124.382 112.271 123.694 111.591 122.926C110.823 122.158 109.967 121.494 109.023 120.95C107.927 120.078 106.975 119.046 106.199 117.878C105.679 117.19 105.279 116.422 105.015 115.598C104.767 113.558 105.479 111.526 106.943 110.086C107.367 109.822 107.719 109.438 107.935 108.99C108.551 106.886 110.327 106.134 112.087 105.574C113.983 104.886 115.615 103.622 116.751 101.958C117.055 101.558 117.455 101.23 117.911 101.014C118.679 100.694 119.311 100.11 119.695 99.3664C120.071 98.8464 120.519 98.3824 121.031 97.9904C121.463 97.5744 122.119 97.2704 122.327 96.7664C123.087 95.0464 124.583 93.7584 126.391 93.2624C128.239 92.6384 130.167 92.2384 132.055 91.7184C132.655 91.5584 133.103 91.6544 133.359 92.2864C133.439 92.4784 133.631 92.6224 133.679 92.8144C134.247 94.8384 135.935 95.0944 137.599 95.2864C139.887 95.3504 142.151 95.7664 144.319 96.5264C144.959 96.7664 145.583 97.0464 146.183 97.3744C146.567 97.5904 146.839 97.9584 146.935 98.3904C146.959 100.166 148.191 100.982 149.439 101.83C150.311 102.39 151.151 103.006 151.959 103.662C152.831 104.422 152.839 104.99 152.447 106.054C152.303 106.526 152.311 107.03 152.471 107.494C152.695 108.11 153.007 108.686 153.407 109.214C154.039 109.99 154.239 111.03 153.935 111.99C153.695 112.838 153.927 113.75 154.551 114.382C155.159 115.142 155.711 115.942 156.199 116.782C156.431 117.158 156.287 117.438 155.831 117.686C155.231 118.006 154.495 118.286 154.895 119.35C155.023 119.694 154.431 120.358 154.095 120.822C153.799 121.222 153.319 121.502 153.071 121.926C152.695 122.558 152.279 122.518 151.727 122.262C150.583 121.726 150.535 121.774 150.055 122.95C149.831 123.334 149.559 123.718 149.247 124.062Z" fill="#5C2D88"/>
<path d="M161.159 90.6864C160.695 90.9504 160.199 91.1824 159.695 91.3584C159.351 91.3744 158.999 91.3344 158.671 91.2304C158.807 90.9504 158.863 90.5104 159.087 90.3824C160.559 89.4304 162.135 88.6544 163.775 88.0624C165.727 87.4544 167.591 86.5744 169.303 85.4544C171.455 84.0704 174.015 83.4704 176.559 83.7504C178.471 84.1664 179.679 86.0464 179.263 87.9584C179.183 88.3184 179.055 88.6624 178.871 88.9744C178.391 89.6144 177.823 90.1824 177.175 90.6544C175.647 91.9504 173.759 92.7584 171.767 92.9744C170.399 93.1024 169.095 93.5744 167.951 94.3344C166.623 94.9984 165.215 95.5024 163.767 95.8304C160.927 96.5264 158.223 97.6704 155.743 99.2144C154.471 100.174 152.663 99.9184 151.703 98.6544C151.551 98.4544 151.431 98.2384 151.335 98.0144C151.039 97.3984 150.479 96.9424 149.815 96.7744C149.071 96.5664 148.791 95.9424 149.239 95.3504C149.727 94.6544 150.351 94.0544 151.071 93.5984C152.255 92.9744 153.487 92.4464 154.751 92.0304C155.559 91.7504 155.815 92.0464 155.639 92.8784C155.551 93.2944 155.359 93.7104 155.943 93.9024C156.495 94.0864 156.879 94.2624 157.479 93.6704C158.311 93.0144 159.247 92.5024 160.239 92.1424C160.823 91.8624 161.319 91.5984 161.159 90.6864Z" fill="#5C2D88"/>
<path d="M167.886 116.046L166.606 114.83C167.174 113.718 168.23 112.934 169.454 112.702C171.278 112.414 173.11 112.238 174.95 112.166C175.798 112.158 176.606 111.838 177.238 111.27C179.406 109.182 182.31 108.03 185.326 108.078C186.798 108.206 188.038 109.238 188.422 110.67C189.47 112.838 188.558 115.446 186.39 116.494C186.19 116.59 185.982 116.67 185.774 116.734C184.83 117.006 183.926 117.39 183.07 117.862C182.334 118.278 181.446 118.326 180.67 117.99C180.278 117.846 179.894 117.694 179.494 117.566C178.23 117.03 176.774 117.246 175.726 118.134C175.046 118.614 174.294 118.982 173.494 119.23C173.134 119.31 172.758 119.318 172.39 119.262C172.222 119.262 171.99 119.126 171.886 119.198C170.87 119.878 170.406 119.086 169.822 118.502C169.406 118.022 168.902 117.614 168.35 117.31C167.678 116.99 167.43 116.694 167.886 116.046Z" fill="#5C2D88"/>
<path d="M169.278 102.534C169.054 102.406 168.95 102.35 168.854 102.286C168.51 102.062 168.166 101.838 167.814 101.606C168.078 101.246 168.27 100.718 168.63 100.55C169.606 100.126 170.606 99.7664 171.63 99.4624C171.934 99.3584 172.278 99.3904 172.59 99.2944C173.934 98.6784 175.526 98.9264 176.622 99.9264C177.094 100.214 177.614 100.414 178.158 100.51C178.166 100.278 178.182 100.238 178.174 100.23C177.246 98.8704 177.222 98.8304 178.526 97.6224C180.462 95.9264 182.798 94.7664 185.318 94.2384C186.614 93.8304 187.998 94.5504 188.406 95.8464C188.43 95.9104 188.446 95.9744 188.462 96.0464C189.206 98.0064 189.35 99.9104 187.662 101.502C186.79 102.47 185.518 102.974 184.222 102.87C183.51 102.822 182.806 102.894 182.118 103.078C181.374 103.39 180.534 103.382 179.79 103.062C179.51 102.982 179.206 103.046 178.99 103.23C177.99 104.134 176.774 104.766 175.462 105.062C174.11 105.518 172.742 105.934 171.382 106.35C171.222 106.374 171.054 106.382 170.886 106.374L170.702 105.686C170.206 105.446 169.702 105.23 169.182 105.046C168.79 104.974 168.39 104.95 167.99 104.958L169.278 102.534Z" fill="#5C2D88"/>
<path d="M153.207 141.174C153.247 140.966 153.263 140.894 153.271 140.822C153.399 139.878 153.183 138.462 153.711 138.094C155.071 136.998 156.895 136.646 158.567 137.158C160.159 137.758 161.711 138.47 163.215 139.286C164.895 140.166 166.455 143.974 165.991 145.814C165.591 147.35 164.223 148.43 162.639 148.47C160.503 148.846 158.327 148.942 156.175 148.742C154.127 148.422 151.823 147.838 150.871 145.55C150.527 144.51 150.343 143.422 150.327 142.326C150.311 142.126 150.775 141.758 151.079 141.67C151.751 141.438 152.471 141.334 153.207 141.174Z" fill="#5C2D88"/>
<path d="M147.302 78.8304C148.558 76.5264 149.782 74.4384 152.638 74.0384C153.558 73.7904 154.446 73.4384 155.278 72.9904C156.038 72.7024 156.894 73.0864 157.182 73.8464C157.198 73.8864 157.214 73.9344 157.222 73.9744C157.446 75.0784 157.43 76.2224 157.166 77.3264C156.662 78.2624 155.878 79.0224 154.926 79.5024C153.598 80.2704 152.062 80.6624 150.726 81.4224C149.638 82.1344 148.598 82.9104 147.606 83.7584C147.246 84.0384 146.846 84.2704 146.422 84.4544C146.294 84.5104 145.982 84.3104 145.87 84.1424C145.814 84.0544 145.966 83.7584 146.094 83.6224C146.35 83.3504 146.662 83.1264 147.046 82.7904C146.446 82.5904 145.87 82.3264 145.334 81.9904C144.87 81.6704 144.55 81.1904 144.438 80.6384C144.454 79.8464 145.214 79.4864 145.95 79.3664C146.142 79.3344 146.422 79.5504 146.59 79.7264C146.91 80.0384 147.142 80.4464 147.478 80.7264C148.086 81.2384 148.59 81.1184 148.926 80.4544C149.15 80.0144 149.158 79.6864 148.59 79.4864C148.158 79.2944 147.726 79.0784 147.302 78.8304Z" fill="#5C2D88"/>
<path d="M165.855 118.702C165.455 119.158 165.183 119.43 164.959 119.726C164.575 120.374 163.743 120.582 163.103 120.198C163.023 120.15 162.951 120.094 162.879 120.03C162.327 119.638 161.783 119.238 161.351 118.918L159.303 119.942C159.535 118.686 159.007 117.406 157.951 116.678C157.455 116.23 157.767 115.174 158.479 114.846C159.215 114.318 160.151 114.174 161.007 114.462C161.343 114.582 161.703 114.622 162.063 114.574C163.775 114.462 164.423 115.71 165.031 116.934C165.159 117.198 164.887 117.662 164.815 118.03L164.503 118.086L165.855 118.702Z" fill="#5C2D88"/>
<path d="M164.047 103.102L161.863 104.254L162.015 104.558C162.407 104.406 162.791 104.23 163.167 104.038C163.615 103.662 164.287 103.726 164.655 104.182C164.679 104.214 164.711 104.254 164.735 104.286C165.175 104.862 165.599 105.446 166.023 106.006C164.919 107.054 163.119 106.574 162.639 108.174C160.943 107.662 159.543 106.566 159.959 104.678C159.191 104.822 158.383 105.262 157.791 104.382C159.591 102.902 162.615 102.214 164.047 103.102Z" fill="#5C2D88"/>
<path d="M138.999 89.6304C138.663 89.6144 138.327 89.5664 137.999 89.4864C137.471 89.3904 137.119 88.8784 137.215 88.3504C137.239 88.2224 137.287 88.0944 137.367 87.9824C137.559 87.5824 137.815 87.2224 138.119 86.9024C138.999 86.0304 139.295 86.0464 140.159 86.9184C140.183 86.9344 140.199 86.9584 140.223 86.9824L141.207 88.3424C140.607 88.7424 140.007 89.1424 139.399 89.5344C139.271 89.5824 139.135 89.6144 138.999 89.6304Z" fill="#5C2D88"/>
<path d="M158.807 107.406C159.671 107.486 160.463 107.926 160.303 108.366C160.087 108.79 159.703 109.094 159.247 109.222C158.631 109.374 157.863 109.198 157.783 108.47C157.751 108.158 158.447 107.774 158.807 107.406Z" fill="#5C2D88"/>
<path fill-rule="evenodd" clip-rule="evenodd" d="M347 300.709H477.728C481.32 300.717 484.224 303.629 484.232 307.213V360.421C484.224 364.013 481.312 366.917 477.728 366.925H347C343.408 366.917 340.504 364.005 340.496 360.421V307.221C340.496 303.629 343.408 300.725 347 300.709Z" fill="#00703C"/>
<path fill-rule="evenodd" clip-rule="evenodd" d="M477.728 364.189H347C344.92 364.189 343.24 362.501 343.232 360.421V307.221C343.232 305.141 344.92 303.461 347 303.453H477.728C479.808 303.453 481.488 305.141 481.496 307.221V330.093H383.752V312.557H373.224V330.093H364.376V312.557H353.848V354.829H364.376V338.501H373.224V354.829H383.752V338.501H481.488V360.429C481.488 362.509 479.8 364.189 477.728 364.189ZM477.728 297.973H347C341.896 297.981 337.76 302.117 337.752 307.221V360.429C337.76 365.533 341.896 369.677 347 369.677H477.728C482.832 369.669 486.976 365.533 486.976 360.429V307.221C486.968 302.117 482.832 297.981 477.728 297.973Z" fill="#FFD200"/>
<path fill-rule="evenodd" clip-rule="evenodd" d="M397.321 322.189C396.441 323.253 394.865 323.405 393.801 322.525C393.681 322.421 393.569 322.309 393.465 322.189C392.545 320.517 392.545 318.485 393.465 316.813C393.913 316.205 394.633 315.869 395.385 315.917C396.137 315.877 396.865 316.221 397.321 316.821C397.841 317.613 398.089 318.557 398.025 319.501C398.089 320.453 397.841 321.397 397.321 322.189ZM395.393 312.141C393.289 312.021 391.217 312.725 389.609 314.093C386.809 317.157 386.801 321.853 389.593 324.925C393.017 327.525 397.761 327.525 401.185 324.917C404.001 321.861 404.001 317.157 401.185 314.101C399.577 312.717 397.497 312.021 395.393 312.141Z" fill="#FFD200"/>
<path fill-rule="evenodd" clip-rule="evenodd" d="M421.441 312.621H421.281L421.249 312.781L419.385 321.045L417.769 312.789L417.737 312.621H412.505L412.473 312.789L410.913 321.029L409.065 312.789L409.033 312.629H403.753L403.841 312.893L408.137 326.277L408.185 326.421H413.297L413.337 326.261L415.185 318.309L416.929 326.261L416.961 326.421H422.169L422.217 326.277L426.497 312.893L426.585 312.629L421.441 312.621Z" fill="#FFD200"/>
<path fill-rule="evenodd" clip-rule="evenodd" d="M436.632 320.229V321.445C436.648 322.037 436.392 322.605 435.936 322.981C435.408 323.397 434.752 323.605 434.088 323.581C433.68 323.597 433.272 323.461 432.96 323.197C432.68 322.941 432.528 322.573 432.552 322.197C432.536 321.909 432.64 321.629 432.848 321.421C433.168 321.157 433.552 320.981 433.96 320.901C434.136 320.861 434.448 320.789 434.96 320.693C435.52 320.597 436.088 320.445 436.632 320.229ZM441.704 324.957C441.576 324.509 441.52 324.053 441.536 323.589V318.509C441.568 317.557 441.488 316.605 441.312 315.669C441.176 315.093 440.912 314.557 440.544 314.093C439.96 313.445 439.208 312.965 438.376 312.725C437.296 312.405 436.176 312.253 435.056 312.285C433.344 312.189 431.64 312.581 430.144 313.429C428.952 314.229 428.184 315.517 428.032 316.941L428 317.173H432.776L432.808 317.005C432.872 316.597 433.112 316.237 433.456 316.021C433.912 315.765 434.432 315.645 434.952 315.669C435.4 315.637 435.848 315.733 436.256 315.941C436.504 316.093 436.648 316.357 436.632 316.645V316.965C436.632 317.093 436.472 317.533 434.352 317.853C433.312 318.013 432.4 318.181 431.632 318.333C430.496 318.517 429.456 319.045 428.632 319.853C427.944 320.637 427.584 321.653 427.632 322.693C427.584 323.845 428.056 324.957 428.92 325.717C429.896 326.501 431.12 326.893 432.368 326.829C433.24 326.837 434.104 326.685 434.92 326.373C435.616 326.093 436.256 325.701 436.824 325.205C436.84 325.325 436.864 325.437 436.88 325.565C436.92 325.813 436.976 326.053 437.024 326.237L437.064 326.397H442.272V325.549L442.144 325.509C441.92 325.405 441.768 325.197 441.704 324.957Z" fill="#FFD200"/>
<path fill-rule="evenodd" clip-rule="evenodd" d="M451.408 312.973C450.768 313.341 450.224 313.853 449.816 314.461V312.629H444.856V326.421H449.984V321.717C449.968 320.885 450.008 320.045 450.096 319.213C450.136 318.813 450.256 318.429 450.448 318.085C450.712 317.709 451.072 317.413 451.496 317.237C452.048 317.029 452.632 316.933 453.224 316.957C453.4 316.957 453.584 316.965 453.776 316.973C453.968 316.981 454.144 317.005 454.376 317.029L454.6 317.053V312.277H454.392C453.352 312.261 452.328 312.501 451.408 312.973Z" fill="#FFD200"/>
<path fill-rule="evenodd" clip-rule="evenodd" d="M466.649 319.381C466.713 320.309 466.481 321.237 465.985 322.021C465.537 322.605 464.825 322.933 464.089 322.877C463.345 322.925 462.617 322.597 462.161 322.005C461.657 321.221 461.417 320.301 461.481 319.373C461.433 318.493 461.681 317.629 462.185 316.909C462.625 316.341 463.321 316.013 464.041 316.037C464.777 315.989 465.497 316.309 465.961 316.885C466.465 317.621 466.705 318.493 466.649 319.381ZM471.513 307.869H466.593V313.933C466.161 313.445 465.633 313.045 465.041 312.765C464.217 312.389 463.321 312.197 462.409 312.213C460.665 312.173 459.001 312.933 457.897 314.277C456.689 315.773 456.073 317.653 456.145 319.565C456.065 321.461 456.681 323.317 457.889 324.781C459.033 326.101 460.713 326.837 462.457 326.789C463.337 326.805 464.201 326.621 464.993 326.245C465.585 325.941 466.113 325.525 466.545 325.013V326.405H471.697V307.861H471.497" fill="#FFD200"/>
<path fill-rule="evenodd" clip-rule="evenodd" d="M397.024 348.781V349.989C397.04 350.581 396.768 351.141 396.296 351.493C395.736 351.909 395.048 352.117 394.352 352.085C393.92 352.109 393.496 351.973 393.16 351.709C392.872 351.469 392.72 351.109 392.736 350.733C392.72 350.445 392.832 350.165 393.04 349.973C393.384 349.717 393.784 349.541 394.208 349.461C394.392 349.421 394.72 349.349 395.256 349.261C395.864 349.149 396.456 348.989 397.024 348.781ZM402.32 353.429C402.192 352.997 402.128 352.541 402.144 352.085V347.093C402.176 346.157 402.096 345.213 401.912 344.293C401.768 343.717 401.488 343.189 401.104 342.741C400.488 342.093 399.704 341.629 398.84 341.397C397.712 341.085 396.544 340.941 395.376 340.965C393.6 340.869 391.824 341.261 390.248 342.093C389.024 342.853 388.208 344.125 388.032 345.557L387.992 345.789H392.968L393 345.629C393.072 345.221 393.32 344.869 393.68 344.653C394.168 344.397 394.712 344.277 395.256 344.309C395.728 344.277 396.2 344.373 396.624 344.581C396.88 344.717 397.032 344.989 397.024 345.277V345.589C397.024 345.717 396.848 346.141 394.624 346.453C393.536 346.613 392.576 346.773 391.784 346.933C390.616 347.109 389.528 347.629 388.656 348.429C387.944 349.189 387.568 350.197 387.608 351.229C387.568 352.381 388.064 353.485 388.96 354.213C389.992 354.989 391.264 355.373 392.552 355.309C393.456 355.317 394.36 355.165 395.216 354.861C395.944 354.581 396.624 354.189 397.224 353.701C397.24 353.821 397.264 353.941 397.288 354.061C397.328 354.309 397.392 354.549 397.432 354.725L397.472 354.877H402.896V354.037L402.768 353.981C402.544 353.869 402.384 353.669 402.312 353.429" fill="#FFD200"/>
<path fill-rule="evenodd" clip-rule="evenodd" d="M414.713 340.957C413.761 340.933 412.809 341.125 411.937 341.509C411.321 341.805 410.769 342.221 410.313 342.733V341.293H405.057V354.885H410.401V347.621C410.337 346.813 410.537 346.013 410.961 345.325C411.401 344.837 412.049 344.581 412.705 344.645C413.265 344.573 413.817 344.781 414.193 345.197C414.569 346.093 414.713 347.077 414.601 348.045V354.877H419.969V346.101C420.097 344.677 419.641 343.261 418.713 342.173C417.593 341.261 416.153 340.829 414.713 340.957Z" fill="#FFD200"/>
<path fill-rule="evenodd" clip-rule="evenodd" d="M432.56 340.957C431.608 340.933 430.656 341.125 429.784 341.509C429.168 341.805 428.616 342.221 428.16 342.733V341.293H422.904V354.885H428.248V347.621C428.184 346.813 428.376 346.013 428.808 345.325C429.248 344.837 429.896 344.581 430.56 344.645C431.112 344.573 431.672 344.781 432.04 345.197C432.416 346.093 432.56 347.077 432.448 348.045V354.877H437.816V346.101C437.944 344.677 437.488 343.261 436.56 342.173C435.432 341.269 434 340.829 432.56 340.957Z" fill="#FFD200"/>
<path fill-rule="evenodd" clip-rule="evenodd" d="M449.377 348.781V349.989C449.393 350.581 449.121 351.141 448.649 351.493C448.089 351.909 447.401 352.117 446.705 352.085C446.273 352.109 445.849 351.973 445.513 351.709C445.225 351.469 445.065 351.109 445.081 350.733C445.065 350.445 445.177 350.165 445.385 349.973C445.729 349.717 446.129 349.541 446.553 349.461C446.737 349.421 447.065 349.349 447.601 349.261C448.209 349.149 448.801 348.989 449.377 348.781ZM455.121 353.989C454.897 353.877 454.737 353.677 454.665 353.437C454.537 353.005 454.473 352.549 454.489 352.093V347.101C454.521 346.165 454.441 345.221 454.257 344.301C454.113 343.725 453.833 343.197 453.449 342.749C452.833 342.101 452.049 341.637 451.185 341.405C450.057 341.093 448.889 340.949 447.721 340.973C445.945 340.877 444.169 341.269 442.601 342.101C441.377 342.861 440.561 344.133 440.385 345.565L440.345 345.797H445.329L445.361 345.637C445.433 345.229 445.681 344.877 446.041 344.661C446.521 344.405 447.065 344.285 447.617 344.317C448.089 344.285 448.561 344.381 448.985 344.589C449.241 344.725 449.393 344.997 449.377 345.285V345.597C449.377 345.725 449.201 346.149 446.977 346.461C445.889 346.621 444.929 346.781 444.137 346.941C442.969 347.117 441.881 347.637 441.009 348.437C440.297 349.197 439.921 350.205 439.961 351.237C439.921 352.389 440.417 353.493 441.313 354.221C442.345 354.997 443.617 355.381 444.905 355.317C445.809 355.325 446.713 355.173 447.569 354.869C448.297 354.589 448.977 354.197 449.577 353.709C449.601 353.829 449.617 353.949 449.641 354.077C449.689 354.325 449.745 354.565 449.785 354.741L449.825 354.893H455.249V354.053L455.121 353.997" fill="#FFD200"/>
<path d="M471.312 341.365H458.152V354.949H471.312V341.365Z" fill="#FFD200"/>
<path fill-rule="evenodd" clip-rule="evenodd" d="M347 300.709H477.728C481.32 300.717 484.224 303.629 484.232 307.213V360.421C484.224 364.013 481.312 366.917 477.728 366.925H347C343.408 366.917 340.504 364.005 340.496 360.421V307.221C340.496 303.629 343.408 300.725 347 300.709Z" fill="#00703C"/>
<path fill-rule="evenodd" clip-rule="evenodd" d="M477.728 364.189H347C344.92 364.189 343.24 362.501 343.232 360.421V307.221C343.232 305.141 344.92 303.461 347 303.453H477.728C479.808 303.453 481.488 305.141 481.496 307.221V330.093H383.752V312.557H373.224V330.093H364.376V312.557H353.848V354.829H364.376V338.501H373.224V354.829H383.752V338.501H481.488V360.429C481.488 362.509 479.8 364.189 477.728 364.189ZM477.728 297.973H347C341.896 297.981 337.76 302.117 337.752 307.221V360.429C337.76 365.533 341.896 369.677 347 369.677H477.728C482.832 369.669 486.976 365.533 486.976 360.429V307.221C486.968 302.117 482.832 297.981 477.728 297.973Z" fill="#FFCE07"/>
<path fill-rule="evenodd" clip-rule="evenodd" d="M397.321 322.189C396.441 323.253 394.865 323.405 393.801 322.525C393.681 322.421 393.569 322.309 393.465 322.189C392.545 320.517 392.545 318.485 393.465 316.813C393.913 316.205 394.633 315.869 395.385 315.917C396.137 315.877 396.865 316.221 397.321 316.821C397.841 317.613 398.089 318.557 398.025 319.501C398.089 320.453 397.841 321.397 397.321 322.189ZM395.393 312.141C393.289 312.021 391.217 312.725 389.609 314.093C386.809 317.157 386.801 321.853 389.593 324.925C393.017 327.525 397.761 327.525 401.185 324.917C404.001 321.861 404.001 317.157 401.185 314.101C399.577 312.717 397.497 312.021 395.393 312.141Z" fill="#FFCE07"/>
<path fill-rule="evenodd" clip-rule="evenodd" d="M421.441 312.621H421.281L421.249 312.781L419.385 321.045L417.769 312.789L417.737 312.621H412.505L412.473 312.789L410.913 321.029L409.065 312.789L409.033 312.629H403.753L403.841 312.893L408.137 326.277L408.185 326.421H413.297L413.337 326.261L415.185 318.309L416.929 326.261L416.961 326.421H422.169L422.217 326.277L426.497 312.893L426.585 312.629L421.441 312.621Z" fill="#FFCE07"/>
<path fill-rule="evenodd" clip-rule="evenodd" d="M436.632 320.229V321.445C436.648 322.037 436.392 322.605 435.936 322.981C435.408 323.397 434.752 323.605 434.088 323.581C433.68 323.597 433.272 323.461 432.96 323.197C432.68 322.941 432.528 322.573 432.552 322.197C432.536 321.909 432.64 321.629 432.848 321.421C433.168 321.157 433.552 320.981 433.96 320.901C434.136 320.861 434.448 320.789 434.96 320.693C435.52 320.597 436.088 320.445 436.632 320.229ZM441.704 324.957C441.576 324.509 441.52 324.053 441.536 323.589V318.509C441.568 317.557 441.488 316.605 441.312 315.669C441.176 315.093 440.912 314.557 440.544 314.093C439.96 313.445 439.208 312.965 438.376 312.725C437.296 312.405 436.176 312.253 435.056 312.285C433.344 312.189 431.64 312.581 430.144 313.429C428.952 314.229 428.184 315.517 428.032 316.941L428 317.173H432.776L432.808 317.005C432.872 316.597 433.112 316.237 433.456 316.021C433.912 315.765 434.432 315.645 434.952 315.669C435.4 315.637 435.848 315.733 436.256 315.941C436.504 316.093 436.648 316.357 436.632 316.645V316.965C436.632 317.093 436.472 317.533 434.352 317.853C433.312 318.013 432.4 318.181 431.632 318.333C430.496 318.517 429.456 319.045 428.632 319.853C427.944 320.637 427.584 321.653 427.632 322.693C427.584 323.845 428.056 324.957 428.92 325.717C429.896 326.501 431.12 326.893 432.368 326.829C433.24 326.837 434.104 326.685 434.92 326.373C435.616 326.093 436.256 325.701 436.824 325.205C436.84 325.325 436.864 325.437 436.88 325.565C436.92 325.813 436.976 326.053 437.024 326.237L437.064 326.397H442.272V325.549L442.144 325.509C441.92 325.405 441.768 325.197 441.704 324.957Z" fill="#FFCE07"/>
<path fill-rule="evenodd" clip-rule="evenodd" d="M451.408 312.973C450.768 313.341 450.224 313.853 449.816 314.461V312.629H444.856V326.421H449.984V321.717C449.968 320.885 450.008 320.045 450.096 319.213C450.136 318.813 450.256 318.429 450.448 318.085C450.712 317.709 451.072 317.413 451.496 317.237C452.048 317.029 452.632 316.933 453.224 316.957C453.4 316.957 453.584 316.965 453.776 316.973C453.968 316.981 454.144 317.005 454.376 317.029L454.6 317.053V312.277H454.392C453.352 312.261 452.328 312.501 451.408 312.973Z" fill="#FFCE07"/>
<path fill-rule="evenodd" clip-rule="evenodd" d="M466.649 319.381C466.713 320.309 466.481 321.237 465.985 322.021C465.537 322.605 464.825 322.933 464.089 322.877C463.345 322.925 462.617 322.597 462.161 322.005C461.657 321.221 461.417 320.301 461.481 319.373C461.433 318.493 461.681 317.629 462.185 316.909C462.625 316.341 463.321 316.013 464.041 316.037C464.777 315.989 465.497 316.309 465.961 316.885C466.465 317.621 466.705 318.493 466.649 319.381ZM471.513 307.869H466.593V313.933C466.161 313.445 465.633 313.045 465.041 312.765C464.217 312.389 463.321 312.197 462.409 312.213C460.665 312.173 459.001 312.933 457.897 314.277C456.689 315.773 456.073 317.653 456.145 319.565C456.065 321.461 456.681 323.317 457.889 324.781C459.033 326.101 460.713 326.837 462.457 326.789C463.337 326.805 464.201 326.621 464.993 326.245C465.585 325.941 466.113 325.525 466.545 325.013V326.405H471.697V307.861H471.497" fill="#FFCE07"/>
<path fill-rule="evenodd" clip-rule="evenodd" d="M397.024 348.781V349.989C397.04 350.581 396.768 351.141 396.296 351.493C395.736 351.909 395.048 352.117 394.352 352.085C393.92 352.109 393.496 351.973 393.16 351.709C392.872 351.469 392.72 351.109 392.736 350.733C392.72 350.445 392.832 350.165 393.04 349.973C393.384 349.717 393.784 349.541 394.208 349.461C394.392 349.421 394.72 349.349 395.256 349.261C395.864 349.149 396.456 348.989 397.024 348.781ZM402.32 353.429C402.192 352.997 402.128 352.541 402.144 352.085V347.093C402.176 346.157 402.096 345.213 401.912 344.293C401.768 343.717 401.488 343.189 401.104 342.741C400.488 342.093 399.704 341.629 398.84 341.397C397.712 341.085 396.544 340.941 395.376 340.965C393.6 340.869 391.824 341.261 390.248 342.093C389.024 342.853 388.208 344.125 388.032 345.557L387.992 345.789H392.968L393 345.629C393.072 345.221 393.32 344.869 393.68 344.653C394.168 344.397 394.712 344.277 395.256 344.309C395.728 344.277 396.2 344.373 396.624 344.581C396.88 344.717 397.032 344.989 397.024 345.277V345.589C397.024 345.717 396.848 346.141 394.624 346.453C393.536 346.613 392.576 346.773 391.784 346.933C390.616 347.109 389.528 347.629 388.656 348.429C387.944 349.189 387.568 350.197 387.608 351.229C387.568 352.381 388.064 353.485 388.96 354.213C389.992 354.989 391.264 355.373 392.552 355.309C393.456 355.317 394.36 355.165 395.216 354.861C395.944 354.581 396.624 354.189 397.224 353.701C397.24 353.821 397.264 353.941 397.288 354.061C397.328 354.309 397.392 354.549 397.432 354.725L397.472 354.877H402.896V354.037L402.768 353.981C402.544 353.869 402.384 353.669 402.312 353.429" fill="#FFCE07"/>
<path fill-rule="evenodd" clip-rule="evenodd" d="M414.713 340.957C413.761 340.933 412.809 341.125 411.937 341.509C411.321 341.805 410.769 342.221 410.313 342.733V341.293H405.057V354.885H410.401V347.621C410.337 346.813 410.537 346.013 410.961 345.325C411.401 344.837 412.049 344.581 412.705 344.645C413.265 344.573 413.817 344.781 414.193 345.197C414.569 346.093 414.713 347.077 414.601 348.045V354.877H419.969V346.101C420.097 344.677 419.641 343.261 418.713 342.173C417.593 341.261 416.153 340.829 414.713 340.957Z" fill="#FFCE07"/>
<path fill-rule="evenodd" clip-rule="evenodd" d="M432.56 340.957C431.608 340.933 430.656 341.125 429.784 341.509C429.168 341.805 428.616 342.221 428.16 342.733V341.293H422.904V354.885H428.248V347.621C428.184 346.813 428.376 346.013 428.808 345.325C429.248 344.837 429.896 344.581 430.56 344.645C431.112 344.573 431.672 344.781 432.04 345.197C432.416 346.093 432.56 347.077 432.448 348.045V354.877H437.816V346.101C437.944 344.677 437.488 343.261 436.56 342.173C435.432 341.269 434 340.829 432.56 340.957Z" fill="#FFCE07"/>
<path fill-rule="evenodd" clip-rule="evenodd" d="M449.377 348.781V349.989C449.393 350.581 449.121 351.141 448.649 351.493C448.089 351.909 447.401 352.117 446.705 352.085C446.273 352.109 445.849 351.973 445.513 351.709C445.225 351.469 445.065 351.109 445.081 350.733C445.065 350.445 445.177 350.165 445.385 349.973C445.729 349.717 446.129 349.541 446.553 349.461C446.737 349.421 447.065 349.349 447.601 349.261C448.209 349.149 448.801 348.989 449.377 348.781ZM455.121 353.989C454.897 353.877 454.737 353.677 454.665 353.437C454.537 353.005 454.473 352.549 454.489 352.093V347.101C454.521 346.165 454.441 345.221 454.257 344.301C454.113 343.725 453.833 343.197 453.449 342.749C452.833 342.101 452.049 341.637 451.185 341.405C450.057 341.093 448.889 340.949 447.721 340.973C445.945 340.877 444.169 341.269 442.601 342.101C441.377 342.861 440.561 344.133 440.385 345.565L440.345 345.797H445.329L445.361 345.637C445.433 345.229 445.681 344.877 446.041 344.661C446.521 344.405 447.065 344.285 447.617 344.317C448.089 344.285 448.561 344.381 448.985 344.589C449.241 344.725 449.393 344.997 449.377 345.285V345.597C449.377 345.725 449.201 346.149 446.977 346.461C445.889 346.621 444.929 346.781 444.137 346.941C442.969 347.117 441.881 347.637 441.009 348.437C440.297 349.197 439.921 350.205 439.961 351.237C439.921 352.389 440.417 353.493 441.313 354.221C442.345 354.997 443.617 355.381 444.905 355.317C445.809 355.325 446.713 355.173 447.569 354.869C448.297 354.589 448.977 354.197 449.577 353.709C449.601 353.829 449.617 353.949 449.641 354.077C449.689 354.325 449.745 354.565 449.785 354.741L449.825 354.893H455.249V354.053L455.121 353.997" fill="#FFCE07"/>
<path d="M471.312 341.365H458.152V354.949H471.312V341.365Z" fill="#FFCE07"/>
<path d="M337.937 376.567H343.505C344.425 376.527 345.329 376.823 346.041 377.415C346.681 377.975 347.041 378.791 347.009 379.639C347.081 380.551 346.673 381.431 345.937 381.967C345.737 382.103 345.521 382.215 345.289 382.295C345.417 382.343 345.537 382.407 345.657 382.471C346.305 382.879 346.681 383.599 346.641 384.367L346.697 386.175C346.689 386.431 346.729 386.695 346.809 386.943C346.889 387.103 347.017 387.231 347.185 387.303V387.599H344.641C344.553 387.359 344.497 387.111 344.481 386.855C344.433 386.447 344.409 386.039 344.409 385.639L344.393 384.615C344.425 384.215 344.257 383.823 343.953 383.559C343.529 383.311 343.033 383.199 342.545 383.247H340.249V387.607H337.945L337.937 376.567ZM340.241 381.391H342.921C343.393 381.423 343.865 381.295 344.257 381.031C344.569 380.751 344.737 380.351 344.705 379.935C344.737 379.527 344.577 379.127 344.281 378.839C343.913 378.575 343.465 378.439 343.009 378.479H340.249L340.241 381.391Z" fill="#00703C"/>
<path d="M351.8 387.815C350.72 387.879 349.664 387.463 348.928 386.671C348.2 385.743 347.84 384.575 347.92 383.399C347.856 382.279 348.224 381.183 348.952 380.327C349.696 379.567 350.736 379.159 351.808 379.215C352.888 379.151 353.944 379.559 354.688 380.343C355.416 381.255 355.776 382.399 355.696 383.559C355.704 383.719 355.696 383.887 355.656 384.047H350.096C350.104 384.559 350.248 385.063 350.52 385.495C350.896 385.927 351.456 386.151 352.024 386.095C352.344 386.095 352.664 385.999 352.928 385.815C353.176 385.671 353.36 385.431 353.424 385.143H355.616C355.456 385.935 354.992 386.639 354.328 387.095C353.576 387.599 352.688 387.847 351.8 387.815ZM353.44 382.679C353.416 382.271 353.28 381.871 353.048 381.535C352.736 381.151 352.256 380.951 351.76 380.983C351.256 380.959 350.776 381.199 350.488 381.623C350.288 381.943 350.152 382.303 350.096 382.679H353.44Z" fill="#00703C"/>
<path d="M359.384 387.815C358.712 387.847 358.056 387.615 357.56 387.167C357.096 386.727 356.84 386.103 356.872 385.463C356.84 384.807 357.064 384.167 357.496 383.671C357.984 383.183 358.624 382.887 359.312 382.823L360.728 382.631C361.048 382.591 361.36 382.511 361.648 382.375C361.76 382.319 361.848 382.223 361.888 382.103C361.944 381.975 361.968 381.839 361.952 381.703C361.928 381.479 361.792 381.279 361.6 381.159C361.272 380.983 360.912 380.903 360.544 380.927C360.2 380.903 359.856 381.015 359.584 381.231C359.344 381.447 359.216 381.759 359.216 382.079H357.152C357.136 381.255 357.496 380.463 358.128 379.935C358.912 379.407 359.848 379.159 360.792 379.223C361.64 379.175 362.488 379.399 363.2 379.863C363.776 380.263 364.104 380.919 364.08 381.615V386.183C364.064 386.447 364.096 386.703 364.168 386.951C364.24 387.111 364.368 387.231 364.528 387.303V387.607H362.2V387.599C362.104 387.279 362.048 386.959 362.016 386.631L362.008 386.615C361.368 387.399 360.4 387.839 359.384 387.815ZM361.976 384.583V383.647C361.664 383.807 361.336 383.919 360.992 383.983L360.2 384.135C359.88 384.175 359.584 384.311 359.344 384.519C359.152 384.703 359.048 384.959 359.048 385.223C359.032 385.503 359.128 385.775 359.312 385.991C359.504 386.183 359.776 386.287 360.048 386.271C360.68 386.295 361.288 386.031 361.696 385.543C361.792 385.415 361.856 385.271 361.896 385.119C361.944 384.951 361.976 384.767 361.976 384.583Z" fill="#00703C"/>
<path d="M366.032 376.567H368.184V387.607H366.032V376.567Z" fill="#00703C"/>
<path d="M374.696 387.607V376.567H382.824V378.527H377.008V380.871H382.408V382.775H377.008V385.647H383.08V387.607H374.696Z" fill="#00703C"/>
<path d="M389.088 381.879C389.096 381.575 388.944 381.295 388.696 381.119C388.392 380.919 388.024 380.815 387.656 380.839C387.32 380.823 386.984 380.895 386.68 381.055C386.464 381.175 386.328 381.399 386.328 381.655C386.328 381.839 386.464 381.991 386.728 382.119C387.176 382.303 387.64 382.439 388.12 382.535C389.056 382.679 389.96 383.007 390.768 383.503C391.24 383.919 391.488 384.527 391.44 385.151C391.456 385.919 391.096 386.639 390.464 387.087C389.712 387.607 388.808 387.863 387.896 387.815C386.88 387.879 385.864 387.623 384.992 387.095C384.312 386.607 383.904 385.831 383.904 384.991H386.096C386.104 385.351 386.288 385.679 386.592 385.871C386.984 386.103 387.432 386.215 387.888 386.191C388.24 386.207 388.584 386.135 388.896 385.967C389.12 385.847 389.264 385.607 389.256 385.351C389.24 385.143 389.104 384.959 388.904 384.879C388.504 384.703 388.088 384.575 387.664 384.495C386.688 384.335 385.752 383.999 384.896 383.511C384.416 383.135 384.152 382.535 384.2 381.927C384.176 381.167 384.512 380.439 385.104 379.967C385.784 379.447 386.632 379.175 387.488 379.223C388.44 379.175 389.376 379.431 390.176 379.951C390.824 380.375 391.208 381.111 391.2 381.887L389.088 381.879Z" fill="#00703C"/>
<path d="M396.616 387.647C396.256 387.679 395.816 387.695 395.288 387.695C394.712 387.743 394.136 387.599 393.648 387.287C393.288 386.943 393.104 386.447 393.152 385.943V380.943H392.024V379.431H393.152V377.231H395.304V379.431H396.616V380.943H395.304V385.583C395.28 385.727 395.352 385.879 395.472 385.959C395.696 386.039 395.936 386.071 396.176 386.047H396.616V387.647Z" fill="#00703C"/>
<path d="M400.096 387.815C399.424 387.847 398.768 387.615 398.272 387.167C397.808 386.727 397.552 386.103 397.584 385.463C397.552 384.807 397.776 384.167 398.208 383.671C398.696 383.183 399.336 382.887 400.024 382.823L401.44 382.631C401.76 382.591 402.072 382.511 402.36 382.375C402.472 382.319 402.56 382.223 402.6 382.103C402.656 381.975 402.68 381.839 402.664 381.703C402.64 381.479 402.504 381.279 402.312 381.159C401.984 380.983 401.624 380.903 401.256 380.927C400.912 380.903 400.568 381.015 400.296 381.231C400.056 381.447 399.928 381.759 399.928 382.079H397.864C397.848 381.255 398.208 380.463 398.84 379.935C399.624 379.407 400.56 379.159 401.504 379.223C402.352 379.175 403.2 379.399 403.912 379.863C404.488 380.263 404.816 380.919 404.792 381.615V386.183C404.776 386.447 404.808 386.703 404.88 386.951C404.952 387.111 405.08 387.231 405.24 387.303V387.607H402.912V387.599C402.816 387.279 402.76 386.959 402.728 386.631L402.72 386.615C402.088 387.399 401.112 387.839 400.096 387.815ZM402.688 384.583V383.647C402.376 383.807 402.048 383.919 401.704 383.983L400.912 384.135C400.592 384.175 400.296 384.311 400.056 384.519C399.864 384.703 399.76 384.959 399.76 385.223C399.744 385.503 399.84 385.775 400.024 385.991C400.216 386.183 400.488 386.287 400.76 386.271C401.392 386.295 402 386.031 402.408 385.543C402.504 385.415 402.568 385.271 402.608 385.119C402.664 384.951 402.688 384.767 402.688 384.583Z" fill="#00703C"/>
<path d="M410.448 387.647C410.088 387.679 409.648 387.695 409.12 387.695C408.544 387.743 407.968 387.599 407.48 387.287C407.12 386.943 406.936 386.447 406.984 385.943V380.943H405.856V379.431H406.984V377.231H409.136V379.431H410.448V380.943H409.136V385.583C409.112 385.727 409.184 385.879 409.304 385.959C409.528 386.039 409.768 386.071 410.008 386.047H410.448V387.647Z" fill="#00703C"/>
<path d="M415.361 387.815C414.281 387.879 413.225 387.463 412.489 386.671C411.761 385.743 411.401 384.575 411.481 383.399C411.417 382.279 411.785 381.183 412.505 380.327C413.249 379.567 414.289 379.159 415.361 379.215C416.441 379.151 417.497 379.559 418.241 380.343C418.969 381.255 419.329 382.399 419.249 383.559C419.257 383.719 419.249 383.887 419.209 384.047H413.641C413.649 384.559 413.793 385.063 414.065 385.495C414.441 385.927 415.001 386.151 415.569 386.095C415.889 386.095 416.209 385.999 416.473 385.815C416.721 385.671 416.905 385.431 416.969 385.143H419.161C419.001 385.935 418.537 386.639 417.873 387.095C417.129 387.599 416.249 387.847 415.361 387.815ZM417.001 382.679C416.977 382.271 416.841 381.871 416.609 381.535C416.297 381.151 415.817 380.951 415.321 380.983C414.817 380.959 414.337 381.199 414.049 381.623C413.849 381.943 413.713 382.303 413.657 382.679H417.001Z" fill="#00703C"/>
<path d="M431.097 379.879C431.073 379.375 430.817 378.919 430.409 378.631C429.921 378.303 429.345 378.143 428.761 378.167C428.273 378.135 427.785 378.279 427.385 378.551C427.057 378.807 426.873 379.207 426.889 379.631C426.889 379.967 427.097 380.271 427.409 380.399C428.105 380.687 428.833 380.903 429.577 381.039C430.729 381.215 431.825 381.639 432.801 382.287C433.393 382.879 433.689 383.703 433.617 384.535C433.649 385.511 433.185 386.439 432.393 386.999C431.417 387.655 430.257 387.975 429.081 387.911C427.913 387.983 426.753 387.639 425.809 386.943C425.001 386.255 424.545 385.247 424.545 384.191H426.769C426.761 384.711 427.001 385.215 427.409 385.543C427.897 385.887 428.489 386.055 429.081 386.015C429.673 386.047 430.265 385.927 430.801 385.655C431.177 385.471 431.417 385.087 431.417 384.671C431.441 384.311 431.273 383.959 430.969 383.751C430.385 383.455 429.753 383.247 429.105 383.143C427.865 382.951 426.673 382.519 425.593 381.871C424.977 381.351 424.649 380.559 424.713 379.759C424.673 378.775 425.105 377.823 425.873 377.207C426.777 376.535 427.889 376.207 429.017 376.263C430.105 376.215 431.177 376.559 432.033 377.239C432.817 377.895 433.281 378.855 433.329 379.871L431.097 379.879Z" fill="#00703C"/>
<path d="M438.441 387.815C437.361 387.879 436.305 387.463 435.569 386.671C434.841 385.743 434.481 384.575 434.561 383.399C434.497 382.279 434.865 381.183 435.585 380.327C436.329 379.567 437.369 379.159 438.441 379.215C439.521 379.143 440.577 379.559 441.321 380.343C442.049 381.255 442.409 382.399 442.329 383.559C442.337 383.719 442.329 383.887 442.289 384.047H436.729C436.737 384.559 436.881 385.063 437.153 385.495C437.529 385.927 438.089 386.151 438.657 386.095C438.977 386.095 439.297 385.999 439.561 385.815C439.809 385.671 439.993 385.431 440.057 385.143H442.249C442.089 385.935 441.625 386.639 440.961 387.095C440.217 387.599 439.337 387.847 438.441 387.815ZM440.081 382.679C440.057 382.271 439.921 381.871 439.689 381.535C439.377 381.151 438.897 380.951 438.401 380.983C437.897 380.959 437.417 381.199 437.129 381.623C436.929 381.943 436.793 382.303 436.737 382.679H440.081Z" fill="#00703C"/>
<path d="M443.585 379.431H445.633V380.895C445.705 380.735 445.793 380.575 445.889 380.431C446.273 379.695 447.025 379.231 447.849 379.215L448.337 379.223V381.423C448.121 381.399 447.905 381.391 447.689 381.391C447.153 381.351 446.625 381.527 446.225 381.879C445.873 382.287 445.697 382.823 445.745 383.359V387.607H443.593L443.585 379.431Z" fill="#00703C"/>
<path d="M449.017 379.439H451.393L453.129 385.535H453.137L454.889 379.439H457.153L454.201 387.607H451.953L449.017 379.439Z" fill="#00703C"/>
<path d="M458.272 376.479H460.464V378.479H458.272V376.479ZM458.296 379.431H460.448V387.599H458.296V379.431Z" fill="#00703C"/>
<path d="M469.392 384.575C469.336 385.487 468.928 386.335 468.264 386.959C466.64 388.183 464.376 388.079 462.88 386.711C462.152 385.831 461.792 384.703 461.872 383.567C461.808 382.415 462.184 381.287 462.92 380.391C463.64 379.599 464.68 379.167 465.744 379.215C466.68 379.175 467.6 379.487 468.328 380.087C469 380.663 469.384 381.495 469.4 382.375H467.208C467.2 381.999 467.048 381.647 466.776 381.391C466.496 381.135 466.12 380.999 465.744 381.015C465.248 380.991 464.776 381.239 464.512 381.663C464.192 382.239 464.048 382.903 464.088 383.559C464.048 384.207 464.192 384.847 464.512 385.407C464.784 385.823 465.248 386.063 465.744 386.039C466.112 386.047 466.472 385.895 466.728 385.631C467.008 385.343 467.176 384.967 467.2 384.567L469.392 384.575Z" fill="#00703C"/>
<path d="M474.433 387.815C473.353 387.879 472.297 387.463 471.561 386.671C470.833 385.743 470.473 384.575 470.553 383.399C470.489 382.279 470.857 381.183 471.577 380.327C472.321 379.567 473.361 379.159 474.433 379.215C475.513 379.151 476.569 379.559 477.313 380.343C478.041 381.255 478.401 382.399 478.321 383.559C478.329 383.719 478.321 383.887 478.281 384.047H472.713C472.721 384.559 472.865 385.063 473.137 385.495C473.513 385.927 474.073 386.151 474.641 386.095C474.961 386.095 475.281 385.999 475.545 385.815C475.793 385.671 475.977 385.431 476.041 385.143H478.233C478.073 385.935 477.609 386.639 476.945 387.095C476.201 387.599 475.321 387.847 474.433 387.815ZM476.073 382.679C476.049 382.271 475.913 381.871 475.681 381.535C475.369 381.151 474.889 380.951 474.393 380.983C473.889 380.959 473.409 381.199 473.121 381.623C472.921 381.943 472.785 382.303 472.729 382.679H476.073Z" fill="#00703C"/>
<path d="M484.369 381.879C484.377 381.575 484.225 381.295 483.977 381.119C483.673 380.919 483.305 380.815 482.937 380.839C482.601 380.823 482.265 380.895 481.961 381.055C481.745 381.175 481.609 381.399 481.609 381.655C481.609 381.839 481.745 381.991 482.009 382.119C482.457 382.303 482.921 382.439 483.401 382.535C484.337 382.679 485.241 383.007 486.049 383.503C486.521 383.919 486.769 384.527 486.721 385.151C486.737 385.919 486.377 386.639 485.745 387.087C484.993 387.607 484.089 387.863 483.177 387.815C482.161 387.879 481.145 387.623 480.273 387.095C479.593 386.607 479.185 385.831 479.185 384.991H481.377C481.385 385.351 481.569 385.687 481.873 385.871C482.265 386.103 482.713 386.215 483.169 386.191C483.521 386.207 483.873 386.135 484.177 385.967C484.401 385.847 484.545 385.607 484.537 385.351C484.521 385.143 484.385 384.959 484.185 384.879C483.785 384.703 483.369 384.575 482.945 384.495C481.969 384.335 481.033 383.999 480.177 383.511C479.697 383.135 479.433 382.535 479.481 381.927C479.457 381.167 479.793 380.439 480.385 379.967C481.065 379.447 481.913 379.175 482.769 379.223C483.721 379.175 484.657 379.431 485.457 379.951C486.105 380.375 486.489 381.111 486.473 381.887L484.369 381.879Z" fill="#00703C"/>
</g>
<defs>
<clipPath id="clip0_590_985">
<rect width="492.384" height="400" fill="white" transform="translate(0.307617)"/>
</clipPath>
</defs>
</svg>
