<svg width="701" height="94" viewBox="0 0 701 94" fill="none" xmlns="http://www.w3.org/2000/svg">
<g clip-path="url(#clip0_572_1808)">
<path d="M388.339 0H303.095V93.2167H307.586V4.45278H383.848V88.2778H349.236V48.2806H366.406V53.5111H366.386V80.7722H372.084V14.7972H366.386V29.5945H366.406V47.3083H349.236V14.7972H343.461V47.3083H325.086V14.7972H319.409V80.7722H325.086V48.2806H343.461V93.275L385.986 93.2167H388.339V0Z" fill="#BCBEC0"/>
<path d="M34.0222 45.1694C34.2167 45.1694 34.4111 45.1694 34.4111 44.8583V43.7111C34.4111 35.3306 34.4111 33.8722 34.275 32.1611C34.1389 30.45 33.8861 29.5556 31.8056 29.1861C31.3583 29.1278 30.7167 29.0694 30.2111 29.0694C29.7639 29.0694 29.4528 28.875 29.4528 28.6222C29.4528 28.2333 29.7639 28.175 30.3472 28.175C33.0111 28.175 36.7639 28.3694 37.0167 28.3694C37.2694 28.3694 40.8278 28.175 42.7333 28.175C43.375 28.175 43.7444 28.2333 43.7444 28.6222C43.7444 28.8167 43.55 29.0694 43.0444 29.0694C42.6556 29.0694 42.15 29.1278 41.7806 29.1861C40.0694 29.4389 39.8167 30.45 39.6806 32.2389C39.6222 33.95 39.6222 35.4083 39.6222 43.7889V53.3167C39.6222 58.5278 39.6222 62.65 39.875 64.925C40.0694 66.4417 40.3806 67.725 42.0333 67.9C42.8694 68.0361 43.6861 68.0945 44.25 68.0945C44.7556 68.0945 45.0861 68.2889 45.0861 68.5417C45.0861 68.8528 44.775 68.9889 44.1333 68.9889C40.9639 68.9889 37.2889 68.7945 36.9583 68.7945C36.7056 68.7945 33.0306 68.9889 31.3 68.9889C30.6583 68.9889 30.3472 68.8528 30.3472 68.4833C30.3472 68.2889 30.5417 68.0945 31.0472 68.0945C31.5528 68.0945 32 68.0945 32.5056 67.9583C33.575 67.7639 33.9056 66.3639 34.1 64.9056C34.4111 62.6111 34.4111 58.625 34.4111 53.4722V47.8139C34.4111 47.5611 34.2167 47.425 34.0222 47.425H10.9806C10.7861 47.425 10.6694 47.4833 10.6694 47.8139V53.4722C10.6694 58.6056 10.6694 62.7472 10.9806 65.0222C11.175 66.4222 11.4861 67.6861 13.1389 67.8806C13.9556 68.0167 14.9083 68.075 15.4139 68.075C15.8611 68.075 16.1722 68.2695 16.1722 68.5222C16.1722 68.775 15.9194 68.9695 15.3361 68.9695C12.0889 68.9695 8.35556 68.775 8.04445 68.775C7.85 68.775 3.98056 68.9695 2.32778 68.9695C1.68611 68.9695 1.31667 68.8333 1.31667 68.5222C1.31667 68.3278 1.45278 68.075 2.01667 68.075C2.52222 68.075 3.02778 68.0167 3.53333 67.8806C4.68056 67.6278 4.93333 66.4222 5.12778 65.0222C5.49722 62.7278 5.43889 58.4889 5.43889 53.2778V43.8861C5.43889 35.5056 5.43889 33.8528 5.32222 32.1417C5.18611 30.4889 4.75833 29.2833 2.91111 29.0889C2.34722 29.0306 1.70556 28.9528 1.2 28.9528C0.752778 28.9528 0.5 28.7583 0.5 28.5639C0.5 28.175 0.811111 28.1167 1.45278 28.1167C4.175 28.1167 7.22778 28.3111 8.06389 28.3111C8.31667 28.3111 11.9917 28.1167 13.7806 28.1167C14.4222 28.1167 14.7333 28.2528 14.7333 28.5639C14.7333 28.8167 14.4806 28.9528 14.0917 28.9528C13.7028 28.9528 13.5278 28.9528 12.8278 29.0889C11.2333 29.3417 10.8639 30.4306 10.7278 32.2C10.6694 33.9111 10.6694 35.3111 10.6694 43.6917V44.8389C10.6694 45.15 10.8639 45.15 11.0389 45.15H34.0222V45.1694Z" fill="#095533"/>
<path d="M69.8972 53.4917C69.5861 53.4917 69.3917 53.6861 69.2556 53.9972L66.4556 61.9306C65.8139 63.7 65.3861 65.4306 65.3861 66.4417C65.3861 67.5889 66.0861 68.0945 67.4861 68.0945H67.9333C68.4972 68.0945 68.6917 68.2889 68.6917 68.5417C68.6917 68.8528 68.1861 68.9889 67.7389 68.9889C66.3389 68.9889 63.4222 68.7945 62.7222 68.7945C62.0806 68.7945 59.3 68.9889 56.6361 68.9889C55.9361 68.9889 55.625 68.8528 55.625 68.5417C55.625 68.2889 55.8778 68.0945 56.3833 68.0945C56.6944 68.0945 57.2778 68.0945 57.6472 68.0361C60.3694 67.7833 61.4583 65.6833 62.5278 63.0195L75.225 29.575C75.925 27.7278 76.1194 27.4167 76.5667 27.4167C76.8778 27.4167 77.1306 27.6694 77.8306 29.4389C78.725 31.5389 87.3583 53.6861 90.7222 61.6195C92.8222 66.6361 94.65 67.4528 95.5444 67.7833C96.3611 68.0945 97.2556 68.0945 97.7028 68.0945C98.15 68.0945 98.4611 68.2306 98.4611 68.5417C98.4611 68.8528 98.2083 68.9889 97.5083 68.9889C96.8667 68.9889 92.1222 68.9889 87.8639 68.8528C86.6583 68.7945 86.2694 68.7167 86.2694 68.4056C86.2694 68.2111 86.4639 68.0167 86.7167 67.9583C86.9694 67.8222 87.3583 67.5111 86.9694 66.5583L81.9528 53.8028C81.8167 53.6083 81.7 53.4917 81.4472 53.4917H69.8972ZM80.6889 51.275C80.9417 51.275 80.9417 51.0806 80.8833 50.8861L75.8667 36.8667C75.5556 35.9722 75.4778 35.9722 75.1667 36.8667L70.4028 50.8861C70.2667 51.1389 70.4028 51.275 70.5389 51.275H80.6889Z" fill="#095533"/>
<path d="M112.422 30.0028C112.422 28.0389 112.616 27.3972 113.122 27.3972C113.569 27.3972 114.639 28.6611 115.086 29.1083C115.65 29.75 124.478 38.7528 133.364 47.8333C138.322 52.6556 144.661 59.1889 146.314 60.725L145.614 34.3195C145.555 30.8972 145.166 29.75 143.455 29.3028C142.386 29.1083 141.414 29.05 140.986 29.05C140.344 29.05 140.228 28.7972 140.228 28.5445C140.228 28.2333 140.733 28.1556 141.375 28.1556C144.097 28.1556 146.761 28.35 147.344 28.35C147.986 28.35 149.95 28.1556 152.419 28.1556C153.119 28.1556 153.314 28.2139 153.314 28.5445C153.314 28.7972 153.119 28.9917 152.75 29.05C152.38 29.1083 151.855 29.1083 151.155 29.2445C149.697 29.5556 149.25 30.1972 149.25 34.0083L149.114 65.8778C149.114 69.0472 148.978 69.3778 148.55 69.3778C148.122 69.3778 147.461 68.9306 144.35 66.0139C144.097 65.8778 135.269 57.1278 129.747 51.7222C123.136 44.8583 116.797 38.2667 115.203 36.6139L116.039 61.425C116.155 65.8 116.544 67.4528 118.139 67.8417C119.15 68.0945 120.239 68.0945 120.744 68.0945C121.25 68.0945 121.503 68.2889 121.503 68.5417C121.503 68.8528 121.191 68.9889 120.491 68.9889C117.069 68.9889 114.775 68.7945 114.328 68.7945C113.88 68.7945 111.528 68.9889 108.805 68.9889C108.241 68.9889 107.853 68.9306 107.853 68.5417C107.853 68.2889 108.105 68.0945 108.747 68.0945C109.194 68.0945 109.894 68.0945 110.711 67.8417C112.111 67.3945 112.422 65.6833 112.422 61.0556C112.422 30.7806 112.48 40.5611 112.422 30.0222V30.0028Z" fill="#095533"/>
<path d="M173.886 30.0028C173.886 28.0389 174.08 27.3972 174.586 27.3972C175.033 27.3972 176.103 28.6611 176.55 29.1083C177.114 29.75 185.941 38.7528 194.828 47.8333C199.786 52.6556 206.125 59.1889 207.778 60.725L207.078 34.3195C207.019 30.8972 206.63 29.75 204.919 29.3028C203.85 29.1083 202.897 29.05 202.45 29.05C201.808 29.05 201.691 28.7972 201.691 28.5445C201.691 28.2333 202.197 28.1556 202.839 28.1556C205.561 28.1556 208.225 28.35 208.808 28.35C209.45 28.35 211.414 28.1556 213.883 28.1556C214.583 28.1556 214.778 28.2139 214.778 28.5445C214.778 28.7972 214.583 28.9917 214.214 29.05C213.844 29.1083 213.319 29.1083 212.619 29.2445C211.161 29.5556 210.714 30.1972 210.714 34.0083L210.578 65.8778C210.578 69.0472 210.441 69.3778 210.014 69.3778C209.586 69.3778 208.944 68.9306 205.833 66.0139C205.58 65.8778 196.753 57.1278 191.23 51.7222C184.639 44.8583 178.28 38.2667 176.705 36.6139L177.522 61.425C177.639 65.8 178.028 67.4528 179.622 67.8417C180.633 68.0945 181.722 68.0945 182.228 68.0945C182.733 68.0945 182.986 68.2889 182.986 68.5417C182.986 68.8528 182.675 68.9889 181.975 68.9889C178.553 68.9889 176.258 68.7945 175.811 68.7945C175.364 68.7945 173.011 68.9889 170.289 68.9889C169.725 68.9889 169.336 68.9306 169.336 68.5417C169.336 68.2889 169.589 68.0945 170.23 68.0945C170.678 68.0945 171.378 68.0945 172.194 67.8417C173.594 67.3945 173.905 65.6833 173.905 61.0556C173.905 30.7806 173.964 40.5611 173.905 30.0222L173.886 30.0028Z" fill="#095533"/>
<path d="M239.589 53.4917C239.278 53.4917 239.083 53.6861 238.947 53.9972L236.147 61.9306C235.505 63.7 235.078 65.4306 235.078 66.4417C235.078 67.5889 235.778 68.0945 237.178 68.0945H237.625C238.189 68.0945 238.383 68.2889 238.383 68.5417C238.383 68.8528 237.878 68.9889 237.43 68.9889C236.03 68.9889 233.114 68.7945 232.414 68.7945C231.772 68.7945 228.991 68.9889 226.328 68.9889C225.628 68.9889 225.316 68.8528 225.316 68.5417C225.316 68.2889 225.569 68.0945 226.075 68.0945C226.386 68.0945 226.969 68.0945 227.339 68.0361C230.061 67.7833 231.15 65.6833 232.219 63.0195L244.916 29.575C245.616 27.7278 245.811 27.4167 246.258 27.4167C246.569 27.4167 246.822 27.6694 247.522 29.4389C248.416 31.5389 257.05 53.6861 260.414 61.6195C262.514 66.6361 264.341 67.4528 265.236 67.7833C266.052 68.0945 266.947 68.0945 267.394 68.0945C267.841 68.0945 268.152 68.2306 268.152 68.5417C268.152 68.8528 267.9 68.9889 267.2 68.9889C266.558 68.9889 261.814 68.9889 257.555 68.8528C256.35 68.7945 255.961 68.7167 255.961 68.4056C255.961 68.2111 256.155 68.0167 256.408 67.9583C256.661 67.8222 257.05 67.5111 256.661 66.5583L251.644 53.8028C251.508 53.6083 251.391 53.4917 251.139 53.4917H239.589ZM250.38 51.275C250.633 51.275 250.633 51.0806 250.575 50.8861L245.558 36.8667C245.247 35.9722 245.169 35.9722 244.858 36.8667L240.094 50.8861C239.958 51.1389 240.094 51.275 240.23 51.275H250.38Z" fill="#095533"/>
<path d="M432.847 53.4333C432.847 60.725 433.1 64.4195 434.169 65.4306C435.181 66.325 436.444 66.6945 440.839 66.6945C443.639 66.6945 446.167 66.6945 447.567 64.925C448.208 63.9722 448.656 62.7083 448.772 61.7556C448.831 61.25 448.967 60.9972 449.278 60.9972C449.531 60.9972 449.647 61.1917 449.647 61.8139C449.647 62.4361 449.278 66.0722 448.889 67.5306C448.5 68.7945 448.578 69.125 445.525 69.125C441.208 69.125 436.444 68.8139 430.106 68.8139C428.006 68.8139 426.742 69.0083 424.525 69.0083C423.883 69.0083 423.514 68.8722 423.514 68.5028C423.514 68.3083 423.708 68.1139 424.214 68.1139C424.719 68.1139 425.225 68.1139 425.731 67.9778C426.819 67.7833 427.189 66.5195 427.383 65.0028C427.753 62.5917 427.636 58.2167 427.636 53.3167V43.7889C427.636 35.4083 427.636 34.0083 427.519 32.2972C427.383 30.5278 427.131 29.3806 424.972 29.1278C424.603 29.0694 423.903 29.0694 423.378 29.0694C422.931 29.0694 422.678 28.875 422.678 28.6222C422.678 28.3111 422.989 28.175 423.631 28.175C426.294 28.175 430.106 28.3694 430.242 28.3694C431.136 28.3694 435.006 28.175 436.775 28.175C437.417 28.175 437.611 28.3694 437.611 28.6222C437.611 28.875 437.3 29.0694 436.911 29.0694C436.464 29.0694 435.842 29.1278 435.2 29.1861C433.431 29.4389 433.042 30.45 432.925 32.2972C432.789 34.0083 432.867 35.4083 432.867 43.7889V53.4333H432.847Z" fill="#095533"/>
<path d="M470.55 51.3333C470.55 59.0722 472.008 62.3778 474.419 64.5361C477.141 66.9472 480.194 67.4528 482.8 67.4528C486.105 67.4528 489.08 66.5583 491.491 63.7778C494.039 60.8611 494.602 56.0389 494.602 50.5167V43.7889C494.602 35.4667 494.602 34.0083 494.466 32.2972C494.33 30.45 494.155 29.4972 492.114 29.1861C491.666 29.1278 490.908 29.0694 490.344 29.0694C489.975 29.0694 489.702 28.875 489.702 28.6806C489.702 28.2917 490.014 28.175 490.597 28.175C493.319 28.175 496.508 28.3694 496.761 28.3694C497.072 28.3694 499.814 28.175 501.583 28.175C502.225 28.175 502.477 28.3111 502.477 28.6222C502.477 28.875 502.225 29.0694 501.836 29.0694C501.447 29.0694 501.33 29.0694 500.689 29.1278C498.919 29.3222 498.647 30.4694 498.53 32.2972C498.472 34.0083 498.472 35.4667 498.472 43.7889V49.4472C498.472 55.1639 497.83 62.0083 493.339 65.8778C489.216 69.3778 485.152 69.6889 481.73 69.6889C479.961 69.6889 473.991 69.6889 469.85 65.8778C467.127 63.3306 465.144 59.5389 465.144 51.6639V43.7889C465.144 35.4083 465.144 33.95 464.95 32.2389C464.891 30.5278 464.561 29.4389 462.597 29.1861C462.208 29.1278 461.45 29.0694 460.944 29.0694C460.497 29.0694 460.244 28.875 460.244 28.6806C460.244 28.2917 460.497 28.175 461.197 28.175C463.919 28.175 467.361 28.3694 467.808 28.3694C468.314 28.3694 472.066 28.175 473.777 28.175C474.477 28.175 474.672 28.3111 474.672 28.6222C474.672 28.9333 474.225 29.0694 473.914 29.0694C473.525 29.0694 473.019 29.1278 472.514 29.1861C470.997 29.3806 470.744 30.45 470.608 32.2389C470.55 33.95 470.55 35.4083 470.55 43.7889V51.3528V51.3333Z" fill="#095533"/>
<path d="M529.155 48.2222L520.133 33.6194C518.616 31.2083 517.858 30.0028 516.011 29.4389C515.058 29.1278 514.105 29.05 513.794 29.05C513.152 29.05 512.977 28.7972 512.977 28.6028C512.977 28.35 513.172 28.1555 513.93 28.1555C515.388 28.1555 520.405 28.35 520.794 28.35C521.3 28.35 524.294 28.1555 526.258 28.1555C527.075 28.1555 527.269 28.2917 527.269 28.5444C527.269 28.8555 527.016 29.05 526.511 29.05C526.2 29.05 525.363 29.1083 524.994 29.2444C524.547 29.3805 524.352 29.6917 524.352 30.0028C524.352 30.5667 524.605 31.0917 525.111 31.9667C527.716 36.7306 529.544 39.8417 532.48 44.4694C534.133 42.1167 539.966 33.2889 540.472 32.0833C540.919 31.2667 541.172 30.8778 541.172 30.1778C541.172 29.7889 540.977 29.2833 540.025 29.1667C539.577 29.1083 538.955 29.05 538.625 29.05C538.177 29.05 537.866 28.8555 537.866 28.5444C537.866 28.35 538.061 28.1555 538.761 28.1555C541.036 28.1555 543.583 28.35 544.03 28.35C544.536 28.35 547.005 28.1555 549.047 28.1555C549.611 28.1555 549.805 28.35 549.805 28.5444C549.805 28.8555 549.494 29.05 549.105 29.05C548.541 29.05 547.783 29.1667 547.083 29.3611C545.566 29.8083 544.419 31.6555 542.961 33.6778L534.016 46.5694C535.163 48.3389 544.614 63.8944 545.819 65.3528C546.577 66.3056 547.413 67.4528 548.988 67.8222C549.825 68.0167 550.447 68.075 550.7 68.075C551.322 68.075 551.458 68.3278 551.458 68.5222C551.458 68.8333 551.205 68.9694 550.641 68.9694C547.083 68.9694 543.525 69.0278 540.414 68.8333C539.402 68.775 539.461 68.5806 539.461 68.2694C539.461 68.075 539.713 68.0167 540.083 67.8806C540.725 67.6861 540.53 67.1806 540.025 66.3639C537.108 61.0944 533.939 55.8833 530.691 50.6139L522.116 64.575C521.669 65.3333 521.163 66.3444 521.163 66.9278C521.163 67.4333 521.533 67.8806 522.311 67.9972C522.7 68.0556 522.758 68.0556 523.069 68.0556C523.633 68.0556 523.827 68.25 523.827 68.5028C523.827 68.7556 523.633 68.95 523.127 68.95C521.786 68.95 518.052 68.7556 517.547 68.7556C517.158 68.7556 514.63 68.95 512.666 68.95C512.025 68.95 511.85 68.6972 511.85 68.5028C511.85 68.25 512.102 68.0556 512.55 68.0556C512.938 68.0556 513.502 67.9972 514.397 67.8028C516.05 67.3556 517.255 66.15 519.025 63.4861L529.175 48.1833L529.155 48.2222Z" fill="#095533"/>
<path d="M570.164 51.3333C570.164 59.0722 571.622 62.3778 574.034 64.5361C576.756 66.9472 579.809 67.4528 582.414 67.4528C585.72 67.4528 588.695 66.5583 591.106 63.7778C593.653 60.8611 594.217 56.0389 594.217 50.5167V43.7889C594.217 35.4667 594.217 34.0083 594.1 32.2972C593.964 30.45 593.789 29.4972 591.747 29.1861C591.3 29.1278 590.542 29.0694 589.978 29.0694C589.589 29.0694 589.336 28.875 589.336 28.6806C589.336 28.2917 589.647 28.175 590.231 28.175C592.953 28.175 596.142 28.3694 596.395 28.3694C596.706 28.3694 599.447 28.175 601.217 28.175C601.859 28.175 602.111 28.3111 602.111 28.6222C602.111 28.875 601.859 29.0694 601.47 29.0694C601.081 29.0694 600.964 29.0694 600.322 29.1278C598.553 29.3222 598.3 30.4694 598.164 32.2972C598.106 34.0083 598.106 35.4667 598.106 43.7889V49.4472C598.106 55.1639 597.464 62.0083 592.972 65.8778C588.85 69.3778 584.786 69.6889 581.364 69.6889C579.595 69.6889 573.625 69.6889 569.503 65.8778C566.781 63.3306 564.797 59.5389 564.797 51.6639V43.7889C564.797 35.4083 564.797 33.95 564.603 32.2389C564.545 30.5278 564.234 29.4389 562.25 29.1861C561.861 29.1278 561.103 29.0694 560.597 29.0694C560.15 29.0694 559.897 28.875 559.897 28.6806C559.897 28.2917 560.15 28.175 560.85 28.175C563.572 28.175 567.014 28.3694 567.442 28.3694C567.947 28.3694 571.7 28.175 573.411 28.175C574.111 28.175 574.306 28.3111 574.306 28.6222C574.306 28.9333 573.859 29.0694 573.547 29.0694C573.159 29.0694 572.653 29.1278 572.147 29.1861C570.631 29.3806 570.359 30.45 570.242 32.2389C570.184 33.95 570.184 35.4083 570.184 43.7889V51.3528L570.164 51.3333Z" fill="#095533"/>
<path d="M622.295 43.7694C622.295 35.3889 622.294 33.8722 622.158 32.1611C622.022 30.45 621.595 29.4972 619.611 29.1083C619.222 29.05 618.6 28.9722 618.095 28.9722C617.647 28.9722 617.395 28.8361 617.395 28.5833C617.395 28.3306 617.589 28.1361 618.153 28.1361C620.875 28.1361 624.764 28.3306 624.881 28.3306C625.444 28.3306 629.761 28.1361 631.55 28.1361C635.108 28.1361 638.978 28.4472 641.953 30.5472C643.158 31.4417 645.764 33.9694 645.764 38.2861C645.764 41.7861 644.053 46.2194 639.036 50.2833C643.664 56 647.475 60.6861 650.722 64.05C653.775 67.1611 655.681 67.6667 657.45 67.9194C657.897 67.9778 659.22 68.0556 659.414 68.0556C659.92 68.0556 660.114 68.25 660.114 68.5028C660.114 68.8139 659.861 68.95 658.967 68.95H654.533C651.558 68.95 650.158 68.7556 648.758 68.1917C646.095 67.0444 644.189 64.1861 640.883 59.9472C638.414 56.8944 635.867 53.4722 634.797 52.1306C634.544 51.8778 634.408 51.7417 634.039 51.7417L627.506 51.6833C627.253 51.6833 627.194 51.7417 627.194 51.9944V52.8889C627.194 57.9639 627.194 62.6111 627.506 64.8861C627.7 66.4028 627.895 67.6861 629.975 67.9389C630.617 67.9972 631.297 68.075 631.822 68.075C632.386 68.075 632.658 68.2694 632.658 68.4639C632.658 68.775 632.406 68.9694 631.764 68.9694C628.458 68.9694 624.919 68.775 624.647 68.775C623.636 68.775 620.836 68.9694 619.125 68.9694C618.483 68.9694 618.231 68.8333 618.231 68.4639C618.231 68.2694 618.619 68.075 618.989 68.075C619.436 68.075 619.883 68.075 620.389 67.9389C621.478 67.7444 621.847 67.0444 622.042 65.5278C622.353 63.2333 622.295 58.0417 622.295 53.2778V43.75V43.7694ZM627.175 48.2806C627.175 48.5917 627.233 48.9222 627.486 49.0389C628.303 49.4861 630.85 49.8556 633.144 49.8556C634.467 49.8556 636.061 49.7972 637.403 48.9028C639.308 47.6972 640.572 44.8972 640.572 40.8333C640.572 33.9111 636.897 30.1 631.239 30.1C629.645 30.1 628.322 30.2361 627.564 30.4111C627.369 30.4694 627.175 30.6639 627.175 30.975V48.2417V48.2806Z" fill="#095533"/>
<path d="M677.575 55.1445C677.575 52.0917 677.128 50.9639 676.175 49.3111C675.786 48.6111 668.436 36.6139 666.453 33.8917C664.741 31.4806 664.1 30.7222 663.225 30.0222C662.33 29.3806 661.514 29.1278 660.25 29.0694C659.861 29.0694 659.55 28.875 659.55 28.5639C659.55 28.3694 659.803 28.175 660.308 28.175C661.319 28.175 666.141 28.3694 666.278 28.3694C666.647 28.3694 668.747 28.175 671.1 28.175C671.741 28.175 671.916 28.3694 671.916 28.5639C671.916 28.8167 671.722 28.9528 671.216 29.0694C670.322 29.2639 670.205 29.575 670.205 30.0806C670.205 30.7222 670.594 31.3444 671.041 32.1806C671.858 33.775 680.239 47.2306 681.191 48.8056C682.203 46.5889 689.319 34.9611 690.214 33.3861C691.419 31.2861 691.672 30.7222 691.672 30.0222C691.672 29.2056 690.914 29.2056 690.214 29.0694C689.708 29.0111 689.514 28.8167 689.514 28.5639C689.514 28.3694 689.65 28.175 690.272 28.175C691.789 28.175 693.13 28.3694 694.141 28.3694C694.978 28.3694 698.653 28.175 699.722 28.175C700.286 28.175 700.48 28.3694 700.48 28.5639C700.48 28.875 700.169 29.0694 699.722 29.0694C698.4 29.1278 697.447 29.2639 696.553 29.8861C695.6 30.5278 695.23 31.0917 694.2 32.4917C690.525 37.5667 684.361 47.9111 683.408 50.1472C682.65 52.1111 682.766 53.5111 682.766 55.1639V59.7917C682.766 60.2389 682.766 62.5917 682.903 64.8667C683.039 66.3833 683.155 67.4722 685.119 67.8417C685.936 68.0361 687.025 68.0945 687.472 68.0945C687.978 68.0945 688.172 68.2889 688.172 68.4833C688.172 68.7945 687.978 68.9889 687.414 68.9889C684.244 68.9889 680.297 68.7945 680.103 68.7945C679.966 68.7945 676.175 68.9889 674.386 68.9889C673.744 68.9889 673.491 68.7945 673.491 68.4833C673.491 68.2889 673.686 68.0945 674.133 68.0945C674.639 68.0945 675.203 68.0361 675.728 67.9C676.816 67.7056 677.244 66.3833 677.38 64.8472C677.575 62.5528 677.575 60.2778 677.575 59.7722V55.1445Z" fill="#095533"/>
</g>
<defs>
<clipPath id="clip0_572_1808">
<rect width="700" height="93.275" fill="white" transform="translate(0.5)"/>
</clipPath>
</defs>
</svg>
