<svg width="521" height="150" viewBox="0 0 521 150" fill="none" xmlns="http://www.w3.org/2000/svg">
<g clip-path="url(#clip0_621_731)">
<path d="M0.896484 26.3656C0.896484 11.801 12.6975 0 27.2621 0H124.531C139.095 0 150.896 11.801 150.896 26.3656V123.634C150.896 138.199 139.095 150 124.531 150H27.2621C12.6975 150 0.896484 138.199 0.896484 123.634V26.3656Z" fill="#FBCE20"/>
<path d="M107.174 85.3998V119.562H85.1523V85.3998H66.6411V119.562H44.6196V31.1365H66.6411V67.8098H85.1523V31.1365H107.174V67.8098H134.49V31.5631C134.49 22.8069 127.392 15.7088 118.635 15.7088H33.158C24.4018 15.7088 17.3037 22.8069 17.3037 31.5631V118.427C17.3037 127.183 24.4018 134.281 33.158 134.281H118.635C127.392 134.281 134.49 127.183 134.49 118.427V85.3901H107.174V85.3998Z" fill="#0C653A"/>
<path d="M181.528 121.055C173.674 121.055 166.217 119.833 159.148 117.399C152.089 114.965 145.844 111.3 140.404 106.423L153.941 90.2191C162.717 97.2396 172.2 100.75 182.392 100.75C185.65 100.75 188.132 100.226 189.848 99.1887C191.555 98.1511 192.418 96.6675 192.418 94.7476V94.4954C192.418 93.5742 192.205 92.7694 191.788 92.0518C191.371 91.344 190.595 90.6555 189.47 89.9864C188.345 89.3173 186.833 88.6773 184.961 88.0471C183.08 87.4168 180.636 86.7768 177.63 86.1077C172.947 85.0217 168.603 83.8386 164.598 82.5393C160.583 81.2496 157.093 79.5817 154.125 77.5357C151.158 75.4897 148.821 72.9491 147.105 69.9043C145.388 66.8595 144.535 63.0875 144.535 58.5784V58.3263C144.535 54.2343 145.311 50.4816 146.853 47.0683C148.394 43.6454 150.654 40.6878 153.621 38.186C156.588 35.6843 160.157 33.7449 164.336 32.368C168.515 30.991 173.238 30.3025 178.503 30.3025C186.028 30.3025 192.728 31.2916 198.624 33.2698C204.52 35.2479 209.843 38.1666 214.604 42.0357L202.445 59.2669C198.43 56.4257 194.319 54.2731 190.1 52.8088C185.882 51.3446 181.81 50.6174 177.882 50.6174C174.954 50.6174 172.763 51.1604 171.298 52.2464C169.834 53.3325 169.107 54.6609 169.107 56.2512V56.5033C169.107 57.5021 169.34 58.3845 169.795 59.1312C170.251 59.8875 171.046 60.576 172.181 61.1966C173.315 61.8172 174.857 62.4475 176.816 63.0681C178.775 63.6984 181.267 64.3383 184.273 65.0074C189.286 66.0935 193.814 67.3638 197.877 68.8183C201.931 70.2825 205.373 72.0473 208.224 74.1418C211.065 76.2266 213.237 78.7478 214.74 81.715C216.243 84.6726 216.999 88.2022 216.999 92.2846V92.5367C216.999 97.0457 216.146 101.05 214.43 104.551C212.713 108.052 210.309 111.038 207.225 113.501C204.132 115.964 200.408 117.836 196.064 119.135C191.72 120.425 186.871 121.074 181.519 121.074L181.528 121.055Z" fill="#0C653A"/>
<path d="M260.8 121.181C254.535 121.181 248.892 120.386 243.879 118.796C238.865 117.205 234.599 114.762 231.089 111.465C227.578 108.168 224.883 103.989 223.001 98.9269C221.12 93.8748 220.18 87.921 220.18 81.0653V31.8055H245.004V80.5708C245.004 86.9222 246.458 91.6252 249.357 94.67C252.257 97.7245 256.155 99.2469 261.052 99.2469C265.949 99.2469 269.837 97.7827 272.746 94.8639C275.645 91.9355 277.1 87.3877 277.1 81.2011V31.8152H301.924V80.4545C301.924 87.5622 300.944 93.6809 298.976 98.8202C297.008 103.96 294.254 108.178 290.705 111.484C287.156 114.791 282.85 117.234 277.798 118.815C272.746 120.405 267.083 121.2 260.809 121.2L260.8 121.181Z" fill="#0C653A"/>
<path d="M308.13 31.7959H332.576V119.542H308.13V31.7959Z" fill="#0C653A"/>
<path d="M365.041 53.1094H338.714V31.7959H415.677V53.1094H389.351V119.542H365.031V53.1094H365.041Z" fill="#0C653A"/>
<path d="M421.321 31.7959H491.769V52.4792H445.263V65.7638H473.81V84.9441H445.263V98.859H492.399V119.542H421.321V31.7959Z" fill="#0C653A"/>
<path d="M520.103 65.6959H479.58V84.915H520.103V65.6959Z" fill="#FBCE20"/>
</g>
<defs>
<clipPath id="clip0_621_731">
<rect width="519.206" height="150" fill="white" transform="translate(0.896484)"/>
</clipPath>
</defs>
</svg>
