<svg width="547" height="150" viewBox="0 0 547 150" fill="none" xmlns="http://www.w3.org/2000/svg">
<g clip-path="url(#clip0_541_721)">
<path fill-rule="evenodd" clip-rule="evenodd" d="M497.261 66.6372C495.112 65.4943 492.804 64.7169 490.162 64.846L490.157 64.8487C488.707 64.7169 487.158 65.0383 485.643 65.4229C484.481 65.7169 483.271 66.0795 482.281 66.7251C481.123 67.4834 480.024 68.4174 479.155 69.5355L479.047 69.6733C478.091 70.9009 477.14 72.1205 476.772 73.7306C476.652 74.2564 476.501 74.7725 476.35 75.2886C476.049 76.3176 475.748 77.3471 475.69 78.4559C475.676 78.735 475.633 79.0184 475.589 79.3026C475.508 79.8322 475.427 80.3651 475.532 80.8762C475.627 81.3417 475.683 81.8138 475.74 82.286L475.74 82.2891C475.844 83.1528 475.947 84.0194 476.287 84.846C476.562 85.5114 476.743 86.2175 476.923 86.9217C476.978 87.1331 477.032 87.3449 477.088 87.5548L477.099 87.5935L477.118 87.6668C477.175 87.8894 477.23 88.1023 477.375 88.3048C478.629 90.0355 480.12 91.5465 481.736 92.9174C482.734 93.7636 483.909 94.4861 485.193 94.6866C485.508 94.7362 485.823 94.7899 486.138 94.8436C487.74 95.1169 489.344 95.3903 491.032 95.1262C492.684 94.8707 494.278 94.5465 495.835 93.9614C497.509 93.3322 499.016 92.357 500.21 91.0905C501.658 89.5548 502.732 87.7031 503.356 85.6262C503.476 85.2251 503.566 84.846 503.577 84.4339C503.587 84.0713 503.609 83.7059 503.661 83.3487C503.704 83.0501 503.749 82.7522 503.795 82.4545C503.954 81.4153 504.113 80.3777 504.138 79.3185C504.146 78.9687 504.065 78.6473 503.984 78.3265C503.922 78.083 503.861 77.8399 503.838 77.585C503.691 75.8707 503.29 74.2224 502.543 72.6509C502.193 71.915 501.721 71.2705 501.25 70.6268C500.977 70.2542 500.704 69.8813 500.455 69.4916C499.654 68.2361 498.504 67.2993 497.261 66.6372ZM493.125 89.8515C491.127 90.7746 489.393 90.2773 487.442 89.6344C487.312 89.5323 487.179 89.4094 487.038 89.2791C486.788 89.0483 486.512 88.7942 486.185 88.5905C485.149 87.9455 484.764 86.8284 484.396 85.7651C484.354 85.6418 484.312 85.5192 484.269 85.3982C483.712 83.8322 483.282 82.2086 483.391 80.4943C483.432 79.8402 483.422 79.184 483.412 78.5276C483.405 78.1309 483.399 77.7341 483.405 77.3377C483.429 75.5026 483.868 73.7581 484.718 72.1399C485.653 70.3625 487.278 69.5108 489.159 69.5685C490.664 69.6125 492.095 70.2443 493.278 71.3432C494.352 72.3432 494.886 73.618 495.404 74.9284C496.009 76.4641 496.306 78.0438 496.222 79.7059C496.173 80.6419 496.194 81.5798 496.214 82.5181L496.225 82.9998C496.274 85.4998 495.399 87.6015 493.6 89.3213C493.422 89.492 493.263 89.6844 493.179 89.7874C493.155 89.8168 493.136 89.8393 493.125 89.8515Z" fill="#495E57"/>
<path d="M546.096 68.6811C545.698 68.7796 545.321 68.9346 544.942 69.0906C544.453 69.2917 543.96 69.4944 543.414 69.5795V93.7498C543.253 94.2993 542.978 94.5273 542.62 94.7553H538.67C537.982 94.362 537.528 93.7077 537.075 93.0552C536.937 92.8555 536.798 92.656 536.653 92.4641C534.519 89.6483 532.483 86.7625 530.445 83.8755L529.92 83.1317C529.181 82.085 528.398 81.0676 527.614 80.0499L527.612 80.0476L527.608 80.043C527.124 79.4148 526.64 78.7865 526.167 78.1509C526.062 78.0094 525.936 77.8843 525.804 77.7534C525.734 77.6835 525.662 77.612 525.591 77.5355C525.33 78.5355 525.24 86.7279 525.439 90.2251C525.87 90.6056 526.436 90.6768 527.003 90.7481C527.717 90.838 528.432 90.928 528.882 91.6372C528.986 92.3542 528.84 93.017 528.697 93.6645C528.632 93.9615 528.567 94.2577 528.527 94.552C527.502 94.846 520.586 94.9256 517.561 94.6949C517.097 94.1619 516.748 93.6042 517.078 92.7773C517.187 92.5028 517.202 92.189 517.218 91.8635C517.225 91.71 517.232 91.5539 517.25 91.3982C517.617 91.0583 518.089 90.9257 518.567 90.7911C519.036 90.6592 519.512 90.5253 519.905 90.1921V69.9861C519.509 69.6485 519.019 69.5004 518.52 69.3496C517.983 69.1875 517.436 69.0222 516.985 68.6152C516.978 68.5066 516.971 68.3976 516.963 68.2884C516.896 67.3535 516.827 66.3951 517.154 65.3817C517.784 65.3817 518.401 65.3811 519.011 65.3805C520.209 65.3792 521.378 65.3781 522.546 65.3817C522.611 65.3817 522.676 65.3821 522.741 65.3826C523.352 65.3866 523.962 65.3907 524.555 65.0355C525.369 65.7288 525.91 66.6072 526.45 67.4817C526.885 68.1873 527.319 68.8904 527.892 69.4916C528.746 70.3874 529.469 71.4091 530.192 72.4315C530.542 72.9268 530.893 73.4223 531.259 73.9037C531.744 74.5423 532.176 75.2186 532.607 75.8947C533.173 76.7805 533.739 77.6661 534.423 78.4669C534.955 79.0885 535.445 79.7413 535.94 80.3997L535.943 80.4041C536.564 81.2311 537.192 82.0666 537.915 82.8597C537.915 82.18 537.919 81.5006 537.923 80.8213C537.932 79.2822 537.94 77.7441 537.904 76.2059C537.888 75.5332 537.907 74.8585 537.925 74.1845C537.965 72.6783 538.005 71.1758 537.665 69.7086C537.255 69.3806 536.783 69.2741 536.308 69.1669C535.877 69.0695 535.442 68.9715 535.05 68.7059C534.856 68.1504 534.883 67.562 534.91 66.9768C534.926 66.636 534.942 66.2957 534.914 65.9641C535.053 65.5493 535.345 65.3377 535.729 65.1125C536.184 65.1427 536.646 65.1445 537.114 65.1464C537.962 65.1497 538.829 65.1532 539.706 65.3268C540.433 65.4713 541.193 65.4381 541.954 65.4049C542.293 65.3901 542.631 65.3754 542.967 65.3762H546.099V68.6729L546.096 68.6811Z" fill="#495E57"/>
<path d="M460.321 90.4257C460.647 90.5784 461.007 90.6396 461.367 90.7009C462.043 90.8159 462.721 90.9313 463.184 91.6537C463.292 92.1432 463.178 92.6319 463.062 93.13C462.959 93.574 462.854 94.0255 462.903 94.4916C462.831 94.5304 462.766 94.5739 462.705 94.6146C462.586 94.6947 462.483 94.7636 462.379 94.7636C458.473 94.7718 454.57 94.7691 450.663 94.7471C450.565 94.7471 450.467 94.6639 450.358 94.5719C450.304 94.5259 450.247 94.4778 450.186 94.4366V91.5932C450.556 90.9914 451.179 90.8325 451.836 90.6651C452.282 90.5514 452.744 90.4337 453.152 90.1702C453.106 89.34 453.112 88.5026 453.118 87.6593C453.127 86.3096 453.137 84.9427 452.934 83.5685C452.678 81.8322 452.451 80.0575 452.596 78.2718C452.659 77.5053 452.607 76.7279 452.413 75.9202C452.083 76.7741 451.754 77.6289 451.425 78.4839L451.424 78.4865L451.422 78.4898L451.421 78.4937L451.419 78.4988L451.418 78.5019L451.417 78.5046C450.639 80.5254 449.861 82.5469 449.06 84.5575C448.5 85.9652 448.022 87.4038 447.549 88.8266C447.056 90.3107 446.568 91.7788 445.999 93.1757C444.497 93.7348 443.088 93.6995 441.699 93.6647C441.334 93.6556 440.971 93.6465 440.607 93.6482C439.304 90.6894 438.296 87.7498 437.331 84.8048C436.9 83.4908 436.42 82.1964 435.938 80.8927C435.352 79.31 434.76 77.7136 434.245 76.052C433.935 76.7184 433.864 77.3066 433.792 77.8958C433.783 77.9695 433.774 78.0441 433.765 78.118C433.589 79.5336 433.579 80.9543 433.57 82.373C433.562 83.5036 433.554 84.6335 433.462 85.7581C433.353 87.0713 433.253 88.3789 433.231 89.6949C433.23 89.7162 433.229 89.7375 433.228 89.759L433.225 89.8227C433.213 90.0515 433.2 90.2963 433.394 90.585C434.302 90.607 435.256 90.8048 436.18 91.0245C436.712 91.6451 436.583 92.3454 436.467 92.974C436.456 93.0347 436.444 93.0972 436.434 93.1564L436.416 93.2621C436.324 93.814 436.212 94.4868 435.362 94.7526H425.546C425.225 94.6207 424.998 94.3432 424.816 94.0081V91.7031C425.203 91.0262 425.826 90.8518 426.489 90.6664C426.926 90.544 427.38 90.4168 427.795 90.1372C427.86 90.0646 427.841 89.8983 427.82 89.7077C427.808 89.6026 427.795 89.4901 427.795 89.3817C427.789 87.783 427.972 86.2019 428.157 84.6187C428.202 84.224 428.248 83.8292 428.291 83.4339C428.407 82.3694 428.376 81.2862 428.346 80.207C428.338 79.9112 428.329 79.6133 428.324 79.3185C428.305 78.1995 428.48 77.1079 428.655 76.0153C428.701 75.7265 428.747 75.4377 428.79 75.1482C428.853 74.7173 428.855 74.2762 428.858 73.8351C428.859 73.59 428.86 73.3448 428.872 73.1015C428.883 72.8647 428.88 72.6269 428.876 72.389C428.867 71.7657 428.858 71.142 429.115 70.5355C429.213 70.3048 429.196 69.9888 428.902 69.6674C428.514 69.4608 428.059 69.3929 427.587 69.3224C427.023 69.2382 426.434 69.1504 425.906 68.8185C425.902 68.6931 425.896 68.5679 425.891 68.443C425.85 67.468 425.809 66.5069 426.241 65.5328C426.585 65.2388 427.035 65.1125 427.558 65.1207C428.043 65.1283 428.531 65.1133 429.019 65.0983C429.945 65.0699 430.87 65.0415 431.775 65.1674C432.939 65.3271 434.102 65.3378 435.243 65.3483C435.868 65.3541 436.487 65.3598 437.096 65.3899C437.53 65.6073 437.658 65.9644 437.781 66.3093C437.811 66.3916 437.84 66.4732 437.873 66.552C438.642 68.3798 439.268 70.2591 439.893 72.1393C440.122 72.8252 440.35 73.5112 440.585 74.1949C441.436 76.6652 442.267 79.143 443.098 81.6206L443.611 83.1482C443.712 83.4476 443.824 83.7279 444.118 84.0768C445.168 81.0245 446.212 77.9894 447.252 74.964C448.334 71.8162 449.413 68.6789 450.492 65.5438C450.936 65.1454 451.465 65.1235 452.021 65.1235C454.269 65.1317 456.516 65.1307 458.767 65.1296L461.022 65.129C461.374 65.2498 461.635 65.4916 461.815 65.7965C461.964 66.3694 461.84 66.9024 461.717 67.432C461.626 67.8242 461.535 68.2147 461.556 68.618C461.17 68.8754 460.738 68.9877 460.306 69.1001C459.801 69.2313 459.296 69.3627 458.86 69.7251C458.921 70.4332 458.92 71.1461 458.919 71.8644V71.8672C458.917 72.8506 458.915 73.8444 459.073 74.8487C459.315 76.4009 459.509 77.9888 459.446 79.596C459.365 81.6712 459.643 83.7383 459.921 85.7944L459.923 85.8158C459.992 86.3103 459.986 86.824 459.953 87.324C459.905 88.0647 460.036 88.7782 460.169 89.499L460.169 89.5019L460.17 89.5046C460.225 89.8085 460.281 90.1138 460.324 90.4229L460.321 90.4257Z" fill="#495E57"/>
<path d="M295.054 91.7142C295.408 90.9935 296.056 90.8584 296.705 90.7233C296.971 90.6678 297.237 90.6124 297.483 90.5165C297.976 90.0219 298.034 89.4066 298.028 88.75C298.024 87.9681 298.041 87.1841 298.058 86.4002L298.058 86.3975C298.094 84.7973 298.129 83.1968 297.979 81.6153C297.766 79.3541 297.78 77.0928 297.794 74.8224C297.805 73.1097 297.815 71.3918 297.728 69.6648C297.327 69.4357 296.872 69.3332 296.402 69.227C295.902 69.1142 295.384 68.9972 294.891 68.7197C294.72 68.1911 294.84 67.6664 294.958 67.1521C295.061 66.6989 295.163 66.2538 295.062 65.8214C295.28 65.4843 295.564 65.3695 295.839 65.2586C295.95 65.214 296.059 65.1701 296.161 65.1126C296.273 65.1399 296.384 65.1742 296.495 65.2085C296.73 65.2811 296.964 65.3534 297.199 65.3571C297.643 65.3635 298.087 65.3781 298.531 65.3928C299.818 65.4353 301.106 65.4779 302.371 65.3186C303.728 65.1483 305.077 65.0412 306.411 65.1621C306.695 65.1879 306.982 65.2296 307.268 65.2714C308.018 65.3807 308.768 65.4901 309.488 65.3132C310.309 65.1126 311.129 65.0219 311.898 65.1538C313.149 65.3698 314.401 65.3649 315.696 65.3599C316.311 65.3575 316.937 65.3551 317.576 65.3763C318.108 67.0274 318.402 68.7582 318.446 70.4862C318.452 70.7712 318.474 71.0606 318.497 71.3524C318.581 72.4585 318.668 73.5985 317.939 74.6593C316.775 74.7747 315.613 74.7664 314.384 74.662C313.752 73.1566 313.127 71.6703 312.478 70.1236H304.889C305.279 71.4122 305.14 72.694 304.998 73.9886C304.884 75.0373 304.768 76.0946 304.933 77.1703H313.841C314.163 77.4752 314.278 77.7664 314.4 78.1538C314.09 78.6541 314.103 79.2419 314.117 79.8438C314.135 80.6368 314.153 81.4544 313.433 82.1291H305.214C305.176 82.9267 305.107 83.7169 305.039 84.5055C304.881 86.3054 304.725 88.0977 304.947 89.9505C306.408 90.2503 307.846 90.1148 309.285 89.9792C310.471 89.8675 311.657 89.7558 312.857 89.8873L315.477 84.6785H318.601L318.669 84.7405C318.856 84.9111 319.058 85.0961 319.228 85.2527C319.601 88.5879 318.844 91.6758 317.854 94.7637C310.371 94.7637 302.976 94.7637 295.583 94.7527C295.484 94.7527 295.384 94.676 295.262 94.5828C295.199 94.5348 295.131 94.4825 295.054 94.434V91.7142Z" fill="#495E57"/>
<path d="M390.085 69.3488C390.453 69.4238 390.819 69.4984 391.158 69.6375H391.161C391.294 70.9425 391.303 88.6155 391.169 90.2721C390.836 90.5378 390.407 90.627 389.974 90.7172C389.313 90.8546 388.64 90.9945 388.277 91.7639C388.314 92.0707 388.294 92.3903 388.273 92.7124C388.229 93.4054 388.184 94.1102 388.71 94.7254C392.646 94.9562 410.09 94.8573 411.229 94.5853C412.546 91.5936 412.581 88.404 412.508 85.0853L412.259 85.0211C411.196 84.7462 410.206 84.4901 409.141 84.6787C408.858 84.8298 408.602 85.0441 408.476 85.3381C408.296 85.7649 408.083 86.1756 407.87 86.5862C407.562 87.1799 407.255 87.7735 407.045 88.415C406.86 88.9782 406.612 89.5221 405.966 89.86C405.67 89.86 405.363 89.8406 405.051 89.8208C404.34 89.7758 403.603 89.7292 402.923 89.9068C401.749 90.2124 400.643 90.0539 399.538 89.8957C399.173 89.8434 398.809 89.7911 398.442 89.7556C398.235 87.7282 398.292 83.2282 398.548 82.1375H406.56C406.95 81.893 407.184 81.6815 407.348 81.3243C407.26 80.7672 407.372 80.2073 407.484 79.6466C407.623 78.9466 407.763 78.2455 407.517 77.5469C407.224 77.158 406.865 77.1706 406.52 77.1828C406.46 77.1849 406.4 77.187 406.342 77.187C405.686 77.1854 405.03 77.1882 404.374 77.1909C403.85 77.193 403.325 77.1952 402.801 77.1952H398.401C398.002 75.8624 398.048 74.5476 398.093 73.2494C398.117 72.5893 398.14 71.9321 398.104 71.2804C398.077 70.8051 398.237 70.3985 398.562 70.11H405.701C406.01 70.6877 406.263 71.2897 406.515 71.8881C406.931 72.8748 407.343 73.8522 407.991 74.6952H411.028C411.076 74.6517 411.124 74.6106 411.17 74.5706C411.27 74.4845 411.364 74.4034 411.447 74.3133C411.509 74.2478 411.56 74.1725 411.613 74.0932C411.64 74.0529 411.668 74.0116 411.698 73.9699C411.701 73.6365 411.706 73.3028 411.712 72.9689V72.966C411.751 70.4157 411.791 67.8574 410.78 65.393C410.209 65.3716 409.646 65.3598 409.088 65.3481C407.859 65.3223 406.655 65.2971 405.448 65.1705C403.943 65.0111 402.403 65.1046 400.863 65.3243C399.667 65.4935 398.441 65.3664 397.216 65.2394C396.95 65.2117 396.683 65.1841 396.416 65.1595C394.028 64.9369 391.63 65.172 389.244 65.4059L388.983 65.4315C388.931 65.4369 388.883 65.4763 388.831 65.519C388.803 65.5417 388.774 65.5653 388.743 65.5853C388.198 66.5221 388.203 67.5469 388.296 68.6375C388.822 69.0912 389.457 69.2207 390.085 69.3488Z" fill="#495E57"/>
<path d="M222.083 65.371C223.66 65.371 225.223 65.3778 226.776 65.3846C230.623 65.4013 234.407 65.4178 238.19 65.3298C239.071 65.3092 239.952 65.2696 240.833 65.2299C242.069 65.1743 243.307 65.1187 244.545 65.1155C245.194 65.1155 245.807 65.1704 246.39 65.6759C246.435 65.8867 246.493 66.1039 246.553 66.3281C246.647 66.6766 246.745 67.0427 246.805 67.4287C247.129 69.4849 247.084 71.5469 247.038 73.6082C247.029 74.0029 247.021 74.3995 247.014 74.794C247.013 74.9548 246.905 75.1132 246.793 75.2773C246.738 75.3572 246.683 75.4385 246.638 75.5221H244.046C243.502 75.3217 243.269 74.8454 243.039 74.3751L243.01 74.316C242.537 73.3527 242.067 72.3894 241.601 71.4339L240.941 70.0798H237.629C237.406 71.3728 237.535 72.6543 237.664 73.9339C237.762 74.9052 237.86 75.8757 237.803 76.849C237.748 77.7955 237.736 78.7431 237.724 79.6916C237.708 80.9701 237.693 82.2509 237.569 83.5331C237.464 84.6173 237.564 85.704 237.664 86.7887C237.771 87.9551 237.878 89.119 237.73 90.2748C238.273 90.6175 238.857 90.6982 239.419 90.7757C239.982 90.8535 240.522 90.928 240.971 91.2611C241.154 93.1045 241.124 93.4012 240.658 94.4479C238.613 94.9012 236.52 94.9259 234.415 94.588C234.17 94.5481 233.945 94.614 233.716 94.6808C233.52 94.7381 233.322 94.7962 233.107 94.7885C231.793 94.7391 230.473 94.7528 229.157 94.7803C228.549 94.794 228.023 94.588 227.458 94.349V91.6182C227.865 90.9827 228.529 90.8461 229.214 90.7052C229.713 90.6025 230.223 90.4975 230.653 90.1951V70.1402H227.295C226.927 70.7 226.659 71.3741 226.387 72.0597C226.299 72.282 226.21 72.5069 226.117 72.7281C225.997 73.0157 225.891 73.3091 225.784 73.6034C225.553 74.2396 225.32 74.8809 224.948 75.4781C224.381 75.5853 223.817 75.5671 223.272 75.5495C222.936 75.5386 222.607 75.528 222.287 75.5468C221.93 75.3902 221.693 75.1869 221.453 74.8243C221.487 74.2787 221.394 73.7228 221.299 73.1581C221.181 72.4517 221.061 71.7314 221.183 71.0001C221.29 70.3673 221.34 69.7246 221.391 69.0785C221.488 67.8394 221.587 66.588 222.083 65.371Z" fill="#495E57"/>
<path d="M203.178 94.7831C203.525 94.6237 203.74 94.3929 204.01 93.9863H204.007C203.928 93.2226 204.021 92.4616 204.277 91.7446C203.798 90.9031 203.033 90.784 202.255 90.663C201.718 90.5794 201.175 90.4949 200.717 90.1704V88.8737C200.717 87.6954 200.717 86.5173 200.718 85.3393C200.719 81.8044 200.721 78.2693 200.709 74.7336C200.708 74.4679 200.715 74.2015 200.722 73.935C200.747 73.0231 200.772 72.107 200.485 71.2061C200.387 70.8957 200.352 70.4864 200.545 70.1979C201.441 69.7341 202.348 69.774 203.251 69.8137C203.466 69.8232 203.681 69.8326 203.895 69.8353C204.296 70.3671 204.507 70.964 204.715 71.551C204.853 71.9434 204.991 72.3314 205.182 72.6924C205.363 73.0342 205.5 73.3986 205.637 73.7652C205.864 74.3738 206.094 74.9885 206.537 75.5166L206.608 75.5205C207.628 75.5772 208.634 75.6331 209.742 75.0962C210.1 73.7889 210.051 72.4088 210.001 71.0159C209.979 70.3837 209.956 69.7474 209.971 69.1155C210.001 67.86 209.732 66.6237 209.165 65.3929C208.278 65.3632 207.395 65.3503 206.514 65.3374C204.954 65.3145 203.4 65.2918 201.848 65.1759C199.427 64.9918 196.982 65.1265 194.54 65.327C192.688 65.48 190.82 65.444 188.952 65.4079C188.136 65.3922 187.321 65.3765 186.506 65.3765H185.072C184.494 66.282 184.514 67.2301 184.533 68.1664C184.543 68.6958 184.554 69.2216 184.456 69.7336C184.226 70.9327 184.279 72.1853 184.331 73.4485C184.354 73.9969 184.377 74.5473 184.377 75.0962C185.527 75.8971 186.669 75.5395 187.787 75.1896L187.804 75.1842C188.26 74.2798 188.71 73.3909 189.158 72.5061C189.574 71.6841 189.988 70.8655 190.404 70.0413C190.886 70.0883 191.349 70.0765 191.803 70.065C192.41 70.0497 192.998 70.0348 193.583 70.1622V90.1979C193.16 90.575 192.619 90.6692 192.089 90.7615C191.415 90.879 190.758 90.9934 190.383 91.6842V94.294C190.838 94.7693 191.364 94.7885 191.92 94.7885C194.749 94.7803 197.577 94.7813 200.385 94.7824L203.178 94.7831Z" fill="#495E57"/>
<path d="M375.985 83.8049C375.985 84.3153 375.994 84.8066 376.002 85.2842C376.02 86.3207 376.036 87.2935 375.963 88.2582C375.827 90.0988 375.484 91.9175 374.889 93.673C374.611 94.4917 374.282 94.7554 373.407 94.7746C372.582 94.7946 371.756 94.7913 370.93 94.7881C370.62 94.7868 370.309 94.7856 369.999 94.7856L366.577 94.7814C362.585 94.7762 358.595 94.771 354.603 94.7774C353.91 94.7774 353.245 94.7609 352.643 94.2005C352.494 93.6097 352.514 92.9882 352.536 92.3517C352.547 92.0352 352.557 91.7149 352.547 91.3928C352.903 90.9949 353.384 90.8875 353.873 90.7785C354.362 90.6691 354.86 90.5581 355.246 90.151V69.7197C354.916 69.3607 354.438 69.2612 353.951 69.1598C353.298 69.0238 352.628 68.8843 352.275 68.1098C352.539 67.4395 352.58 66.673 352.556 65.934C352.703 65.651 352.864 65.423 353.169 65.4038C353.45 65.3873 353.732 65.3728 354.013 65.3584C354.807 65.3175 355.601 65.2767 356.396 65.1895C356.755 65.15 357.146 65.2121 357.546 65.2755C357.869 65.3268 358.198 65.379 358.52 65.379H365.654C366.027 65.5768 366.237 65.8104 366.406 66.1126V68.5961C365.831 69.1225 365.109 69.221 364.38 69.3204C363.675 69.4165 362.963 69.5136 362.372 69.9999V79.2884C362.372 79.6277 362.382 79.9684 362.392 80.309C362.417 81.1179 362.441 81.9278 362.328 82.7142C362.203 83.5713 362.11 84.4202 362.11 85.2801C362.11 85.4804 362.109 85.6809 362.107 85.8816C362.096 87.1787 362.086 88.4859 362.511 89.8158C362.628 89.9917 362.86 90.0878 363.157 90.0878C364.835 90.0878 366.519 90.0878 368.197 90.0988C368.835 90.1016 369.285 89.8626 369.628 89.2884C370.533 87.7719 371.438 86.2527 372.125 84.6235C372.316 84.1757 372.504 83.8186 372.965 83.5329C373.287 83.5685 373.62 83.5504 373.961 83.5319C374.619 83.4962 375.304 83.4591 375.983 83.8049H375.985Z" fill="#495E57"/>
<path d="M123.319 94.0329C123.493 94.3241 123.708 94.5521 124.068 94.7499H144.911C145.301 94.4835 145.573 94.2389 145.682 93.7829C145.763 93.4471 145.853 93.1133 145.943 92.7798C146.252 91.6344 146.56 90.4911 146.484 89.2719C146.466 88.9807 146.521 88.691 146.575 88.4027C146.596 88.2912 146.617 88.1797 146.634 88.0686C146.841 86.6785 146.792 85.2774 146.702 83.7966C146.207 83.8536 145.746 83.7638 145.284 83.6739C144.677 83.5557 144.069 83.4374 143.382 83.651C142.485 85.6703 141.506 87.7527 140.309 89.7774C138.811 90.1799 137.284 90.1444 135.71 90.1078C134.942 90.09 134.162 90.0719 133.369 90.1043C133.379 89.2621 133.322 88.4526 133.265 87.6633C133.217 86.9877 133.17 86.3268 133.167 85.673C133.163 84.3235 133.142 82.9734 133.12 81.6241C133.057 77.7329 132.995 73.8478 133.353 70.0027C133.902 69.56 134.549 69.448 135.197 69.3358C135.92 69.2107 136.644 69.0854 137.232 68.4999C137.155 68.1289 137.178 67.743 137.202 67.3484C137.24 66.7263 137.279 66.0827 136.927 65.4422H123.49C123.18 66.5384 123.267 67.5988 123.365 68.6401C123.878 69.0675 124.477 69.1989 125.074 69.3299C125.497 69.4229 125.92 69.5158 126.312 69.7142C126.254 70.6258 126.26 71.5319 126.266 72.4362C126.275 73.7666 126.284 75.0927 126.091 76.4258C125.924 77.59 126.035 78.7833 126.147 79.9749C126.184 80.3776 126.222 80.7801 126.249 81.1813C126.365 82.9028 126.339 84.6331 126.314 86.3637C126.301 87.1987 126.289 88.0339 126.293 88.8681C126.295 89.4862 126.186 90.0384 125.758 90.5164C125.52 90.6056 125.263 90.659 125.006 90.7127C124.351 90.8491 123.692 90.9865 123.319 91.7142V94.0329Z" fill="#495E57"/>
<path d="M261.833 83.8655C261.629 85.9305 261.639 88.0477 262.097 90.121C261.645 90.4809 261.154 90.638 260.671 90.7929C260.195 90.9452 259.726 91.0953 259.309 91.4342C259.384 91.7744 259.293 92.1185 259.198 92.4729C259.156 92.6309 259.114 92.7909 259.085 92.9535C258.894 94.0524 259.437 94.6952 260.535 94.7611C260.762 94.7749 260.991 94.7694 261.217 94.7611C262.061 94.7303 262.904 94.7252 263.747 94.7202C265.157 94.7117 266.568 94.7033 267.986 94.5743C269.95 94.3964 271.935 94.4417 273.92 94.4871C274.756 94.5061 275.591 94.5252 276.425 94.5276C276.602 94.5304 276.782 94.5688 276.954 94.6128C277.873 94.8426 278.794 94.8097 279.689 94.7776C280.141 94.7614 280.588 94.7454 281.024 94.7639C281.087 94.6806 281.144 94.6144 281.192 94.5582C281.278 94.457 281.337 94.3883 281.356 94.3106C281.814 92.4782 282.169 90.6265 282.512 88.7694C282.744 87.5084 282.785 86.2447 282.76 84.9727C282.741 84.0304 282.289 83.5798 281.348 83.5276C280.954 83.5053 280.557 83.5107 280.126 83.5165C279.92 83.5193 279.706 83.5221 279.481 83.5221C279.005 84.2953 278.577 85.0961 278.149 85.8956C277.385 87.3232 276.623 88.7474 275.599 90.0029C274.675 90.1018 269.575 89.8079 268.871 89.6073C268.871 88.2529 268.873 86.897 268.875 85.5402V85.5375C268.879 82.2366 268.883 78.9287 268.863 75.6238C268.857 74.818 268.938 74.0186 269.018 73.2237C269.128 72.135 269.237 71.0548 269.122 69.9782C269.601 69.7272 270.121 69.6006 270.631 69.4762C271.501 69.2643 272.345 69.0588 272.917 68.2557V65.8655C272.693 65.4699 272.418 65.3573 272.072 65.3765C270.397 65.4739 268.727 65.3669 267.058 65.2598C265.477 65.1585 263.897 65.0571 262.313 65.1293C261.677 65.1594 261.044 65.2594 260.429 65.3564C260.148 65.4009 259.87 65.4447 259.598 65.4809C258.963 66.5139 259.009 67.5414 259.088 68.6677C259.488 68.91 259.946 68.9994 260.407 69.0894C261.003 69.2057 261.605 69.3232 262.095 69.7721C261.971 71.8625 261.997 73.9544 262.024 76.0473C262.057 78.6524 262.09 81.259 261.833 83.8655Z" fill="#495E57"/>
<path d="M170.602 90.7201C170.256 90.6493 169.907 90.5778 169.551 90.5054H169.554C169.137 89.379 169.068 88.346 169.107 87.2993C169.132 86.6258 169.133 85.9522 169.135 85.2782C169.137 84.0031 169.14 82.7264 169.306 81.4449C169.482 80.0932 169.434 78.7087 169.386 77.3297C169.373 76.9655 169.361 76.6017 169.352 76.2389C169.347 76.0318 169.343 75.8249 169.34 75.6179C169.322 74.6523 169.304 73.6865 169.183 72.7114C169.114 72.1676 169.193 71.5955 169.273 71.0185C169.335 70.5637 169.399 70.1058 169.39 69.6565C170.301 69.3378 171.135 69.0466 172.004 68.7444C172.157 67.6098 172.168 66.5439 172.021 65.4724C171.95 65.4574 171.889 65.4418 171.833 65.4277C171.726 65.4005 171.642 65.379 171.557 65.379C169.299 65.3724 167.039 65.3688 164.78 65.3652C163.273 65.3627 161.767 65.3603 160.261 65.357C159.934 65.357 159.626 65.379 159.35 65.7664C159.352 66.1162 159.273 66.4721 159.192 66.8379C159.075 67.3624 158.954 67.9072 159.059 68.4834C159.361 69.0741 159.868 69.1922 160.504 69.2774C160.828 69.3211 161.161 69.3858 161.504 69.4524C161.743 69.4988 161.986 69.5461 162.235 69.5878V90.1702C161.878 90.5549 161.386 90.6603 160.894 90.7656C160.273 90.8987 159.652 91.0317 159.307 91.7279V94.2664C159.699 94.6702 160.146 94.7884 160.673 94.7884C164.164 94.7774 167.659 94.7829 171.151 94.7884C171.481 94.7884 171.786 94.7554 172.083 94.2856C172.026 93.92 172.119 93.5349 172.217 93.1333C172.378 92.4694 172.55 91.7603 172.07 91.0191C171.582 90.9206 171.096 90.8211 170.602 90.7201Z" fill="#495E57"/>
<path d="M31.1112 7.21574C30.7519 7.47269 30.3927 7.72953 30.0445 7.99997L30.0363 7.99447C30.4724 8.52469 30.9222 8.27195 31.3529 8.00272C32.3343 7.38733 33.4383 7.12085 34.545 6.95052C35.2592 6.84063 35.9816 6.7225 36.6686 6.54118C37.3882 6.35162 38.0888 6.31041 38.8139 6.3159C39.0778 6.31819 39.3441 6.32999 39.6106 6.3418C40.3047 6.37257 41.0007 6.40342 41.6625 6.26645C42.635 6.06587 43.6001 6.03927 44.5716 6.01249C44.771 6.007 44.9707 6.00149 45.1708 5.99447C46.3201 5.95372 47.4643 6.04634 48.6086 6.13896C49.8556 6.23989 51.1027 6.34083 52.3565 6.2692C52.6209 6.25272 52.9044 6.31865 53.1552 6.40931C54.2374 6.79667 55.355 6.88459 56.4918 6.87909C56.5983 6.87855 56.7056 6.87653 56.8132 6.8745C57.2534 6.8662 57.6986 6.8578 58.1192 6.95052C59.4004 7.23349 60.6843 7.45876 62.0009 7.45327C62.0315 7.45303 62.0623 7.45247 62.0932 7.45191C62.4229 7.44594 62.7619 7.43981 62.9414 7.82415C62.7656 8.19537 62.4496 8.19374 62.1283 8.19207C62.0859 8.19186 62.0433 8.19164 62.0009 8.19228C61.816 8.19502 61.631 8.19784 61.4461 8.20065C59.2267 8.2344 57.0074 8.26814 54.788 8.18953C54.7561 8.18841 54.7241 8.18727 54.692 8.18614C53.8613 8.15673 53.0151 8.12676 52.2093 8.28019C51.3211 8.45055 50.4409 8.45855 49.5531 8.46661L49.5106 8.467C48.2866 8.47799 47.0599 8.48898 45.836 8.49722C45.3343 8.49975 44.8313 8.48906 44.3283 8.47836C43.1944 8.45426 42.0608 8.43015 40.9429 8.55766C39.8267 8.68434 38.7175 8.70336 37.6069 8.7224C37.3206 8.72731 37.0342 8.73222 36.7476 8.73898C35.7499 8.76371 34.7522 8.78568 33.7545 8.79118C33.2257 8.79392 32.7432 8.90107 32.2498 9.17579C33.1875 10.3654 34.1252 11.4011 35.2374 12.2857C35.9462 12.8489 36.6467 13.4615 37.1401 14.2362C37.6308 15.0055 38.3041 15.5027 39.1383 15.7967C39.3524 15.8719 39.5632 15.9541 39.7739 16.0363C40.3946 16.2784 41.0142 16.5202 41.7143 16.5796C42.4013 16.6401 43.1046 16.8681 43.7206 17.3104C44.9091 18.1621 46.2694 18.6593 47.6596 19.0741L47.6758 19.079C48.6572 19.3741 49.6435 19.6706 50.5219 20.2307C50.5118 19.7691 50.8178 19.7805 51.1115 19.7915C51.1359 19.7924 51.1602 19.7933 51.1843 19.7939C52.6595 19.8283 54.0833 19.5217 55.5082 19.2148C55.7896 19.1543 56.0709 19.0937 56.3527 19.0357C59.1605 18.456 61.8565 17.5219 64.5497 16.5522C67.5265 15.4807 70.3587 14.1181 72.9457 12.2967C73.8098 11.6895 74.6712 11 75.2845 10.2445C75.4127 9.49173 75.1701 8.87634 74.9411 8.40931C74.3986 7.29667 73.8098 6.12085 72.4277 5.74997C72.2054 5.68949 71.9967 5.58409 71.7876 5.47852C71.6738 5.42104 71.5599 5.36352 71.4437 5.31316C70.2933 4.81041 69.1157 4.35711 67.8836 4.12909C66.0272 3.78568 64.2417 3.26096 62.508 2.49722C62.2486 2.38339 61.9918 2.26195 61.7345 2.14033C60.9425 1.76592 60.1468 1.38974 59.2641 1.22799C58.373 1.06612 57.4914 0.861001 56.6031 0.654342C56.2251 0.566376 55.8458 0.478132 55.4641 0.392827C55.4504 0.263706 55.4368 0.131838 55.4232 -0.0027771H45.6097C45.5961 0.131838 45.5825 0.263706 45.5688 0.387333C44.4321 0.854366 43.3226 1.27744 42.0959 1.43129C41.5126 1.50272 40.8611 1.60986 40.305 1.96426C38.3614 3.20052 36.3333 4.27195 34.128 4.96975C33.8744 5.05217 33.5828 5.14832 33.4083 5.33239C32.7223 6.06369 31.9163 6.64001 31.1112 7.21574Z" fill="#495E57"/>
<path fill-rule="evenodd" clip-rule="evenodd" d="M26.4928 10.4866C26.4421 10.4949 26.3931 10.5029 26.348 10.5136H26.3534C25.3694 11.7005 24.6606 12.8625 24.1972 14.1565C23.9791 14.7664 23.7011 15.3131 23.2813 15.8104C22.2699 17.0082 21.6621 18.412 21.3104 19.9395C21.0884 20.9028 20.8637 21.8653 20.639 22.8278C20.2569 24.4648 19.8749 26.1016 19.5058 27.7417C19.424 28.0878 19.4322 28.4834 19.5058 28.8323C19.5975 29.2714 19.6558 29.7165 19.7141 30.1619C19.8082 30.8815 19.9025 31.6019 20.1382 32.2994C20.3536 32.9367 20.479 33.6263 20.5171 34.2994C20.5744 35.2939 20.9124 36.1702 21.4494 36.9669C21.8003 37.4883 22.138 38.0182 22.4757 38.5481C23.211 39.7017 23.9464 40.8556 24.8187 41.923C25.9336 43.2884 27.1549 44.4422 28.8313 45.0494C29.6846 45.3571 30.4778 45.7801 31.2247 46.3076C31.9253 46.8021 32.6531 47.2801 33.4273 47.64C35.5099 48.6098 37.6198 49.5274 39.7352 50.4312C40.1577 50.6126 40.5339 50.8268 40.9019 51.0988C41.9159 51.8516 42.9327 52.6016 44.2194 52.8461C45.1162 53.0164 45.9204 53.423 46.6618 53.9532C47.5532 54.5878 48.5537 54.9752 49.5786 55.3433C50.1593 55.5521 50.6445 55.4615 51.1379 55.2197C51.6793 54.9521 51.8793 54.4265 52.0493 53.9798C52.0591 53.9542 52.0687 53.9288 52.0783 53.9038C51.9939 53.6115 51.893 53.3288 51.7943 53.0523C51.5842 52.4635 51.3843 51.9033 51.375 51.3406C51.3608 50.5481 51.2764 49.7618 51.192 48.9758C51.0818 47.95 50.9716 46.9248 51.0179 45.8873C51.0364 45.4827 51.0793 45.0781 51.122 44.6751C51.1801 44.126 51.238 43.5799 51.2333 43.0411C51.2258 42.413 51.019 41.7874 50.8122 41.1617C50.716 40.8707 50.6198 40.5797 50.5436 40.2884C50.5109 40.1593 50.5164 40.0164 50.5218 39.879C50.5709 38.6345 50.3692 37.4367 49.993 36.2499C49.7476 35.4724 49.655 34.6593 49.6468 33.8323C49.6359 32.7224 49.3251 31.684 48.6981 30.7637C48.3111 30.195 48.0139 29.5796 47.7904 28.9367C47.0953 26.9257 45.7895 25.368 44.184 24.0631C43.0472 23.14 42.055 22.0961 41.12 20.9752C40.9914 20.821 40.8655 20.6646 40.7396 20.5083C40.1052 19.7202 39.4725 18.9342 38.5058 18.4505C37.1101 17.7527 36.096 16.5796 35.1992 15.3049C35.0193 15.0466 34.7985 14.7966 34.5477 14.6098C33.7651 14.0308 33.0892 13.3368 32.4139 12.6434C32.0095 12.2281 31.6052 11.813 31.1784 11.423C29.9408 10.2884 28.6024 9.40925 26.8414 10.3873C26.7366 10.4468 26.6104 10.4674 26.4928 10.4866ZM28.4073 16.5672C28.6413 17.922 28.8839 19.2438 29.3356 20.5191C30.2614 23.1362 31.4496 25.6366 32.6375 28.1364C32.8138 28.5075 32.9902 28.8785 33.1656 29.2499C33.4263 29.8014 33.6707 30.3614 33.9153 30.9217C34.5247 32.3182 35.1349 33.7165 36.0006 34.9889C36.6892 35.9998 37.3314 37.0438 37.9728 38.0865C38.0932 38.2821 38.2135 38.4777 38.334 38.673C39.9887 41.3571 41.8042 43.8955 44.4375 45.7142C44.5713 45.8065 44.6924 45.9186 44.8193 46.0362C45.0928 46.2897 45.3937 46.5684 45.9095 46.7279C45.5801 46.1712 45.2638 45.6315 44.9551 45.1044C44.2521 43.9044 43.5878 42.7705 42.8946 41.6538C42.4366 40.9175 42.0386 40.1757 41.7578 39.3488C41.4525 38.4505 41.0845 37.5549 40.6238 36.7279C40.2218 36.004 39.7806 35.3027 39.3394 34.6014C38.9819 34.0332 38.6244 33.4649 38.2877 32.8845C38.1376 32.6255 37.9841 32.3682 37.8305 32.1109C37.2168 31.0827 36.6024 30.0535 36.2078 28.9065C35.7307 27.5219 35.0084 26.2719 34.2015 25.0521C33.9897 24.7317 33.7692 24.4155 33.5485 24.099C32.8571 23.1074 32.1636 22.1129 31.7318 20.9779C31.1307 19.3923 30.0078 18.2286 28.8734 17.0528C28.7178 16.8915 28.562 16.73 28.4073 16.5672Z" fill="#495E57"/>
<path d="M28.4073 16.5618C28.406 16.5604 28.4047 16.559 28.4034 16.5577L28.4061 16.5549C28.4065 16.5572 28.4069 16.5595 28.4073 16.5618Z" fill="#F4CE14"/>
<path d="M28.4073 16.5618C28.6413 17.9165 28.8839 19.2384 29.3356 20.5137C30.2642 23.1413 31.457 25.6494 32.6486 28.1553C32.8212 28.5183 32.9938 28.8812 33.1656 29.2445C33.4249 29.7936 33.668 30.3508 33.9111 30.908C34.5219 32.3078 35.133 33.7082 36.0006 34.9835C36.709 36.0234 37.3682 37.0962 38.028 38.1699C38.1299 38.3358 38.2319 38.5018 38.334 38.6676C39.9887 41.3516 41.8042 43.8901 44.4375 45.7088C44.5713 45.8011 44.6924 45.9132 44.8193 46.0308C45.0928 46.2842 45.3937 46.563 45.9095 46.7225C45.5801 46.1659 45.2639 45.6261 44.9551 45.0991C44.2521 43.899 43.5878 42.765 42.8946 41.6483C42.4393 40.9121 42.0386 40.1703 41.7578 39.3434C41.4498 38.445 41.0845 37.5494 40.6238 36.7225C40.2218 35.9986 39.7806 35.2973 39.3394 34.5959C38.9819 34.0277 38.6244 33.4595 38.2877 32.8791C38.1376 32.6201 37.9841 32.3628 37.8304 32.1054C37.2167 31.0773 36.6024 30.0481 36.2078 28.9011C35.7307 27.5165 35.0084 26.2665 34.2015 25.0467C33.9892 24.7254 33.7681 24.4086 33.5468 24.0914C32.8559 23.1013 32.1633 22.1086 31.7318 20.9725C31.1307 19.3869 30.0078 18.2231 28.8734 17.0474C28.7178 16.8861 28.562 16.7246 28.4073 16.5618Z" fill="#F4CE14"/>
<path fill-rule="evenodd" clip-rule="evenodd" d="M82.953 114.439C82.9696 114.188 82.9861 113.94 83.1348 113.72L83.1321 113.723C83.0503 113.67 83.0449 113.607 83.1185 113.547C83.1347 113.532 83.1556 113.524 83.1774 113.515C83.1886 113.51 83.2 113.506 83.2111 113.5C83.5437 111.283 84.3124 109.203 85.2583 107.192C85.61 106.44 85.8717 105.668 85.9207 104.849C85.9698 104.022 86.1306 103.234 86.4005 102.459C86.3187 102.407 86.3133 102.346 86.3896 102.286C86.4111 102.268 86.4377 102.258 86.464 102.248C86.4711 102.245 86.4781 102.242 86.485 102.239C86.4821 101.963 86.5593 101.706 86.6371 101.447C86.7028 101.229 86.7689 101.009 86.7876 100.775C86.7954 100.68 86.8032 100.585 86.811 100.489C87.0694 97.3314 87.328 94.171 88.6167 91.2721C88.5658 91.0834 88.5149 90.9024 88.4654 90.7263C88.3584 90.3461 88.258 89.9889 88.1778 89.6265C88.0415 88.9974 87.9843 88.3545 88.2514 87.7446C88.8702 86.3325 88.9029 84.8325 88.9166 83.3325C88.9187 83.0882 88.9264 82.8424 88.9342 82.5963C88.957 81.8796 88.9798 81.1604 88.8621 80.4671C88.693 79.4616 88.5813 78.4562 88.7503 77.4781C89.0065 75.9781 88.6958 74.5825 88.1588 73.2391C87.5645 71.7474 87.3737 70.2721 87.8753 68.7172C87.8145 68.5475 87.7528 68.3783 87.6911 68.2092C87.2851 67.0962 86.8807 65.9872 86.7576 64.7996L86.6131 64.654C86.6268 64.6416 86.6397 64.6292 86.6527 64.6168C86.6656 64.6045 86.6786 64.5921 86.6922 64.5798C86.4624 63.6796 86.123 62.82 85.7836 61.9604C85.6238 61.5556 85.4639 61.1509 85.3156 60.7419C85.1419 60.2624 84.9465 59.7895 84.7511 59.3165C84.2534 58.1118 83.7555 56.9065 83.6146 55.5908C83.5083 54.599 83.1075 53.7776 82.5678 52.9754C82.4293 52.7699 82.2832 52.5658 82.1367 52.361C81.6662 51.7036 81.1911 51.0397 80.9459 50.3023C80.3216 48.4259 79.4248 46.7666 78.1926 45.2309C77.6963 44.6119 77.3394 43.8768 76.9845 43.1455C76.8794 42.929 76.7744 42.7128 76.6661 42.5001C76.2409 41.6677 75.6657 40.9781 74.8969 40.4671C74.2046 40.0056 73.6675 39.415 73.2178 38.7117C72.9016 38.2151 72.5647 37.7329 72.2275 37.2503C71.992 36.9132 71.7564 36.576 71.5277 36.2336C71.2987 35.8875 71.0588 35.5578 70.718 35.3215C69.6161 34.5532 68.6695 33.6104 67.7233 32.6681C67.0591 32.0065 66.3951 31.3452 65.6777 30.7446L65.6662 30.735C64.0345 29.3728 62.394 28.0033 60.4984 27.0221C59.6425 26.577 58.8547 26.0853 58.2686 25.3133C57.8706 24.7858 57.3717 24.4314 56.742 24.2556C55.1337 23.8106 53.8389 22.8435 52.585 21.7776C52.4306 21.6461 52.28 21.5084 52.1292 21.3705C51.6435 20.9264 51.155 20.4797 50.5268 20.2281C49.6436 19.6649 48.6514 19.3655 47.6646 19.0715C46.2743 18.654 44.9141 18.1595 43.7256 17.3078C43.1095 16.8655 42.4089 16.6347 41.7193 16.577C41.0219 16.5197 40.4019 16.2774 39.7812 16.0349C39.5697 15.9522 39.358 15.8695 39.1432 15.7941C38.3064 15.5001 37.6358 15.0029 37.1451 14.2336C36.649 13.4562 35.9511 12.8463 35.2424 12.2831C34.1275 11.3985 33.1897 10.3628 32.2547 9.17319C32.7481 8.89572 33.2306 8.78858 33.7595 8.78858C34.7571 8.78583 35.7548 8.76111 36.7525 8.73638C37.0391 8.72962 37.3256 8.72471 37.6119 8.7198C38.7225 8.70076 39.8317 8.68174 40.9478 8.55506C42.0665 8.42937 43.2009 8.45286 44.3357 8.47635C44.8378 8.48675 45.34 8.49715 45.8409 8.49462C47.0649 8.48913 48.2916 8.47814 49.5155 8.4644L49.6009 8.46337C50.4741 8.4529 51.3377 8.44255 52.2142 8.27759C53.0208 8.12402 53.8704 8.15418 54.6996 8.18362C54.7308 8.18473 54.7619 8.18584 54.793 8.18693C57.0123 8.26554 59.2317 8.2318 61.451 8.19805C61.636 8.19524 61.8209 8.19242 62.0059 8.18968C62.0482 8.18904 62.0908 8.18926 62.1333 8.18948C62.4545 8.19114 62.7706 8.19277 62.9463 7.82155C62.7687 7.4412 62.4371 7.44551 62.1091 7.44977C62.0746 7.45022 62.0401 7.45067 62.0059 7.45067C60.6892 7.45616 59.408 7.23089 58.1241 6.94792C57.7035 6.8552 57.2583 6.8636 56.8181 6.8719C56.7106 6.87393 56.6033 6.87595 56.4967 6.87649C55.36 6.88199 54.2423 6.79407 53.1601 6.40671C52.9066 6.31605 52.6258 6.25012 52.3614 6.2666C51.1077 6.33823 49.8606 6.23729 48.6136 6.13636C47.4692 6.04374 46.325 5.95112 45.1758 5.99187C44.9757 5.99891 44.7759 6.00442 44.5762 6.00993C43.606 6.0367 42.6396 6.06336 41.6675 6.26385C41.0047 6.39904 40.3076 6.36878 39.6125 6.33861C39.347 6.32709 39.0818 6.31558 38.8188 6.3133C38.0937 6.30781 37.3932 6.34902 36.6735 6.53858C35.9838 6.7199 35.2642 6.83803 34.55 6.94792C33.4432 7.11825 32.3365 7.38473 31.3579 8.00012C30.9272 8.26935 30.4747 8.52484 30.0413 7.99188C29.6819 8.03212 29.3926 7.8687 29.1076 7.70776C28.9257 7.60501 28.7456 7.50326 28.5501 7.45616C27.8664 7.62752 27.2072 7.85856 26.5494 8.0891C25.7202 8.3797 24.8933 8.66952 24.0223 8.83803C23.1255 9.01111 22.2695 9.58528 21.6071 10.2996C20.8275 11.143 19.9497 11.86 19.0256 12.5248C18.6822 12.7721 18.4314 13.0358 18.2787 13.4534C17.8862 14.5276 17.3519 15.5303 16.6595 16.4452C16.3188 16.8957 16.1525 17.382 16.1825 17.9699C16.2946 20.2123 15.9651 22.4116 15.6354 24.6116C15.5325 25.2983 15.4296 25.985 15.3401 26.6732C15.2774 27.1595 15.0566 27.5468 14.7704 27.893C14.0589 28.7584 13.6718 29.7529 13.4592 30.8408C13.4475 30.9004 13.4362 30.9609 13.4248 31.0217C13.3599 31.3696 13.2929 31.729 13.1212 32.0166C11.8007 34.2246 11.0315 36.6414 10.2607 39.0635C10.1213 39.5014 9.98189 39.9394 9.83914 40.3765C9.28577 42.0688 8.47071 43.632 7.18951 44.9452C6.08549 46.0743 5.603 47.5688 5.27589 49.099C4.88335 50.9259 4.4581 52.7364 3.25049 54.2336C2.95336 54.6018 2.84705 55.0248 2.77345 55.4919C2.60172 56.5688 2.38364 57.6457 1.75667 58.5743C1.39411 59.11 1.34232 59.7007 1.50315 60.2831C1.81664 61.4177 1.74576 62.5331 1.51406 63.6677C1.43198 64.0659 1.40604 64.4762 1.38195 64.8571C1.37164 65.0202 1.36167 65.1779 1.34777 65.327C1.14426 65.501 1.02839 65.4443 0.915042 65.3889C0.908446 65.3856 0.901859 65.3824 0.895264 65.3792V66.7529C1.02338 66.7144 1.12697 66.7556 1.12697 66.8902C1.12697 67.0248 1.02066 67.0661 0.895264 67.0276V69.5001C0.910577 69.5183 0.930718 69.5366 0.950932 69.555C1.03147 69.6281 1.11317 69.7024 0.895264 69.7748V70.0496C1.02338 70.0138 1.12152 70.0606 1.12152 70.1897C1.12152 70.3243 1.01793 70.36 0.895264 70.3243V71.1485C0.931482 71.1327 0.9677 71.1174 1.00321 71.1024C1.04787 71.0836 1.09142 71.0652 1.13242 71.0468C1.29871 71.0523 1.38048 71.1595 1.4132 71.2913C1.42643 71.3438 1.43971 71.3964 1.45299 71.4489C1.82816 72.9325 2.20484 74.4221 1.62037 75.9424C1.43228 76.4314 1.41047 76.8875 1.54677 77.3985C2.03744 79.2419 2.25279 81.1292 2.22281 83.0386C2.2119 83.7336 2.30186 84.3792 2.62352 85.0056C3.22869 86.1869 3.49583 87.4671 3.62123 88.7803C3.64303 88.8037 3.66484 88.8263 3.68664 88.849C3.70845 88.8717 3.73026 88.8943 3.75207 88.9177C3.7439 88.9229 3.73594 88.928 3.72812 88.9329C3.70723 88.9461 3.6874 88.9586 3.66757 88.9726C3.80577 89.4319 3.89085 89.9042 3.97595 90.3766C4.09395 91.0317 4.21198 91.6869 4.47173 92.3078C4.59712 92.3518 4.67617 92.4232 4.62983 92.5688C4.67161 92.6757 4.71458 92.7822 4.75754 92.8887C5.0061 93.505 5.25457 94.1211 5.27316 94.8051C5.28414 94.8161 5.29512 94.8269 5.30601 94.8376C5.34378 94.8747 5.38044 94.9108 5.41218 94.9534C5.41627 94.9596 5.39283 94.9873 5.37164 95.0124C5.36454 95.0208 5.35769 95.0289 5.35221 95.0358C5.38064 95.1368 5.40973 95.2377 5.43882 95.3386C5.62175 95.9728 5.80461 96.6068 5.82108 97.2776C5.82864 97.2857 5.8362 97.2936 5.84374 97.3016C5.8824 97.3425 5.92043 97.3827 5.95465 97.4287C5.95645 97.4305 5.93555 97.4504 5.9141 97.4708C5.90315 97.4812 5.89206 97.4918 5.88377 97.5001C6.00547 97.6841 6.02847 97.8917 6.05151 98.0997C6.06357 98.2086 6.07563 98.3175 6.10185 98.4232C6.43714 99.7941 6.82696 101.146 7.76741 102.25L7.77951 102.264C7.83599 102.328 7.895 102.396 7.92552 102.473C8.73931 104.434 10.0207 106.077 11.3017 107.719C11.9473 108.546 12.5929 109.374 13.1784 110.242C13.5383 110.778 13.8436 111.319 14.0916 111.907C15.0566 114.203 16.4578 116.187 18.3878 117.753C19.1047 118.335 19.7262 118.962 20.1651 119.778C20.4022 120.217 20.6558 120.659 21.0592 120.973C22.4334 122.045 23.5035 123.402 24.5699 124.755C24.7685 125.007 24.967 125.259 25.1672 125.508C26.0695 126.632 27.1272 127.539 28.2803 128.33C30.2103 129.651 31.9222 131.192 33.3806 133.019C33.6655 133.375 34.0238 133.627 34.3829 133.879C34.467 133.938 34.5512 133.997 34.6345 134.058C36.5755 135.457 38.7715 136.305 40.9687 137.153C41.3419 137.297 41.7152 137.441 42.0873 137.588C44.6497 138.602 47.2339 139.555 49.9735 139.967C50.7313 140.08 51.3419 140.434 51.898 140.898C52.6558 141.528 53.5172 141.833 54.4604 142.063C56.2568 142.503 57.8134 143.418 58.9364 144.926C59.4135 145.569 59.9423 146.069 60.6756 146.376C61.8451 146.866 62.7793 147.684 63.7143 148.503C64.111 148.85 64.5077 149.197 64.9227 149.519C65.0944 149.654 65.0808 149.827 64.9663 149.997H67.9648C67.9267 149.868 67.9676 149.761 68.1011 149.761C68.2347 149.761 68.2756 149.868 68.2374 149.997H69.873C69.7694 149.824 69.7422 149.64 69.9493 149.547C70.0821 149.487 70.2206 149.441 70.3577 149.395C70.643 149.3 70.9225 149.207 71.1324 148.997C71.2288 148.735 71.3189 148.473 71.4084 148.214C71.62 147.599 71.8278 146.996 72.1056 146.426C72.4109 145.802 72.4818 145.187 72.2855 144.577C71.803 143.069 72.062 141.596 72.4245 140.135C72.7189 138.945 73.0324 137.753 73.4767 136.615C73.5202 136.504 73.5633 136.392 73.6064 136.28C74.0657 135.084 74.5324 133.87 75.6439 133.066C76.02 132.794 76.2436 132.396 76.3717 131.942C76.4489 131.67 76.5358 131.4 76.6227 131.129C76.7999 130.577 76.9772 130.025 77.0723 129.459C77.3967 127.519 78.3289 125.879 79.3757 124.278L79.4285 124.197C79.8314 123.581 80.2373 122.96 80.4279 122.231C80.338 122.187 80.3243 122.126 80.3952 122.058C80.4124 122.042 80.4351 122.032 80.4583 122.022C80.4682 122.018 80.4782 122.013 80.4879 122.008C80.483 121.123 80.7933 120.323 81.1043 119.521C81.138 119.435 81.1716 119.348 81.2048 119.261C81.3688 118.834 81.5408 118.411 81.7127 117.987C82.1354 116.946 82.558 115.905 82.8622 114.819C82.7804 114.767 82.775 114.703 82.8486 114.643C82.8648 114.628 82.8857 114.62 82.9075 114.611C82.9187 114.607 82.9302 114.602 82.9413 114.596C82.946 114.544 82.9495 114.491 82.953 114.439ZM24.1913 14.1567C24.6575 12.8628 25.3662 11.7007 26.3476 10.5139H26.3421C26.387 10.503 26.4364 10.4949 26.4877 10.4865C26.6046 10.4674 26.7313 10.4467 26.8355 10.3875C28.5938 9.40946 29.9322 10.2886 31.1725 11.4232C31.5994 11.8132 32.0036 12.2283 32.4081 12.6436C33.0834 13.337 33.7593 14.031 34.5418 14.61C34.7926 14.7968 35.0107 15.0468 35.1933 15.3051C36.0874 16.577 37.1042 17.7529 38.4999 18.4507C39.4667 18.9344 40.0993 19.7204 40.7338 20.5085C40.8596 20.6648 40.9855 20.8212 41.1141 20.9754C42.0491 22.099 43.0414 23.1402 44.1781 24.0633C45.7837 25.3682 47.0894 26.9287 47.7845 28.9369C48.0081 29.5798 48.3052 30.1952 48.6923 30.7639C49.3192 31.6869 49.63 32.7254 49.6409 33.8325C49.6464 34.6595 49.739 35.4726 49.9871 36.2501C50.3633 37.4369 50.565 38.6347 50.5159 39.8792C50.5105 40.0139 50.505 40.1595 50.5378 40.2886C50.6141 40.5782 50.7099 40.8669 50.8055 41.1554C51.0139 41.7837 51.2218 42.4106 51.2274 43.0413C51.2321 43.5801 51.1743 44.1262 51.1161 44.6753C51.0734 45.0783 51.0305 45.4829 51.0121 45.8875C50.966 46.9193 51.0759 47.9406 51.1859 48.9628C51.271 49.7532 51.3561 50.5441 51.3692 51.3408C51.3785 51.9035 51.5783 52.4637 51.7885 53.0525C51.8871 53.3289 51.988 53.6117 52.0725 53.904C52.0629 53.929 52.0532 53.9544 52.0435 53.98C51.8735 54.4267 51.6734 54.9523 51.132 55.2199C50.6413 55.4617 50.1534 55.5523 49.5728 55.3435C48.5505 54.9781 47.5474 54.5908 46.656 53.9534C45.9145 53.4232 45.1104 53.0166 44.2135 52.8463C42.9269 52.6018 41.9101 51.8518 40.896 51.099C40.528 50.827 40.1518 50.6128 39.7293 50.4314C37.6167 49.5276 35.5068 48.61 33.4214 47.6402C32.6473 47.2803 31.9194 46.8023 31.2189 46.3078C30.4692 45.7803 29.6787 45.3573 28.8255 45.0496C27.149 44.4424 25.9278 43.2886 24.8129 41.9232C23.942 40.8554 23.2057 39.701 22.4696 38.547C22.1319 38.0175 21.7942 37.4881 21.4436 36.9671C20.9093 36.1704 20.5685 35.2941 20.5113 34.2996C20.4704 33.6265 20.3477 32.9369 20.1324 32.2996C19.8965 31.6016 19.8022 30.8815 19.708 30.1615C19.6498 29.7168 19.5915 29.2721 19.5 28.8325C19.4291 28.4836 19.4209 28.088 19.5 27.7419C19.869 26.1017 20.2511 24.4649 20.6332 22.8278C20.8578 21.8654 21.0825 20.9029 21.3045 19.9397C21.6562 18.415 22.2641 17.0111 23.2754 15.8106C23.6952 15.3133 23.9733 14.7666 24.1913 14.1567Z" fill="#F4CE14"/>
</g>
<defs>
<clipPath id="clip0_541_721">
<rect width="545.192" height="150" fill="white" transform="translate(0.903809)"/>
</clipPath>
</defs>
</svg>
