<svg width="589" height="150" viewBox="0 0 589 150" fill="none" xmlns="http://www.w3.org/2000/svg">
<path d="M545.84 66.8928H558.908V41.1616C558.908 34.9725 562.085 31.7932 567.083 31.7932C572.081 31.7932 575.004 34.9725 575.004 41.1616V66.8928H588.072V37.0285C588.072 26.452 582.311 19.9026 572.42 19.9026C565.791 19.9026 561.936 23.4422 558.929 27.2998V20.7504H545.861V66.8928H545.84ZM515.828 56.6554C508.606 56.6554 503.692 50.7207 503.692 43.917V43.7474C503.692 36.9437 508.161 31.1785 515.637 31.1785C523.114 31.1785 527.773 37.1133 527.773 43.917V44.0865C527.773 50.8903 523.305 56.6554 515.828 56.6554ZM515.659 67.9314C530.018 67.9314 540.693 57.1641 540.693 43.917V43.7474C540.693 30.5003 530.124 19.9026 515.849 19.9026C501.574 19.9026 490.815 30.6698 490.815 43.917V44.0865C490.815 57.3337 501.384 67.9314 515.659 67.9314ZM471.986 66.8928H485.054V20.7716H471.986V66.8928ZM471.647 15.6847H485.414V4.0696H471.647V15.6847ZM455.572 67.6559C459.956 67.6559 463.133 66.6173 465.886 64.9852V54.4935C464.001 55.5321 461.841 56.1255 459.448 56.1255C456.525 56.1255 455.233 54.6631 455.233 51.6533V31.9416H466.077V20.7504H455.233V8.96574H442.165V20.7504H436.658V31.9416H442.165V53.7941C442.165 64.4553 447.587 67.6559 455.572 67.6559ZM410.84 58.7114C406.626 58.7114 403.703 56.6554 403.703 53.1158V52.9462C403.703 48.8131 407.134 46.5876 412.725 46.5876C415.902 46.5876 418.825 47.2659 421.07 48.3044V50.6359C421.07 55.3625 416.94 58.7326 410.84 58.7326M406.88 67.7618C413.234 67.7618 417.639 65.4303 420.816 61.9119V66.8928H433.46V40.123C433.46 33.9339 431.914 28.847 428.483 25.4134C425.052 21.9797 420.054 20.2417 412.916 20.2417C405.08 20.2417 400.102 21.7042 395.019 23.9509L398.281 33.9339C402.496 32.3867 406.011 31.4329 411.01 31.4329C417.533 31.4329 420.901 34.4426 420.901 39.8687V40.6529C417.639 39.5295 414.272 38.7665 409.633 38.7665C398.705 38.7665 391.059 43.4083 391.059 53.4761V53.6457C391.059 62.7597 398.196 67.7618 406.88 67.7618ZM370.769 67.9314C379.982 67.9314 385.128 64.413 389.597 59.4956L381.951 51.7593C378.774 54.769 375.767 56.6554 371.383 56.6554C364.245 56.6554 359.692 50.9751 359.692 43.917V43.7474C359.692 36.9437 364.33 31.1785 370.874 31.1785C375.513 31.1785 378.436 33.1497 381.358 36.2654L389.364 27.6601C385.065 22.8487 379.643 19.9238 370.959 19.9238C356.853 19.9238 346.793 30.7758 346.793 43.9382V44.1077C346.793 57.2701 356.938 67.9526 370.79 67.9526M319.027 56.6766C311.804 56.6766 306.912 50.7419 306.912 43.9382V43.7686C306.912 36.9649 311.381 31.1997 318.857 31.1997C326.334 31.1997 330.972 37.1345 330.972 43.9382V44.1077C330.972 50.9115 326.503 56.6766 319.027 56.6766ZM318.857 67.9526C333.217 67.9526 343.87 57.1853 343.87 43.9382V43.7686C343.87 30.5215 333.302 19.9238 319.027 19.9238C304.751 19.9238 293.992 30.691 293.992 43.9382V44.1077C293.992 57.3549 304.561 67.9526 318.836 67.9526" fill="#4D4D4D"/>
<path d="M288.189 4.0696H275.121V66.8928H288.189V4.0696Z" fill="#4D4D4D"/>
<path d="M236.68 40.2078C237.718 34.2731 241.234 30.3943 246.656 30.3943C252.078 30.3943 255.593 34.3579 256.377 40.2078H236.68ZM247.948 67.9102C256.292 67.9102 262.477 64.6461 266.776 59.3049L259.3 52.6707C255.699 56.0196 252.501 57.3973 248.117 57.3973C242.271 57.3973 238.141 54.3027 236.849 48.368H268.915C269 47.1599 269.085 45.9518 269.085 44.9344C269.085 31.8568 262.032 19.8814 246.634 19.8814C233.228 19.8814 223.845 30.7334 223.845 43.8958V44.0654C223.845 58.1815 234.075 67.9102 247.926 67.9102M183.688 35.9051V18.6097H196.841C203.301 18.6097 207.24 21.5346 207.24 27.215V27.3846C207.24 32.4715 203.534 35.9051 197.095 35.9051H183.688ZM170.451 66.8928H183.688V47.6262H194.088L206.986 66.8928H222.468L207.77 45.3795C215.416 42.5393 220.668 36.435 220.668 26.7063V26.5367C220.668 20.8564 218.868 16.1298 215.5 12.7597C211.54 8.79618 205.609 6.65544 197.964 6.65544H170.451V66.8928Z" fill="#4D4D4D"/>
<path d="M322.5 82.6198H314.938V89.9322H322.5V82.6198Z" fill="#222222"/>
<path d="M493.377 144.998C502.231 144.998 509.199 140.102 509.199 131.666V131.496C509.199 123.485 501.807 120.814 494.924 118.758C488.993 116.956 483.487 115.324 483.487 111.106V110.937C483.487 107.228 486.833 104.493 492.085 104.493C496.385 104.493 501.108 106.125 505.238 108.796L508.246 103.794C503.692 100.784 497.677 98.8978 492.255 98.8978C483.487 98.8978 477.111 103.964 477.111 111.636V111.806C477.111 119.987 484.842 122.382 491.81 124.375C497.656 126.007 502.908 127.724 502.908 132.196V132.365C502.908 136.668 499.032 139.423 493.716 139.423C488.4 139.423 483.148 137.368 478.319 133.743L474.972 138.47C479.971 142.518 487.002 145.019 493.377 145.019M429.139 144.15H435.769V118.673C435.769 110.322 441.445 104.727 449.091 104.727C456.737 104.727 461.396 109.898 461.396 118.143V144.129H468.025V116.511C468.025 105.935 461.756 98.7071 450.997 98.7071C443.351 98.7071 438.692 102.586 435.769 107.397V99.6609H429.139V144.15ZM397.497 139.254C388.115 139.254 381.062 131.518 381.062 121.958V121.789C381.062 112.399 387.691 104.578 397.306 104.578C406.922 104.578 413.827 112.399 413.827 121.958V122.128C413.827 131.518 407.113 139.254 397.497 139.254ZM397.328 145.189C410.734 145.189 420.625 134.527 420.625 121.958V121.789C420.625 109.22 410.819 98.7283 397.497 98.7283C384.175 98.7283 374.284 109.39 374.284 121.958V122.128C374.284 134.697 384.006 145.189 397.328 145.189ZM331.353 144.15H369.879V138.554H340.291L369.879 103.879V99.6609H332.391V105.256H360.856L331.353 139.932V144.15ZM315.362 144.15H321.992V99.6609H315.362V144.15ZM283.381 144.15H290.01V126.431C290.01 113.014 297.91 106.041 307.632 106.041H308.14V98.8978C299.711 98.5587 293.272 103.9 289.989 111.297V99.682H283.36V144.171L283.381 144.15ZM251.739 139.254C242.356 139.254 235.303 131.518 235.303 121.958V121.789C235.303 112.399 241.932 104.578 251.548 104.578C261.164 104.578 268.068 112.399 268.068 121.958V122.128C268.068 131.518 261.354 139.254 251.739 139.254ZM251.569 145.189C264.976 145.189 274.867 134.527 274.867 121.958V121.789C274.867 109.22 265.061 98.7283 251.739 98.7283C238.417 98.7283 228.526 109.39 228.526 121.958V122.128C228.526 134.697 238.247 145.189 251.569 145.189ZM170.472 144.15H177.271V117.041H212.006V144.15H218.804V83.9127H212.006V110.682H177.271V83.9127H170.472V144.15Z" fill="#222222"/>
<path d="M20.2022 -1.52588e-05H131.523C142.155 -1.52588e-05 150.796 8.64772 150.796 19.2878V130.691C150.796 141.352 142.155 150 131.501 150H20.2022C9.57002 150 0.928711 141.352 0.928711 130.712V19.2878C0.928711 8.64772 9.57002 -1.52588e-05 20.2022 -1.52588e-05Z" fill="#72A84D"/>
<path d="M129.023 104.175V42.5391H113.668V65.8541H92.3189V42.5391H77.0484V104.197H92.3189V79.186H113.668V104.197H129.023V104.175ZM54.0472 62.9079C54.0472 68.8002 50.2984 72.0219 43.6904 72.0219H38.9673V54.0694H43.881C50.4891 54.0694 54.0472 57.2063 54.0472 62.9079ZM72.5371 102.225L57.4572 79.5251C64.7853 76.3882 69.0636 70.5807 69.0636 62.0177C69.0636 49.3216 60.3164 42.5391 45.4059 42.5391H23.8662V104.197H39.052V83.0224H42.8856L56.377 104.832L72.5371 102.247V102.225Z" fill="#C2D4AE"/>
</svg>
